<svg width="36" height="24" viewBox="0 0 36 24" fill="none" xmlns="http://www.w3.org/2000/svg">
<path fill-rule="evenodd" clip-rule="evenodd" d="M0.5 2C0.5 1.17157 1.17157 0.5 2 0.5H8C8.82843 0.5 9.5 1.17157 9.5 2C9.5 2.82843 8.82843 3.5 8 3.5H2C1.17157 3.5 0.5 2.82843 0.5 2ZM14.5 2C14.5 1.17157 15.1716 0.5 16 0.5H34C34.8284 0.5 35.5 1.17157 35.5 2C35.5 2.82843 34.8284 3.5 34 3.5H16C15.1716 3.5 14.5 2.82843 14.5 2ZM0.5 12C0.5 11.1716 1.17157 10.5 2 10.5H34C34.8284 10.5 35.5 11.1716 35.5 12C35.5 12.8284 34.8284 13.5 34 13.5H2C1.17157 13.5 0.5 12.8284 0.5 12ZM0.5 22C0.5 21.1716 1.17157 20.5 2 20.5H20C20.8284 20.5 21.5 21.1716 21.5 22C21.5 22.8284 20.8284 23.5 20 23.5H2C1.17157 23.5 0.5 22.8284 0.5 22ZM26.5 22C26.5 21.1716 27.1716 20.5 28 20.5H34C34.8284 20.5 35.5 21.1716 35.5 22C35.5 22.8284 34.8284 23.5 34 23.5H28C27.1716 23.5 26.5 22.8284 26.5 22Z" fill="#333333"/>
</svg>
