<svg width="24" height="24" viewBox="0 0 24 24" fill="none" xmlns="http://www.w3.org/2000/svg">
<path d="M21 19.5V14.252L20.9883 14.0303C20.9359 13.5151 20.7082 13.0305 20.3389 12.6611C19.9695 12.2918 19.4849 12.0641 18.9697 12.0117L18.748 12H5.25195L5.03027 12.0117C4.51509 12.0641 4.03048 12.2918 3.66113 12.6611C3.2392 13.0831 3.00183 13.6553 3 14.252V19.5C3 19.9142 2.66421 20.25 2.25 20.25C1.83579 20.25 1.5 19.9142 1.5 19.5V14.248L1.50488 14.0625C1.55327 13.137 1.94217 12.259 2.60059 11.6006C2.93461 11.2666 3.32551 11.0025 3.75 10.8164V6.37305L3.76367 6.11426C3.82471 5.51435 4.09042 4.9506 4.52051 4.52051C5.01192 4.02909 5.67809 3.75208 6.37305 3.75H17.627L17.8857 3.76367C18.4857 3.82471 19.0494 4.09042 19.4795 4.52051C19.9709 5.01192 20.2479 5.67809 20.25 6.37305V10.8164C20.6745 11.0025 21.0654 11.2666 21.3994 11.6006C22.1016 12.3028 22.4971 13.255 22.5 14.248V19.5C22.5 19.9142 22.1642 20.25 21.75 20.25C21.3358 20.25 21 19.9142 21 19.5ZM6.26562 5.25586C6.00798 5.28219 5.76578 5.39632 5.58105 5.58105C5.36992 5.79219 5.25097 6.07837 5.25 6.37695V10.5H18.75V6.37695L18.7441 6.26562C18.7178 6.00798 18.6037 5.76578 18.4189 5.58105C18.2342 5.39632 17.992 5.28219 17.7344 5.25586L17.623 5.25H6.37695L6.26562 5.25586Z" fill="#333333"/>
<path d="M21 19.5V19.127L20.9922 19.0537C20.9776 18.9812 20.9427 18.9134 20.8896 18.8604C20.8366 18.8073 20.7688 18.7724 20.6963 18.7578L20.623 18.75H3.37695L3.30371 18.7578C3.23118 18.7724 3.16343 18.8073 3.11035 18.8604C3.03973 18.931 3.00035 19.0271 3 19.127V19.5C3 19.9142 2.66421 20.25 2.25 20.25C1.83579 20.25 1.5 19.9142 1.5 19.5V19.123L1.50977 18.9375C1.55346 18.5094 1.74286 18.1068 2.0498 17.7998C2.40071 17.4489 2.87679 17.2514 3.37305 17.25H20.627L20.8125 17.2598C21.2406 17.3035 21.6432 17.4929 21.9502 17.7998C22.3011 18.1507 22.4986 18.6268 22.5 19.123V19.5C22.5 19.9142 22.1642 20.25 21.75 20.25C21.3358 20.25 21 19.9142 21 19.5ZM18 11.25V10.502L17.9854 10.3545C17.9561 10.2102 17.8849 10.0763 17.7793 9.9707C17.6737 9.86508 17.5398 9.79386 17.3955 9.76465L17.248 9.75H13.502L13.3545 9.76465C13.2102 9.79386 13.0763 9.86508 12.9707 9.9707C12.8298 10.1116 12.7506 10.3027 12.75 10.502V11.25C12.75 11.6642 12.4142 12 12 12C11.5858 12 11.25 11.6642 11.25 11.25V10.502L11.2354 10.3545C11.2061 10.2102 11.1349 10.0763 11.0293 9.9707C10.9237 9.86508 10.7898 9.79386 10.6455 9.76465L10.498 9.75H6.75195L6.60449 9.76465C6.4602 9.79386 6.32633 9.86508 6.2207 9.9707C6.07981 10.1116 6.0006 10.3027 6 10.502V11.25C6 11.6642 5.66421 12 5.25 12C4.83579 12 4.5 11.6642 4.5 11.25V10.498L4.51172 10.2764C4.56395 9.76215 4.79151 9.27881 5.16016 8.91016C5.58136 8.48896 6.15238 8.25167 6.74805 8.25H10.502L10.7236 8.26172C11.1979 8.3099 11.644 8.50941 12 8.8291C12.411 8.46001 12.9428 8.25155 13.498 8.25H17.252L17.4736 8.26172C17.9878 8.31395 18.4712 8.54151 18.8398 8.91016C19.261 9.33136 19.4983 9.90238 19.5 10.498V11.25C19.5 11.6642 19.1642 12 18.75 12C18.3358 12 18 11.6642 18 11.25Z" fill="#333333"/>
</svg>
