<svg width="24" height="24" viewBox="0 0 24 24" fill="none" xmlns="http://www.w3.org/2000/svg">
<path d="M21.25 12C21.25 10.0937 21.2476 8.73935 21.1094 7.71191C20.974 6.70618 20.7209 6.12569 20.2979 5.70215C19.875 5.27891 19.2951 5.02496 18.2891 4.88965C17.2614 4.75144 15.9067 4.75 14 4.75H10C8.09366 4.75 6.73935 4.75235 5.71191 4.89063C4.70617 5.02602 4.12569 5.27908 3.70215 5.70215C3.27891 6.12503 3.02496 6.70487 2.88965 7.71094C2.75144 8.73857 2.75 10.0933 2.75 12V14C2.75 15.9063 2.75235 17.2606 2.89063 18.2881C3.02602 19.2938 3.27908 19.8743 3.70215 20.2979C4.12503 20.7211 4.70487 20.975 5.71094 21.1104C6.73857 21.2486 8.09329 21.25 10 21.25H14C15.9063 21.25 17.2606 21.2476 18.2881 21.1094C19.2938 20.974 19.8743 20.7209 20.2979 20.2979C20.7211 19.875 20.975 19.2951 21.1104 18.2891C21.2486 17.2614 21.25 15.9067 21.25 14V12ZM22.75 14C22.75 15.8643 22.7515 17.3384 22.5967 18.4893C22.439 19.6614 22.1069 20.6104 21.3584 21.3584C20.61 22.1062 19.6606 22.4389 18.4883 22.5967C17.3376 22.7515 15.8642 22.75 14 22.75H10C8.13571 22.75 6.66161 22.7515 5.51074 22.5967C4.33857 22.439 3.38963 22.1069 2.6416 21.3584C1.89381 20.61 1.56115 19.6606 1.40332 18.4883C1.24846 17.3376 1.25 15.8642 1.25 14V12C1.25 10.1357 1.24853 8.66161 1.40332 7.51074C1.56101 6.33857 1.89306 5.38963 2.6416 4.6416C3.39004 3.89381 4.33939 3.56115 5.51172 3.40332C6.66242 3.24846 8.13583 3.25 10 3.25H14C15.8643 3.25 17.3384 3.24853 18.4893 3.40332C19.6614 3.56101 20.6104 3.89306 21.3584 4.6416C22.1062 5.39004 22.4389 6.33939 22.5967 7.51172C22.7515 8.66242 22.75 10.1358 22.75 12V14Z" fill="#333333"/>
<path d="M21.5 8.25C21.9142 8.25 22.25 8.58579 22.25 9C22.25 9.41421 21.9142 9.75 21.5 9.75H2.5C2.08579 9.75 1.75 9.41421 1.75 9C1.75 8.58579 2.08579 8.25 2.5 8.25H21.5ZM6.25 4V2.5C6.25 2.08579 6.58579 1.75 7 1.75C7.41421 1.75 7.75 2.08579 7.75 2.5V4C7.75 4.41421 7.41421 4.75 7 4.75C6.58579 4.75 6.25 4.41421 6.25 4ZM16.25 4V2.5C16.25 2.08579 16.5858 1.75 17 1.75C17.4142 1.75 17.75 2.08579 17.75 2.5V4C17.75 4.41421 17.4142 4.75 17 4.75C16.5858 4.75 16.25 4.41421 16.25 4Z" fill="#333333"/>
<path d="M18 17C18 17.2652 17.8946 17.5196 17.7071 17.7071C17.5196 17.8946 17.2652 18 17 18C16.7348 18 16.4804 17.8946 16.2929 17.7071C16.1054 17.5196 16 17.2652 16 17C16 16.7348 16.1054 16.4804 16.2929 16.2929C16.4804 16.1054 16.7348 16 17 16C17.2652 16 17.5196 16.1054 17.7071 16.2929C17.8946 16.4804 18 16.7348 18 17ZM18 13C18 13.2652 17.8946 13.5196 17.7071 13.7071C17.5196 13.8946 17.2652 14 17 14C16.7348 14 16.4804 13.8946 16.2929 13.7071C16.1054 13.5196 16 13.2652 16 13C16 12.7348 16.1054 12.4804 16.2929 12.2929C16.4804 12.1054 16.7348 12 17 12C17.2652 12 17.5196 12.1054 17.7071 12.2929C17.8946 12.4804 18 12.7348 18 13ZM13 17C13 17.2652 12.8946 17.5196 12.7071 17.7071C12.5196 17.8946 12.2652 18 12 18C11.7348 18 11.4804 17.8946 11.2929 17.7071C11.1054 17.5196 11 17.2652 11 17C11 16.7348 11.1054 16.4804 11.2929 16.2929C11.4804 16.1054 11.7348 16 12 16C12.2652 16 12.5196 16.1054 12.7071 16.2929C12.8946 16.4804 13 16.7348 13 17ZM13 13C13 13.2652 12.8946 13.5196 12.7071 13.7071C12.5196 13.8946 12.2652 14 12 14C11.7348 14 11.4804 13.8946 11.2929 13.7071C11.1054 13.5196 11 13.2652 11 13C11 12.7348 11.1054 12.4804 11.2929 12.2929C11.4804 12.1054 11.7348 12 12 12C12.2652 12 12.5196 12.1054 12.7071 12.2929C12.8946 12.4804 13 12.7348 13 13ZM8 17C8 17.2652 7.89464 17.5196 7.70711 17.7071C7.51957 17.8946 7.26522 18 7 18C6.73478 18 6.48043 17.8946 6.29289 17.7071C6.10536 17.5196 6 17.2652 6 17C6 16.7348 6.10536 16.4804 6.29289 16.2929C6.48043 16.1054 6.73478 16 7 16C7.26522 16 7.51957 16.1054 7.70711 16.2929C7.89464 16.4804 8 16.7348 8 17ZM8 13C8 13.2652 7.89464 13.5196 7.70711 13.7071C7.51957 13.8946 7.26522 14 7 14C6.73478 14 6.48043 13.8946 6.29289 13.7071C6.10536 13.5196 6 13.2652 6 13C6 12.7348 6.10536 12.4804 6.29289 12.2929C6.48043 12.1054 6.73478 12 7 12C7.26522 12 7.51957 12.1054 7.70711 12.2929C7.89464 12.4804 8 12.7348 8 13Z" fill="#333333"/>
</svg>
