<svg width="24" height="24" viewBox="0 0 24 24" fill="none" xmlns="http://www.w3.org/2000/svg">
<path d="M22.9998 13.2989C23.0018 12.8471 22.9306 11.1426 22.8763 10.6552C22.2505 5.06049 17.7025 1 12.0627 1C6.18845 1 1.42896 5.51913 1.10607 11.5113C1.09919 11.6421 1.05106 12.5701 1.04762 13.1224L1.0459 13.4297C1.01768 13.5567 1.00049 13.6878 1.00049 13.8231V18.4287C1.00049 19.4346 1.81987 20.2526 2.82734 20.2526H4.6817C5.68917 20.2526 6.50888 19.4346 6.50888 18.4287V13.8234C6.50888 12.8176 5.6888 11.9995 4.68168 11.9995H2.827C2.70295 11.9995 2.57923 12.0121 2.45771 12.0369C2.46802 11.8141 2.47731 11.6383 2.47973 11.5851C2.76272 6.33308 6.93116 2.37318 12.0627 2.37318C16.99 2.37318 20.9625 5.92078 21.5092 10.8079C21.5322 11.0118 21.5618 11.5302 21.5855 12.0506C21.4524 12.0197 21.3152 11.9995 21.1729 11.9995H19.3402C18.3327 11.9995 17.5133 12.8175 17.5133 13.8234V18.4078C17.5133 19.1022 17.9088 19.7006 18.4823 20.0082L14.0674 21.7387V21.6268C14.0674 21.2478 13.7592 20.9402 13.3797 20.9402H11.3166C10.937 20.9402 10.6289 21.2478 10.6289 21.6268V22.3134C10.6289 22.6924 10.937 23 11.3166 23H13.3797C13.3855 23 13.3907 22.9983 13.3965 22.9983L14.6292 22.9935L21.7114 20.2176C21.8043 20.1791 21.883 20.1218 21.9477 20.0532C22.5676 19.761 23.0005 19.1362 23.0005 18.4078V13.8234C23.0005 13.7115 22.9867 13.6026 22.9671 13.4965C22.986 13.4334 22.9995 13.3678 22.9998 13.2988L22.9998 13.2989ZM2.82702 13.3727H4.68142C4.93071 13.3727 5.13321 13.5745 5.13321 13.8234V18.4291C5.13321 18.6779 4.93034 18.8798 4.68138 18.8798H2.82704C2.57775 18.8798 2.37559 18.6779 2.37559 18.4291V13.8234C2.37591 13.5745 2.57807 13.3727 2.82702 13.3727ZM18.8884 13.8234C18.8884 13.5745 19.0906 13.3727 19.3399 13.3727H21.1726C21.4219 13.3727 21.6244 13.5745 21.6244 13.8234V18.4078C21.6244 18.6567 21.4215 18.8585 21.1726 18.8585H19.3399C19.0906 18.8585 18.8884 18.6567 18.8884 18.4078V13.8234Z" fill="#333333"/>
</svg>
