<svg width="24" height="24" viewBox="0 0 24 24" fill="none" xmlns="http://www.w3.org/2000/svg">
<path d="M2.29248 2.29287C2.65869 1.92666 3.23857 1.9039 3.63135 2.22451L3.70752 2.29287L6.76123 5.34658C8.3618 4.45748 10.1652 3.99257 11.9995 3.9999H12.0034C15.4842 4.00093 18.0608 5.57699 19.8101 7.26162C21.5459 8.93338 22.5085 10.747 22.8091 11.369L22.8726 11.5224C23.0006 11.8844 22.9786 12.2805 22.8101 12.6288L22.8091 12.6278C22.4702 13.3287 21.2372 15.658 18.9282 17.5136L21.7075 20.2929C22.0977 20.6833 22.0977 21.3165 21.7075 21.7069C21.317 22.0975 20.683 22.0975 20.2925 21.7069L2.29248 3.70693L2.22412 3.63076C1.90404 3.23807 1.92667 2.65892 2.29248 2.29287ZM3.23975 8.27138C3.59829 7.85171 4.22899 7.80188 4.64893 8.16005C5.06891 8.5187 5.1189 9.15022 4.76025 9.57021C3.92084 10.5532 3.38106 11.4896 3.11377 12.0019C3.46065 12.6671 4.26683 14.0354 5.57764 15.2977C7.07018 16.735 9.17557 17.9998 11.9995 17.9999H12.0015L12.4536 17.9892C12.9061 17.9668 13.3568 17.9105 13.8013 17.8202C14.3423 17.7105 14.8699 18.0595 14.98 18.6005C15.0899 19.1417 14.74 19.6703 14.1987 19.7802C13.4749 19.9271 12.7381 19.9996 11.9995 19.9989V19.9999C8.51726 19.9998 5.93971 18.4233 4.18994 16.7382C2.4504 15.0629 1.48738 13.2451 1.18896 12.6269L1.18994 12.6259C1.1191 12.4795 1.07352 12.3228 1.05518 12.162L1.04541 11.9989L1.05518 11.8358C1.07369 11.6734 1.11887 11.5147 1.19092 11.3671H1.19189C1.43522 10.8653 2.09898 9.60725 3.23975 8.27138ZM11.6997 6.0038C10.5018 6.0392 9.32606 6.32138 8.24561 6.83095L9.96924 8.55459C10.6126 8.17557 11.354 7.98075 12.1108 8.00185C13.1325 8.03044 14.1049 8.44916 14.8276 9.17177C15.5504 9.89452 15.9689 10.8669 15.9976 11.8886C16.0187 12.6455 15.8239 13.3867 15.4448 14.0302L17.5024 16.0878C19.3597 14.658 20.4614 12.8128 20.8862 11.9979C20.5394 11.3326 19.7332 9.96445 18.4224 8.70205C16.9297 7.26467 14.8237 5.9999 11.9995 5.9999H11.9956L11.6997 6.0038ZM12.0552 10.0009C11.8605 9.99544 11.6679 10.0188 11.4829 10.0683L13.9312 12.5165C13.9805 12.3316 14.004 12.1388 13.9985 11.9442C13.9842 11.4336 13.7747 10.9481 13.4136 10.5868C13.0522 10.2254 12.566 10.0152 12.0552 10.0009Z" fill="#333333"/>
</svg>
