<svg width="24" height="24" viewBox="0 0 24 24" fill="none" xmlns="http://www.w3.org/2000/svg">
<path d="M6.1709 7.17236C6.72318 7.17236 7.1709 6.72465 7.1709 6.17236C7.1709 5.62008 6.72318 5.17236 6.1709 5.17236C5.61861 5.17236 5.1709 5.62008 5.1709 6.17236C5.1709 6.72465 5.61861 7.17236 6.1709 7.17236Z" fill="#333333"/>
<path d="M22.7221 12.8989L11.4565 1.63525C11.3145 1.49038 11.1453 1.37492 10.9586 1.2955C10.772 1.21607 10.5714 1.17423 10.3686 1.17236H2.71413C2.30484 1.17236 1.91231 1.33492 1.6229 1.62429C1.33349 1.91365 1.1709 2.30611 1.1709 2.71533V10.3684C1.17262 10.777 1.33634 11.1682 1.62615 11.4562L12.8917 22.7198C13.0351 22.8633 13.2053 22.9771 13.3926 23.0547C13.58 23.1324 13.7808 23.1724 13.9836 23.1724C14.1864 23.1724 14.3872 23.1324 14.5745 23.0547C14.7619 22.9771 14.9321 22.8633 15.0754 22.7198L22.7144 15.0822C22.8584 14.9394 22.9728 14.7696 23.0512 14.5826C23.1295 14.3955 23.1702 14.1949 23.1709 13.9921C23.1716 13.7894 23.1323 13.5884 23.0553 13.4008C22.9783 13.2133 22.8651 13.0427 22.7221 12.8989ZM13.9952 21.632L2.71413 10.3607V2.71533H10.3686L21.6342 13.9944L13.9952 21.632Z" fill="#333333"/>
</svg>
