<svg width="138" height="40" viewBox="0 0 138 40" fill="none" xmlns="http://www.w3.org/2000/svg">
<g clip-path="url(#clip0_3626_418)">
<path d="M29.5748 4.73071C29.557 4.70276 29.539 4.67497 29.5208 4.64734C29.5217 4.68611 29.5452 4.71273 29.5748 4.73071Z" fill="#333333"/>
<path d="M25.9292 22.2466C27.1039 20.9496 28.0359 19.4101 29.3926 18.2934C29.4739 17.3202 30.1462 17.7481 29.9057 16.8903C30.2891 16.7077 30.3419 16.9944 30.6755 16.7628C30.3311 15.9232 31.2464 15.9221 31.0603 15.1049C31.4104 15.0937 31.3185 15.3174 31.5734 15.1049C31.7745 14.1867 32.9795 12.9884 32.8564 11.4065C33.026 11.4081 32.9736 11.6302 33.1125 11.6617C35.3795 6.60082 31.596 1.44161 26.5697 0.82135H25.2869C23.0039 1.0759 21.4329 2.19779 20.0268 3.62701C19.0636 5.35469 18.0257 7.23043 18.3591 9.49336C19.0606 14.25 23.7792 18.9218 25.9292 22.2466ZM20.1554 7.45322C20.699 3.96751 25.2096 1.43975 28.8793 3.75499C28.572 4.47287 29.4887 4.03593 29.7774 4.64755C29.7555 4.75918 29.6432 4.77366 29.5749 4.73092C29.8956 5.22998 30.3163 5.91494 30.8043 6.04992C30.7892 6.5387 31.0159 8.17927 31.5734 9.1106C30.8696 8.93008 31.179 9.85347 30.8043 10.8962C30.5221 11.6804 29.6122 13.4674 29.1363 14.3394C28.8393 14.8842 28.225 15.8688 27.9818 16.2525C27.9614 16.2843 27.7673 16.0659 27.7253 16.125C27.0693 17.0388 26.6556 18.1511 26.0573 18.9307C25.2251 18.5395 24.7713 17.3662 24.0047 16.38C22.4631 14.3952 19.5929 11.0657 20.1554 7.45322Z" fill="#333333"/>
<path d="M26.9553 11.2789C28.3746 10.7201 29.006 8.22572 28.3863 6.74045C28.418 6.78132 28.4772 6.79299 28.4948 6.68744C28.3945 6.65918 28.3457 6.58048 28.3666 6.43218C27.4973 5.73159 26.0264 5.06929 24.646 5.66713C21.614 6.98075 22.6479 12.2939 26.9553 11.2789ZM24.7745 8.60077C25.2079 8.35159 25.6665 8.1274 26.314 8.09074C26.6795 8.32941 26.6795 9.38241 26.314 9.62108C25.4339 9.6449 24.8006 9.42491 24.7745 8.60077Z" fill="#333333"/>
<path d="M34.2683 12.0442C33.8271 11.9882 33.5494 12.0947 33.2417 12.1717C32.964 14.1628 34.5371 15.1586 35.1662 17.018C36.0632 19.6674 35.9885 24.825 34.5253 27.3479C34.4868 28.4086 33.4503 29.6393 32.6828 30.5006C32.7361 30.4639 32.7923 30.4639 32.8576 30.5363C32.2038 31.1601 31.6731 32.8004 31.0615 32.1937C30.9182 32.4903 31.0893 32.5353 30.8055 32.8312C28.8985 33.0033 28.8485 34.9213 27.3414 34.9993C27.5049 34.8219 27.9701 34.944 27.9828 34.6168C26.8138 35.2831 25.3844 35.6901 24.2624 36.4022C23.2473 35.5052 21.5741 37.0409 20.6701 36.2747C18.0278 36.4764 15.8249 35.5652 13.4857 34.6166C13.3189 34.3177 13.5508 34.3314 13.2289 34.1065C11.7049 33.3849 10.4065 32.5412 9.63684 31.5559C9.89879 31.5933 9.88845 31.9008 10.1499 31.9387C9.68265 30.8294 8.23572 30.0167 8.22561 28.8777C11.7766 28.4969 15.1455 27.9352 17.9759 26.8374C17.5899 27.4836 17.5631 28.2895 17.8476 29.1323C19.802 30.1255 20.2916 28.1132 20.9266 26.7092C21.2699 25.9504 22.0574 24.6821 21.9531 24.031C21.8206 23.2043 20.8508 23.1693 20.285 22.7559C19.2081 21.9689 17.7802 19.8928 16.5647 20.0775C16.0366 20.1579 15.5148 20.7636 15.5383 21.3528C15.5881 22.5999 17.9151 23.1581 18.489 24.1585C14.9347 25.3558 11.3913 26.5971 6.68612 26.3266C6.73404 25.2379 6.14601 24.2059 6.04476 23.1384C5.71679 19.6966 7.11087 16.3548 8.09734 14.5932C10.109 11.001 13.902 8.64398 17.4628 7.32382C17.7283 6.60757 17.387 6.03215 16.9495 5.66597C14.8412 5.53472 13.2329 7.29299 11.946 7.83409C11.0032 8.2304 10.3461 8.67948 9.6366 9.36443C6.35298 12.5346 4.00039 16.6257 4.11903 22.6291C2.78369 23.4061 1.025 24.3713 1.29658 26.0725C1.52963 27.534 3.38629 28.0207 5.14544 28.2407C7.96085 33.2915 11.5767 37.4692 18.2315 38.4433C33.8116 40.7232 42.832 23.3622 34.2683 12.0442ZM2.96435 25.5625C3.41871 25.3103 3.8646 25.3563 4.24731 25.435C4.21841 25.8888 4.33399 26.1991 4.63212 26.3283C4.11316 26.5424 3.05527 26.1975 2.96435 25.5625Z" fill="#333333"/>
<path d="M32.5788 30.6155C32.3855 30.8313 32.2128 31.0218 32.0867 31.1739C32.3122 31.1605 32.4463 30.8158 32.5788 30.6155Z" fill="#333333"/>
<path d="M58.2956 23.1644C58.2956 23.8883 58.2502 24.5056 58.1593 25.0163C58.0685 25.527 57.9424 25.9419 57.7811 26.261C57.6198 26.5802 57.424 26.8145 57.1937 26.964C56.9635 27.1134 56.7153 27.1882 56.449 27.1882C56.2454 27.1882 56.0199 27.1189 55.7724 26.9803C55.5265 26.8417 55.2939 26.6713 55.0747 26.4689C54.8554 26.2665 54.6737 26.0586 54.5296 25.8453C54.384 25.6336 54.3112 25.4476 54.3112 25.2872C54.3112 25.1813 54.3253 25.1152 54.3534 25.0887C54.3801 25.0622 54.4169 25.0513 54.4639 25.056C54.5124 25.0607 54.5719 25.0739 54.6424 25.0957C54.7113 25.1175 54.7888 25.1284 54.875 25.1284C55.1741 25.1284 55.3911 24.9392 55.5257 24.5609C55.6589 24.1826 55.7254 23.5785 55.7254 22.7487V4.69426C54.709 4.77834 53.7293 4.9566 52.7865 5.22905C51.8436 5.49995 51.0135 5.90708 50.2962 6.45043C49.5789 6.99223 49.0064 7.6975 48.5789 8.56624C48.1513 9.43343 47.9375 10.4999 47.9375 11.7656C47.9375 12.3292 47.9931 12.8376 48.1043 13.2906C48.2171 13.7421 48.3643 14.1492 48.546 14.512C48.7292 14.8732 48.9305 15.1923 49.1497 15.4695C49.369 15.7466 49.5859 15.9918 49.8005 16.2051C49.9822 16.1506 50.1106 16.1716 50.1858 16.2682C50.2594 16.3631 50.2962 16.4962 50.2962 16.6675C50.2962 16.8792 50.2508 17.0995 50.1599 17.3284C50.0691 17.5573 49.9493 17.7651 49.8005 17.9519C49.6501 18.1388 49.481 18.2929 49.293 18.4143C49.1067 18.5373 48.9172 18.5988 48.7245 18.5988C48.6384 18.5988 48.5554 18.5879 48.4755 18.5661C48.394 18.5459 48.311 18.4984 48.2265 18.4237C47.99 18.2524 47.7057 17.9729 47.3737 17.5853C47.0416 17.1961 46.726 16.7142 46.4269 16.1397C46.1278 15.5652 45.8709 14.9082 45.6563 14.1687C45.4418 13.4292 45.3345 12.6282 45.3345 11.7656C45.3345 10.1901 45.6289 8.80133 46.2178 7.59941C46.8067 6.39594 47.6258 5.38786 48.6752 4.57516C49.7245 3.76091 50.9689 3.14594 52.4082 2.73025C53.8491 2.31456 55.4263 2.10672 57.1397 2.10672C57.5344 2.10672 58.0129 2.10983 58.5751 2.11606C59.1374 2.12073 59.6973 2.12852 60.2549 2.13941C60.8109 2.15031 61.3113 2.1581 61.7561 2.16277C62.2009 2.16899 62.5032 2.17211 62.6629 2.17211C62.8023 2.17211 62.9174 2.15887 63.0083 2.13241C63.0991 2.10594 63.1743 2.07636 63.2338 2.04367C63.2918 2.01253 63.3372 1.98295 63.3701 1.95492C63.4014 1.92846 63.428 1.91522 63.4499 1.91522C63.5032 1.91522 63.5541 1.95025 63.6026 2.02031C63.6512 2.08882 63.6943 2.17367 63.7319 2.27486C63.7694 2.37606 63.7984 2.49049 63.8188 2.61816C63.8407 2.74582 63.8517 2.87349 63.8517 3.00115C63.8517 3.19265 63.825 3.39271 63.7718 3.60133C63.7185 3.8084 63.6379 3.99444 63.5298 4.15947C63.4233 4.3245 63.2894 4.45995 63.1281 4.56582C62.9683 4.67169 62.7812 4.72462 62.5666 4.72462C62.4491 4.72462 62.2322 4.72229 61.9158 4.71762C61.601 4.71295 61.24 4.70516 60.8328 4.69426C60.4256 4.68337 59.9973 4.67247 59.5478 4.66157C59.0983 4.65067 58.6809 4.63977 58.2956 4.62888V23.1644Z" fill="#333333"/>
<path d="M69.457 25.9107C69.0717 25.9107 68.6778 25.8523 68.2753 25.7356C67.8743 25.6172 67.5102 25.4149 67.1829 25.1284C66.8571 24.8404 66.59 24.4597 66.3817 23.9864C66.1719 23.5131 66.0669 22.9145 66.0669 22.1905C66.0669 21.1365 66.2087 20.0218 66.4922 18.8463C66.7772 17.6693 67.1868 16.3732 67.7208 14.958H64.8476C64.8367 15.2772 64.8179 15.682 64.7913 16.1724C64.7646 16.6613 64.7192 17.1828 64.655 17.7371C64.5908 18.2898 64.5078 18.8487 64.406 19.4138C64.3042 19.9774 64.1781 20.4982 64.0277 20.9762C63.9212 21.3171 63.7529 21.5141 63.5226 21.567C63.2924 21.6215 63.0645 21.5818 62.839 21.4479C62.615 21.3156 62.4333 21.1217 62.294 20.8664C62.1546 20.6111 62.1225 20.3449 62.1976 20.0677C62.2838 19.7377 62.3589 19.336 62.4232 18.8627C62.4874 18.3878 62.5383 17.8873 62.5759 17.3611C62.6119 16.8349 62.6409 16.3078 62.6628 15.7801C62.6847 15.2538 62.7012 14.7829 62.7121 14.3672C62.3049 14.1446 61.9674 13.8604 61.6996 13.5148C61.4318 13.1676 61.2979 12.755 61.2979 12.2771C61.2979 12.0529 61.3433 11.8481 61.4341 11.6629C61.5249 11.4761 61.6455 11.3165 61.7959 11.1841C61.9463 11.0502 62.1232 10.949 62.3268 10.8805C62.5289 10.8105 62.7372 10.7755 62.9518 10.7755C63.1444 10.7755 63.3449 10.8019 63.5532 10.8549C63.763 10.9093 63.9612 11.0059 64.1475 11.1444C64.3355 11.2814 64.5046 11.462 64.655 11.6862C64.8038 11.9089 64.9267 12.1852 65.0238 12.5153C65.2917 12.548 65.5195 12.5721 65.7075 12.5877L66.1797 12.6274C66.3081 12.6383 66.4154 12.6437 66.5016 12.6437H68.4773C68.5729 12.6437 68.7146 12.7021 68.9025 12.8189C69.0889 12.9356 69.2737 13.0874 69.457 13.2743C69.6387 13.4611 69.7914 13.6604 69.9151 13.8721C70.0373 14.0854 70.0827 14.2878 70.0513 14.4793C70.0513 14.5431 70.0138 14.6972 69.9386 14.9417C69.8634 15.1877 69.7726 15.4967 69.6661 15.8688C69.558 16.2409 69.4397 16.669 69.3113 17.1532C69.1829 17.6374 69.0654 18.1458 68.9589 18.6782C68.8509 19.2107 68.76 19.7618 68.6864 20.3316C68.6112 20.8999 68.5736 21.4557 68.5736 21.999C68.5736 22.2232 68.6003 22.4412 68.6535 22.6529C68.7068 22.8662 68.7866 23.0554 68.8931 23.2204C69.0012 23.3855 69.1383 23.5155 69.3043 23.6104C69.4703 23.7069 69.6653 23.7552 69.8892 23.7552C70.2651 23.7552 70.5862 23.6384 70.8525 23.4049C71.1203 23.1698 71.3458 22.8771 71.5291 22.5268C71.7107 22.175 71.858 21.7943 71.9707 21.3849C72.0819 20.9754 72.1751 20.5893 72.2503 20.2265C72.3145 19.8856 72.4218 19.638 72.5722 19.4839C72.7225 19.3298 72.8776 19.2527 73.0373 19.2527C73.1657 19.2527 73.2997 19.2924 73.439 19.3718C73.5784 19.4528 73.7045 19.5571 73.8173 19.6847C73.9285 19.8124 74.0193 19.9556 74.0898 20.1144C74.1587 20.2748 74.1932 20.4344 74.1932 20.5932C74.1932 20.6477 74.1877 20.6905 74.1767 20.7216C74.1673 20.7543 74.1626 20.7862 74.1626 20.8174C74.0123 21.3607 73.8165 21.9305 73.5753 22.5268C73.3341 23.1216 73.0263 23.6696 72.652 24.1709C72.2777 24.6707 71.8282 25.0856 71.3035 25.4156C70.7789 25.7457 70.1633 25.9107 69.457 25.9107Z" fill="#333333"/>
<path d="M74.1298 9.27617C73.862 9.27617 73.6075 9.22246 73.3663 9.11504C73.1251 9.00917 72.9168 8.86593 72.7414 8.68533C72.5644 8.50474 72.4219 8.29456 72.3138 8.0548C72.2073 7.81503 72.1541 7.55659 72.1541 7.27947C72.1541 6.993 72.2073 6.72677 72.3138 6.48078C72.4219 6.23635 72.5644 6.02617 72.7414 5.85024C72.9168 5.67587 73.1251 5.53809 73.3663 5.43689C73.6075 5.33569 73.862 5.2851 74.1298 5.2851C74.4196 5.2851 74.6874 5.33569 74.9333 5.43689C75.1792 5.53809 75.3906 5.67587 75.5676 5.85024C75.7446 6.02617 75.884 6.23635 75.9858 6.48078C76.086 6.72677 76.1361 6.993 76.1361 7.27947C76.1361 7.55659 76.086 7.81503 75.9858 8.0548C75.884 8.29456 75.7446 8.50474 75.5676 8.68533C75.3906 8.86593 75.1792 9.00917 74.9333 9.11504C74.6874 9.22246 74.4196 9.27617 74.1298 9.27617ZM74.8839 22.2536C74.8839 22.3283 74.8894 22.4482 74.9004 22.6132C74.9113 22.7783 74.9435 22.9456 74.9967 23.1153C75.05 23.2866 75.1353 23.4361 75.2528 23.5637C75.3718 23.6914 75.5378 23.7552 75.7508 23.7552C76.0719 23.7552 76.353 23.6384 76.5942 23.4049C76.8354 23.1698 77.0445 22.8771 77.2215 22.5268C77.3985 22.175 77.5457 21.7943 77.6632 21.3849C77.7806 20.9754 77.8769 20.5893 77.9521 20.2265C78.0163 19.8965 78.115 19.6575 78.2481 19.5096C78.3828 19.3601 78.5277 19.2776 78.6828 19.262C78.8378 19.2449 78.9929 19.2846 79.1479 19.3811C79.303 19.4761 79.4424 19.6014 79.5661 19.7571C79.6898 19.9113 79.7807 20.0841 79.8386 20.2756C79.8981 20.4671 79.906 20.6477 79.8621 20.8174C79.7133 21.3607 79.5183 21.9305 79.2771 22.5268C79.0359 23.1216 78.7282 23.6696 78.3539 24.1709C77.9795 24.6707 77.53 25.0856 77.0054 25.4156C76.4807 25.7457 75.8644 25.9107 75.1565 25.9107C74.7179 25.9107 74.3272 25.8282 73.9842 25.6632C73.6427 25.4981 73.3538 25.2771 73.1173 24.9999C72.8823 24.7228 72.703 24.3982 72.5793 24.0261C72.4571 23.654 72.396 23.2601 72.396 22.8444V14.1126C72.396 13.8044 72.3718 13.581 72.3232 13.4424C72.2747 13.3038 72.2504 13.1762 72.2504 13.0594C72.2504 12.899 72.3365 12.7683 72.5088 12.6671C72.6795 12.5659 72.8823 12.5153 73.1173 12.5153C73.6639 12.5153 74.0954 12.657 74.4117 12.9403C74.7265 13.2221 74.8839 13.5599 74.8839 13.9538V22.2536Z" fill="#333333"/>
<path d="M82.1598 26.2447C81.7526 26.2447 81.4206 26.1995 81.1637 26.1092C80.9069 26.0189 80.7088 25.8991 80.5694 25.7496V36.3824C80.5694 36.6813 80.5106 36.9234 80.3932 37.1086C80.2757 37.2955 80.1285 37.4418 79.9515 37.5477C79.7745 37.6551 79.5842 37.7267 79.3806 37.7625C79.177 37.7999 78.9953 37.8186 78.8356 37.8186C78.5036 37.8186 78.2945 37.7337 78.2083 37.564C78.1237 37.3943 78.0815 37.1865 78.0815 36.9405V14.1127C78.0815 13.8791 78.0627 13.6931 78.0251 13.5545C77.9875 13.4159 77.9499 13.307 77.9123 13.2276C77.8747 13.1466 77.8371 13.0828 77.7995 13.0361C77.762 12.9878 77.7432 12.9318 77.7432 12.8679C77.7432 12.815 77.7753 12.7667 77.8395 12.7231C77.9037 12.6811 77.9891 12.6437 78.0956 12.611C78.2036 12.5799 78.3187 12.5565 78.4409 12.541C78.5646 12.5239 78.6852 12.5153 78.8027 12.5153C79.3274 12.5153 79.7479 12.657 80.0643 12.9403C80.3791 13.2221 80.5474 13.5491 80.5694 13.9212C80.9124 13.4214 81.3251 13.0065 81.8075 12.6764C82.2883 12.3464 82.8764 12.1813 83.5718 12.1813C84.2155 12.1813 84.7754 12.33 85.2515 12.6274C85.7277 12.9263 86.1239 13.3334 86.4403 13.8488C86.7551 14.3656 86.99 14.9752 87.1451 15.6773C87.3017 16.3795 87.38 17.1353 87.38 17.9449C87.38 18.8604 87.2993 19.7353 87.138 20.5698C86.9783 21.4059 86.7747 22.1221 86.5272 22.7183C87.0738 22.6856 87.5241 22.6109 87.878 22.4942C88.2304 22.3774 88.5272 22.2147 88.7684 22.0061C89.0096 21.799 89.2187 21.5468 89.3957 21.2494C89.5711 20.9505 89.7551 20.6095 89.9478 20.2265C90.0981 19.9183 90.2242 19.6949 90.326 19.5563C90.4278 19.4177 90.5539 19.3485 90.7043 19.3485C90.8437 19.3485 90.9854 19.3913 91.1295 19.4769C91.2736 19.5625 91.402 19.6692 91.5148 19.7968C91.6275 19.9245 91.7184 20.06 91.7873 20.2032C91.8578 20.3464 91.893 20.4764 91.893 20.5932C91.893 20.9668 91.7638 21.3927 91.5054 21.8706C91.2485 22.3501 90.8554 22.8024 90.326 23.2274C89.7966 23.654 89.1279 24.0137 88.3197 24.3064C87.51 24.5991 86.5593 24.7454 85.4677 24.7454C85.0182 25.2234 84.499 25.5931 83.9101 25.8547C83.3212 26.1147 82.7378 26.2447 82.1598 26.2447ZM82.7378 14.3672C82.5028 14.3672 82.275 14.4365 82.0541 14.575C81.8349 14.7136 81.6289 14.9028 81.4363 15.1425C81.2436 15.3823 81.0753 15.6719 80.9312 16.0113C80.7871 16.3522 80.6665 16.7197 80.5694 17.1136V24.1849C80.8059 23.8455 81.1912 23.5855 81.7252 23.4049C82.2609 23.2228 82.9093 23.0998 83.6704 23.0359C83.8631 22.7495 84.0315 22.4062 84.1755 22.0061C84.3196 21.6075 84.4402 21.1957 84.5373 20.7707C84.6329 20.3441 84.7049 19.9284 84.7535 19.5236C84.802 19.1204 84.8263 18.7639 84.8263 18.454C84.8263 17.7098 84.7699 17.077 84.6572 16.5554C84.5444 16.0339 84.3917 15.6104 84.199 15.285C84.0064 14.9612 83.784 14.7276 83.5318 14.5844C83.2812 14.4396 83.0166 14.3672 82.7378 14.3672Z" fill="#333333"/>
<path d="M97.5124 15.4858C97.5124 16.093 97.4082 16.7158 97.1999 17.3541C96.9901 17.9924 96.6792 18.5965 96.2673 19.1663C95.8554 19.7346 95.3471 20.2452 94.7426 20.6983C94.138 21.1498 93.4395 21.4931 92.647 21.7282C92.7535 22.0037 92.8952 22.2668 93.0722 22.5175C93.2492 22.7682 93.4606 22.9838 93.7065 23.1644C93.9524 23.345 94.239 23.489 94.5664 23.5964C94.8921 23.7023 95.2696 23.7552 95.6987 23.7552C96.3409 23.7552 96.8922 23.6353 97.3527 23.3956C97.8131 23.1558 98.2007 22.839 98.5155 22.4451C98.8319 22.0512 99.0864 21.6098 99.2791 21.121C99.4717 20.6321 99.6166 20.137 99.7137 19.6357C99.7873 19.2745 99.9392 19.0324 100.169 18.9094C100.4 18.788 100.635 18.7592 100.877 18.823C101.118 18.8868 101.327 19.0223 101.504 19.2294C101.681 19.4364 101.753 19.684 101.72 19.972C101.678 20.3021 101.606 20.6796 101.504 21.1046C101.402 21.5312 101.249 21.9625 101.046 22.3984C100.842 22.8343 100.582 23.2625 100.266 23.6828C99.951 24.1032 99.5633 24.4784 99.1029 24.8085C98.6424 25.1385 98.1013 25.4047 97.4795 25.6071C96.8593 25.8095 96.1475 25.9107 95.344 25.9107C94.5954 25.9107 93.8702 25.7644 93.1685 25.4717C92.4669 25.179 91.8459 24.7586 91.3055 24.2106C90.7652 23.6626 90.3314 22.9869 90.004 22.1836C89.6783 21.3786 89.5154 20.4655 89.5154 19.4442C89.5154 18.412 89.6595 17.4514 89.9477 16.5624C90.2374 15.675 90.618 14.9067 91.0894 14.2574C91.5593 13.6082 92.0941 13.0999 92.694 12.7325C93.2938 12.365 93.9094 12.1813 94.5405 12.1813C95.001 12.1813 95.416 12.2607 95.7857 12.4195C96.1553 12.5799 96.4685 12.8064 96.7254 13.0991C96.9822 13.3918 97.178 13.7406 97.3127 14.1453C97.4458 14.5486 97.5124 14.9954 97.5124 15.4858ZM92.2124 19.3485C92.2124 19.445 92.2179 19.5407 92.2288 19.6357C92.2398 19.7322 92.2453 19.8334 92.2453 19.9393C92.6525 19.7478 93.0221 19.5034 93.3541 19.206C93.6846 18.9071 93.9681 18.5661 94.2046 18.1831C94.4395 17.8001 94.6212 17.3829 94.7496 16.9314C94.878 16.4783 94.9423 16.0074 94.9423 15.5185C94.9423 15.1558 94.8812 14.8732 94.759 14.6708C94.6353 14.4684 94.4661 14.3672 94.2516 14.3672C93.9838 14.3672 93.7457 14.4583 93.5374 14.6404C93.3291 14.821 93.1474 15.0577 92.9923 15.3504C92.8373 15.6431 92.7089 15.9731 92.6071 16.3406C92.5053 16.7064 92.4222 17.0762 92.358 17.4498C92.2938 17.8219 92.2507 18.1753 92.2288 18.5101C92.2069 18.8464 92.2014 19.1258 92.2124 19.3485Z" fill="#333333"/>
<path d="M109.012 23.7552C109.344 23.7552 109.63 23.6385 109.87 23.4049C110.111 23.1698 110.32 22.8771 110.497 22.5268C110.674 22.175 110.819 21.7943 110.932 21.3849C111.043 20.9754 111.136 20.5893 111.211 20.2265C111.286 19.8856 111.396 19.638 111.54 19.4839C111.686 19.3298 111.844 19.2527 112.015 19.2527C112.143 19.2527 112.274 19.2924 112.407 19.3718C112.542 19.4528 112.665 19.5571 112.778 19.6847C112.889 19.8124 112.98 19.9556 113.051 20.1144C113.12 20.2748 113.154 20.4344 113.154 20.5932V20.6749C113.154 20.7061 113.144 20.7536 113.124 20.8174C112.984 21.3607 112.794 21.9306 112.553 22.5268C112.311 23.1216 112.004 23.6696 111.629 24.1709C111.255 24.6707 110.802 25.0856 110.271 25.4156C109.742 25.7457 109.124 25.9107 108.418 25.9107C107.84 25.9107 107.336 25.7885 106.907 25.5441C106.48 25.2981 106.142 24.9735 105.895 24.5703C105.564 24.9424 105.166 25.2584 104.699 25.5184C104.234 25.78 103.69 25.9107 103.069 25.9107C102.426 25.9107 101.862 25.7831 101.375 25.5277C100.888 25.2724 100.478 24.9237 100.146 24.4815C99.814 24.0394 99.5649 23.5178 99.3989 22.9168C99.2329 22.3159 99.1499 21.669 99.1499 20.9762C99.1499 19.6139 99.37 18.3902 99.8101 17.305C100.249 16.2199 100.832 15.2967 101.56 14.5353C102.289 13.774 103.121 13.1918 104.058 12.7885C104.994 12.3837 105.965 12.1813 106.971 12.1813C107.422 12.1813 107.786 12.3036 108.063 12.548C108.342 12.7924 108.481 13.1279 108.481 13.5545C108.481 13.8301 108.452 14.0239 108.392 14.136C108.334 14.2481 108.224 14.3041 108.063 14.3041C107.914 14.3041 107.759 14.2933 107.598 14.2715C107.438 14.2512 107.272 14.2411 107.1 14.2411C106.48 14.2411 105.848 14.3765 105.204 14.6474C104.562 14.9183 103.982 15.3333 103.463 15.8922C102.943 16.4511 102.517 17.1587 102.185 18.015C101.853 18.8728 101.687 19.8918 101.687 21.0719C101.687 21.9344 101.853 22.5977 102.185 23.0616C102.517 23.524 102.972 23.7552 103.55 23.7552C104.001 23.7552 104.376 23.5879 104.675 23.2531C104.975 22.9168 105.216 22.5198 105.399 22.0621V17.0178C105.399 16.859 105.39 16.7259 105.373 16.6185C105.358 16.5126 105.342 16.4223 105.326 16.3476C105.311 16.2728 105.297 16.2067 105.286 16.1491C105.275 16.0899 105.27 16.0339 105.27 15.9809C105.27 15.8097 105.353 15.6734 105.519 15.5722C105.685 15.4726 105.885 15.4228 106.12 15.4228C106.667 15.4228 107.101 15.5637 107.422 15.8455C107.743 16.1273 107.903 16.4651 107.903 16.859V22.2536C107.903 22.4358 107.925 22.614 107.967 22.7884C108.011 22.9643 108.075 23.1239 108.159 23.2671C108.246 23.4119 108.361 23.5295 108.505 23.6198C108.65 23.7101 108.82 23.7552 109.012 23.7552Z" fill="#333333"/>
<path d="M113.22 20.5138C113.134 20.8547 112.973 21.0649 112.738 21.1443C112.502 21.2237 112.268 21.2159 112.038 21.121C111.808 21.0244 111.615 20.8594 111.46 20.6259C111.305 20.3923 111.26 20.137 111.324 19.8599C111.485 19.1359 111.718 18.3349 112.022 17.4568C112.327 16.5788 112.63 15.7038 112.931 14.8319C112.77 14.5859 112.641 14.3384 112.546 14.0893C112.449 13.8386 112.4 13.5747 112.4 13.2976C112.4 13.022 112.504 12.7325 112.712 12.4289C112.922 12.1253 113.174 11.8458 113.469 11.5905C113.763 11.3352 114.068 11.125 114.383 10.9599C114.699 10.7949 114.969 10.7124 115.193 10.7124C115.59 10.7124 115.887 10.8455 116.086 11.1117C116.283 11.378 116.382 11.7345 116.382 12.1813C116.382 12.4258 116.342 12.6679 116.262 12.9076C116.182 13.1474 116.094 13.3708 115.997 13.5779C115.901 13.7849 115.813 13.9632 115.731 14.1126C115.651 14.2621 115.606 14.3579 115.595 14.3999C115.98 15.0818 116.382 15.6835 116.8 16.2051C117.218 16.7251 117.601 17.2412 117.949 17.7534C118.297 18.2641 118.583 18.8067 118.809 19.3811C119.033 19.9556 119.145 20.6313 119.145 21.4082C119.145 21.5997 119.132 21.7967 119.105 21.9991C119.078 22.2014 119.038 22.3929 118.985 22.5735C119.37 22.4988 119.71 22.382 120.005 22.2232C120.299 22.0629 120.556 21.8792 120.775 21.6721C120.995 21.465 121.176 21.2385 121.32 20.9925C121.466 20.7481 121.587 20.4928 121.682 20.2265C121.8 19.9183 121.918 19.6949 122.037 19.5563C122.154 19.4177 122.287 19.3485 122.436 19.3485C122.576 19.3485 122.718 19.3936 122.864 19.4839C123.008 19.5742 123.136 19.6886 123.249 19.8272C123.36 19.9658 123.451 20.1098 123.522 20.2592C123.591 20.4087 123.625 20.5418 123.625 20.6586C123.625 20.8174 123.583 21.0089 123.498 21.2331C123.412 21.4557 123.297 21.6846 123.153 21.9196C123.007 22.1532 122.843 22.3789 122.662 22.5969C122.48 22.8149 122.293 23.004 122.1 23.1644C121.587 23.5801 120.981 23.9288 120.284 24.2106C119.589 24.4924 118.727 24.6707 117.7 24.7454C117.304 25.0848 116.835 25.3643 116.295 25.5838C115.753 25.8017 115.146 25.9107 114.472 25.9107C114.129 25.9107 113.778 25.8679 113.42 25.7823C113.061 25.6967 112.719 25.5877 112.393 25.4553C112.066 25.3214 111.768 25.1751 111.5 25.0163C111.232 24.8559 111.019 24.6964 110.859 24.5376C110.452 24.1546 110.189 23.7685 110.072 23.3792C109.954 22.9916 109.925 22.6436 109.983 22.3353C110.042 22.0255 110.157 21.7725 110.328 21.5764C110.5 21.3786 110.677 21.2798 110.859 21.2798C110.965 21.2798 111.134 21.3249 111.364 21.4152C111.594 21.5071 111.859 21.6246 112.158 21.7679C112.459 21.9111 112.785 22.0629 113.138 22.2232C113.492 22.382 113.846 22.5331 114.2 22.6763C114.552 22.8211 114.897 22.9386 115.236 23.0289C115.572 23.1192 115.88 23.1644 116.159 23.1644C116.341 22.9511 116.507 22.6693 116.657 22.319C116.806 21.9671 116.88 21.5834 116.88 21.1677C116.88 20.657 116.81 20.1837 116.671 19.7478C116.532 19.3119 116.35 18.9079 116.126 18.5358C115.9 18.1621 115.646 17.8134 115.362 17.4895C115.079 17.1641 114.793 16.8582 114.505 16.5717C114.247 17.1992 114.021 17.8188 113.828 18.4307C113.636 19.0425 113.433 19.7369 113.22 20.5138Z" fill="#333333"/>
<path d="M133.518 20.2265C133.615 19.8856 133.728 19.638 133.856 19.4839C133.985 19.3298 134.134 19.2527 134.305 19.2527C134.433 19.2527 134.567 19.2924 134.707 19.3718C134.846 19.4527 134.972 19.5571 135.085 19.6847C135.198 19.8124 135.289 19.9556 135.357 20.1144C135.426 20.2748 135.461 20.4344 135.461 20.5932V20.7216C135.461 20.7854 135.451 20.8493 135.43 20.9131C135.152 21.8612 134.827 22.6996 134.458 23.4283C134.088 24.1569 133.692 24.8084 133.269 25.3829C132.846 25.9574 132.41 26.4712 131.96 26.9242C131.511 27.3757 131.061 27.793 130.612 28.176V33.8275C130.612 34.69 130.512 35.4163 130.314 36.0063C130.116 36.598 129.857 37.0775 129.536 37.4449C129.215 37.8123 128.851 38.0754 128.443 38.2342C128.036 38.3946 127.624 38.4748 127.208 38.4748C126.747 38.4748 126.324 38.3759 125.939 38.1782C125.554 37.982 125.219 37.7135 124.934 37.3725C124.65 37.0315 124.431 36.6322 124.276 36.1745C124.121 35.7168 124.043 35.2271 124.043 34.7056C124.043 33.8757 124.153 33.1417 124.372 32.5033C124.591 31.865 124.889 31.2796 125.265 30.7472C125.639 30.2147 126.072 29.7173 126.564 29.2549C127.057 28.7925 127.577 28.3215 128.122 27.842V23.6921C127.725 24.3507 127.265 24.8902 126.74 25.3105C126.217 25.7309 125.602 25.9411 124.894 25.9411C124.349 25.9411 123.859 25.8298 123.425 25.6071C122.992 25.3829 122.625 25.0661 122.326 24.6566C122.025 24.2472 121.797 23.7521 121.642 23.1714C121.487 22.5922 121.41 21.9461 121.41 21.233C121.41 20.3705 121.472 19.5033 121.595 18.6315C121.717 17.7581 121.854 16.9703 122.004 16.2681C122.175 15.4477 122.373 14.6544 122.598 13.8884C122.652 13.7499 122.692 13.609 122.718 13.4657C122.745 13.3225 122.807 13.1925 122.904 13.0757C122.999 12.9574 123.152 12.8617 123.362 12.7885C123.57 12.7138 123.894 12.6764 124.332 12.6764C124.739 12.6764 125.002 12.748 125.119 12.8912C125.237 13.0345 125.282 13.2018 125.255 13.3933C125.229 13.5848 125.165 13.7818 125.063 13.9842C124.961 14.1866 124.894 14.3516 124.863 14.4793C124.713 15.0865 124.579 15.6399 124.461 16.1397C124.344 16.6395 124.245 17.1423 124.163 17.6483C124.083 18.1543 124.022 18.6813 123.98 19.2293C123.936 19.7774 123.914 20.3915 123.914 21.0719C123.914 21.9671 124.046 22.6436 124.309 23.1013C124.57 23.559 124.942 23.7879 125.425 23.7879C125.757 23.7879 126.064 23.6649 126.348 23.4189C126.631 23.1745 126.888 22.8475 127.118 22.4381C127.349 22.0286 127.549 21.56 127.72 21.0322C127.892 20.506 128.026 19.9556 128.122 19.3811V14.1126C128.122 13.8044 128.1 13.5809 128.058 13.4424C128.016 13.3038 127.995 13.1762 127.995 13.0594C127.995 12.899 128.078 12.7683 128.244 12.6671C128.41 12.5659 128.61 12.5153 128.845 12.5153C129.392 12.5153 129.823 12.6569 130.137 12.9403C130.454 13.2221 130.612 13.5599 130.612 13.9538V25.432C131.212 24.7718 131.763 24.0214 132.266 23.1807C132.769 22.34 133.186 21.3553 133.518 20.2265ZM127.208 36.415C127.465 36.415 127.657 36.3084 127.786 36.0951C127.914 35.8818 128.003 35.6342 128.051 35.3524C128.098 35.0707 128.122 34.7857 128.122 34.4977V30.3315C127.588 30.8639 127.157 31.4657 126.83 32.1367C126.504 32.8062 126.341 33.6305 126.341 34.6098C126.341 35.1205 126.418 35.5494 126.573 35.8966C126.728 36.2422 126.94 36.415 127.208 36.415Z" fill="#333333"/>
</g>
<defs>
<clipPath id="clip0_3626_418">
<rect width="136.964" height="39" fill="white" transform="translate(0 0.5)"/>
</clipPath>
</defs>
</svg>
