<svg width="526" height="526" viewBox="0 0 526 526" fill="none" xmlns="http://www.w3.org/2000/svg">
<path fill-rule="evenodd" clip-rule="evenodd" d="M0 263V526H263H526V263V0H263H0V263Z" fill="#B1D6CA"/>
<path d="M204.742 44.1192C204.878 44.0027 207.702 43.9801 211.784 44.0176C213.113 44.0001 214.563 43.9963 216.101 44.0079C222.047 43.9668 228.041 44.1314 234.064 44.5001C238.977 44.6604 242.853 44.8354 243.959 44.9874C245.884 45.2514 249.89 45.7631 252.861 46.1231C255.832 46.4831 259.207 46.9692 260.361 47.2022C261.357 47.4033 263.202 47.7784 264.749 48.0938C286.308 51.8123 307.832 58.0304 328.473 66.6075C329.162 66.631 329.908 66.9398 330.271 67.3389C332.336 68.1499 334.205 68.7627 335.521 69.0772C336.218 68.998 336.822 68.8013 337.208 68.4717C338.302 67.1954 339.955 64.8953 341.613 62.2823C343.165 59.837 344.839 57.4638 346.497 55.3184C350.03 50.4269 352.7 47.6444 354.958 46.587C355.058 46.5261 355.155 46.4699 355.25 46.418C355.829 46.1017 356.404 45.9373 356.954 45.9053C357.176 45.8432 357.381 45.8096 357.569 45.8096C358.656 45.8096 360.272 46.9176 361.159 48.2715C362.529 50.3625 362.587 51.3045 361.543 54.5215C360.126 58.8896 353.457 72.3766 351.284 75.2696C349.892 77.1235 350.407 77.6347 360.7 84.6036C381.402 98.6205 406.086 122.759 422.794 145.326C437.43 165.095 452.653 192.808 460.961 214.81C470.773 240.795 478.75 279.81 474.252 279.81C474.081 279.81 473.772 279.735 473.354 279.602C473.31 279.602 473.264 279.606 473.217 279.606C472.293 279.605 470.748 278.939 469.526 278.053C468.665 277.663 467.75 277.231 466.835 276.773C465.965 276.339 465.087 275.93 464.203 275.545C463.615 275.442 463.065 275.212 462.731 274.929C450.696 270.103 437.681 269.863 427.491 274.436L421.494 277.127L420.749 276.531L420.654 276.575L419.961 275.932C419.435 275.793 418.934 275.509 418.304 275.096C417.014 274.251 415.959 273.223 415.959 272.81C415.959 272.796 415.956 272.781 415.952 272.765C414.663 271.794 413.368 270.858 412.067 269.957C410.886 269.295 409.877 268.612 409.351 268.132C395.594 259.177 381.229 254.124 366.593 253.117C361.918 252.795 356.878 251.92 355.393 251.171C351.855 249.388 351.593 249.436 351.593 251.876C351.593 253.012 351.121 254.822 350.544 255.898C349.683 257.508 350.117 258.613 352.978 262.105C361.9 272.992 366.748 288.398 364.814 299.71C364.212 303.231 362.569 308.329 361.162 311.041C358.83 315.535 358.705 316.372 359.742 320.492C361.817 328.731 360.178 350.079 355.994 369.31L352.295 386.31L351.956 434.31C351.689 472.122 351.35 482.309 350.355 482.31C350.121 482.31 349.903 482.049 349.7 481.533C348.136 480.476 347.513 467.433 347.487 435.928C347.475 420.809 347.274 408.243 347.012 404.241C346.386 406.032 345.497 408.652 344.537 411.56C333.844 443.94 321.702 466.509 311.021 473.859C299.502 481.784 289.417 483.348 274.593 479.505C273.339 479.18 272.017 478.8 270.638 478.374C267.707 477.664 265.042 476.836 262.959 475.928C261.034 475.089 258.559 474.05 257.459 473.622C256.675 473.317 255.501 472.811 254.064 472.173C247.554 469.404 240.77 466.191 234.392 462.87C231.701 461.534 229.554 460.43 228.518 459.824C227.496 459.227 226.435 458.591 225.35 457.927C219.005 454.275 213.54 450.691 209.837 447.606C208.195 446.415 206.708 445.294 205.459 444.295C204.286 443.357 202.817 442.242 201.253 441.089C200.673 440.692 200.146 440.34 199.692 440.057C196.415 438.01 193.62 436.091 191.41 434.384C187.343 431.564 185.022 429.302 185.001 428.046C184.909 427.868 184.812 427.695 184.713 427.528C183.908 426.803 182.838 425.993 181.75 425.259C180.948 424.888 179.872 424.255 178.866 423.539C177.924 423.073 177.215 422.856 177.02 423.074C176.904 423.203 176.067 436.341 175.16 452.267C174.253 468.19 173.324 481.406 173.095 481.641C172.867 481.87 172.097 481.833 171.386 481.561C171.352 481.548 171.319 481.532 171.287 481.515C171.204 481.526 171.117 481.532 171.024 481.532C170.952 481.532 170.886 481.473 170.823 481.356C169.873 481.282 168.923 480.472 169.42 479.668C169.608 479.363 169.909 476.047 170.193 471.458C170.193 469.819 170.21 467.983 170.243 465.953L170.489 450.994C170.465 450.937 170.44 450.883 170.413 450.832C170.353 450.818 170.291 450.81 170.227 450.81C168.728 450.81 165.259 449.218 161.217 446.872C158.71 445.753 156.959 444.787 156.959 444.421C156.959 444.358 156.949 444.296 156.931 444.237C156.61 444.03 156.288 443.82 155.967 443.607C155.941 443.606 155.914 443.606 155.888 443.606C155.298 443.605 154.211 443.042 153.474 442.356C152.736 441.668 150.657 439.98 148.855 438.606C147.713 437.734 146.166 436.375 144.77 435.042L138.721 429.866L136.601 433.296C129.812 444.282 114.865 449.507 102.388 445.256C97.1632 443.476 92.5493 439.812 89.2705 435.26C88.3329 433.993 87.4422 432.61 86.5967 431.106C81.7967 422.562 83.2027 411.328 89.1162 405.359C90.304 404.084 91.676 403.081 93.21 402.445C93.3079 402.405 93.4052 402.366 93.502 402.329C94.8127 401.749 95.8759 401.552 96.9238 401.765C98.5856 401.894 100.175 402.735 101.52 404.444C104.111 407.738 104.104 408.75 101.448 414.923C99.5734 419.282 99.4534 420.402 100.489 423.861C101.782 428.175 104.447 430.444 109.045 431.035C109.415 431.042 109.809 431.045 110.232 431.042C112.899 431.021 115.166 430.619 117.183 429.757C120.192 428.261 122.932 425.755 125.077 422.412L128.27 417.437L124.008 413.424C121.662 411.214 119.334 407.924 118.834 406.113C118.573 405.167 118.314 404.47 117.961 403.94C116.958 403.26 115.409 402.668 113.093 401.991C106.7 400.123 100.402 396.319 96.5088 392.437C94.1867 390.27 92.5916 388.124 92.334 386.429C92.265 385.976 92.153 385.039 92.084 384.346C92.0839 384.345 92.0831 384.343 92.083 384.342C91.862 383.835 91.6167 383.325 91.3574 382.831C90.8404 382.033 90.0976 381.077 89.291 380.207C87.4921 378.267 86.5709 376.105 86.4639 373.569C86.3759 371.5 85.5518 369.056 84.6328 368.137C82.4839 365.989 81.6078 362.425 82.2246 358.343C82.2316 358.297 82.2358 358.25 82.2422 358.205C82.3046 356.562 82.1766 355.497 81.5693 354.345C80.96 353.321 79.9401 352.123 78.3359 350.398C77.3328 349.32 76.4918 348.278 75.8096 347.277C75.2797 346.542 74.8876 345.874 74.6064 345.224C72.995 341.891 73.3913 339.078 75.8086 336.868C76.2543 336.366 76.7714 335.953 77.3477 335.651L78.125 335.065C77.923 334.082 76.0115 330.57 73.1465 325.856L72.4248 324.782C68.847 319.461 65.4871 314.431 64.958 313.606C64.429 312.781 62.7923 310.305 61.3213 308.106C58.7213 304.216 55.3306 298.511 52.8076 293.777C52.5708 293.333 52.387 292.917 52.2539 292.529C52.0418 291.976 52 291.629 52 291.275C52 291.259 52.0008 291.243 52.001 291.227C52.0004 291.175 52.0036 291.124 52.0059 291.073C52.0077 291.029 52.0096 290.985 52.0127 290.941C52.0134 290.934 52.0139 290.927 52.0146 290.92C52.0948 289.878 52.5399 289.109 53.4092 288.592C53.9276 288.091 54.6659 287.869 56.1953 287.838C57.5205 287.719 59.1849 287.773 61.2236 287.986C61.8438 288.051 62.4647 288.117 63.084 288.185C71.3722 288.788 78.5015 289.754 83.0273 290.828C84.1612 290.947 85.0404 291.178 85.8359 291.623C86.7836 291.954 87.4692 292.29 87.8545 292.622C88.3303 293.033 89.97 295.23 92.2412 298.455C92.5578 298.614 92.8222 299.007 92.918 299.423C95.1664 302.639 97.9306 306.7 100.761 310.976C110.735 326.042 112.197 327.81 114.684 327.81C116.212 327.81 118.571 328.23 119.925 328.745C122.78 329.832 133.998 346.28 139.94 358.096C142.138 362.464 143.14 364.358 143.947 364.855C144.12 364.75 144.304 364.632 144.498 364.504C144.775 364.307 145.071 364.089 145.372 363.853C145.958 363.392 146.456 362.923 146.814 362.515C147.048 362.211 147.247 361.893 147.411 361.562C147.427 361.468 147.416 361.396 147.367 361.347C147.078 361.058 147.527 359.182 148.364 357.178C149.028 355.591 149.883 354.383 151.031 353.451C152.153 352.374 153.416 351.614 154.514 351.522C156.088 350.635 157.213 349.44 157.501 348.295C157.818 347.03 159.253 345.284 160.688 344.413C162.358 343.4 163.171 343.101 165.138 343.572C166.179 343.708 167.495 344.099 169.469 344.768L172.797 345.895C173.072 345.932 173.309 345.941 173.521 345.922C174.21 345.621 175.269 344.48 176.857 342.294C176.922 342.096 176.959 341.92 176.959 341.776C176.959 341.133 177.337 340.606 177.798 340.606C177.908 340.606 178.061 340.502 178.246 340.316C178.793 339.514 179.388 338.62 180.035 337.627C180.208 337.304 180.381 336.965 180.548 336.616C181.599 334.423 182.797 332.623 183.209 332.616C183.621 332.61 183.959 332.085 183.959 331.449C183.959 330.814 185.084 328.819 186.459 327.017C187.834 325.214 188.958 323.432 188.959 323.057C188.959 322.728 190.165 320.808 191.756 318.577L193.162 316.634C194.753 314.403 195.959 312.483 195.959 312.154C195.959 311.779 197.084 309.997 198.459 308.194C199.834 306.392 200.959 304.397 200.959 303.762C200.959 303.126 201.307 302.606 201.732 302.606C201.89 302.605 202.157 302.376 202.487 301.985C203.277 300.733 204.054 299.497 204.818 298.285C206.172 295.884 209.322 290.819 212.209 286.416C215.371 281.592 217.959 277.186 217.959 276.625C217.959 276.064 218.362 275.606 218.853 275.606C218.986 275.605 219.129 275.562 219.271 275.486L220.066 274.289L213.166 273.81C212.138 273.738 211.192 273.65 210.315 273.542C206.816 273.575 205.636 273.101 203.231 271.308C202.857 271.056 202.5 270.781 202.158 270.479C200.39 269.049 199.013 267.572 198.995 267.046C198.974 266.463 197.336 263.313 195.354 260.046C194.603 258.809 193.873 257.472 193.242 256.201C193.202 256.163 193.167 256.135 193.136 256.116C192.715 255.856 192.137 254.452 191.736 252.797C191.5 252.159 191.338 251.62 191.273 251.228C191.012 249.645 189.977 247.469 188.974 246.392C187.97 245.314 186.861 242.897 186.509 241.019C186.19 239.317 185.906 238.447 185.231 238.013C184.71 237.853 184.01 237.81 183.04 237.81C181.552 237.81 180.405 237.52 179.39 236.838C177.723 235.995 176.587 234.51 176.059 232.647C175.458 231.487 175.312 230.578 175.777 228.983C175.992 226.824 176.827 224.456 178.354 222.127C178.526 221.864 178.705 221.499 178.89 221.059C179.536 219.124 180.171 216.941 180.697 214.875C181.352 211.887 181.724 209.035 181.351 208.431C181.292 208.337 181.167 208.26 180.989 208.201L179.066 208.569C177.486 208.872 176.81 208.958 176.65 208.337C176.22 208.212 176.124 207.804 176.229 206.896C176.161 206.616 176.204 206.288 176.377 205.926C176.42 205.681 176.468 205.414 176.522 205.123C176.802 203.627 176.8 202.267 176.539 201.279C176.428 200.994 176.302 200.694 176.162 200.378C176.116 200.305 176.068 200.236 176.016 200.174C174.087 197.851 172.486 190.929 171.746 182.787C171.042 176.922 170.894 170.874 171.444 165.894L171.623 158.327L165.041 151.648C161.859 148.418 158.396 145.31 154.764 142.389C143.834 133.722 132.32 127.272 120.738 123.367L115.266 121.523L113.615 121.032L113.398 115.069C113.121 107.427 110.902 101.287 105.832 94.8751C105.101 93.964 104.327 93.0481 103.521 92.1446C102.283 90.7743 100.914 89.3808 99.4053 87.9483C97.2749 85.9256 94.3887 83.668 92.0098 82.1026C91.3316 81.7206 90.6729 81.3957 90.041 81.1358C88.0588 80.3211 86.368 79.236 85.7998 78.4678C85.2716 78.07 84.9592 77.7461 84.959 77.5587C84.959 75.6497 119.845 60.3343 127.064 59.0733C127.743 58.9549 128.805 58.6852 129.992 58.3438C130.744 58.1105 131.499 57.88 132.256 57.6514C132.878 57.4496 133.492 57.2422 134.064 57.0362C136.481 56.1653 139.246 55.2624 140.209 55.0294C141.172 54.7964 142.971 54.3577 144.209 54.0547C145.447 53.7517 147.538 53.2809 148.857 53.0079C150.177 52.7358 154.227 51.85 157.857 51.0401C161.488 50.2301 165.584 49.3671 166.959 49.1221C168.334 48.8771 170.584 48.4223 171.959 48.1133C173.334 47.8033 176.259 47.3182 178.459 47.0362C180.659 46.7542 183.361 46.3365 184.464 46.1065C185.473 45.897 189.703 45.4735 194.204 45.1241C195.01 45.0448 195.807 44.9701 196.593 44.9024C198.14 44.7691 199.692 44.6525 201.248 44.5489C203.298 44.3565 204.655 44.1956 204.742 44.1192ZM310.593 248.093C302.618 247.974 295.534 248.123 294.851 248.424C293.022 249.229 298.148 256.452 300.702 257.272C301.146 257.271 301.61 257.184 302.124 257.011C307.082 255.348 310.637 254.675 317.946 254.016C321.514 253.695 324.664 253.298 324.946 253.136C325.208 252.986 326.362 253.215 327.59 253.649C328.232 253.728 328.6 253.88 328.799 254.11C329.235 254.226 329.553 254.37 329.729 254.546C331.434 256.252 329.183 256.934 318.785 257.869C298.595 259.684 274.301 272.522 245.093 296.809C234.608 305.528 231.966 307.224 231.087 305.801C231.037 305.72 231.002 305.628 230.977 305.527C230.342 305.557 230 305.245 230 304.567C230 304.138 230.583 303.458 231.381 302.907C231.427 302.867 231.474 302.827 231.521 302.787C232.752 301.768 233.3 300.573 233.386 298.54C233.34 298.16 233.339 297.673 233.38 297.111C233.38 297.109 233.38 297.107 233.38 297.106C233.285 294.906 233.485 292.656 233.825 292.106C235.774 288.952 236.62 284.279 236.041 281.982C235.707 281.31 235.144 281.051 234.38 281.356C232.794 281.989 223.593 296.277 223.593 298.107C223.593 298.836 224.552 300.462 225.724 301.72L227.854 304.007L221.654 323.85C218.244 334.764 213.797 350.322 211.773 358.424C209.749 366.524 207.531 373.336 206.843 373.565C206.174 373.785 205.784 373.516 205.7 372.51C205.276 372.44 205.085 372.153 205.216 370.982C205.22 369.549 205.738 367.061 206.795 363.106C207.383 360.906 208.102 357.981 208.392 356.606C209.429 351.688 211.801 342.99 213.983 336.106C215.203 332.256 216.338 328.431 216.504 327.606C216.67 326.781 216.897 325.993 217.007 325.856C217.118 325.719 217.322 325.155 217.459 324.606C217.596 324.056 217.822 323.381 217.959 323.106C218.096 322.831 218.303 322.269 218.418 321.856C218.533 321.443 219.196 319.755 219.892 318.106C220.588 316.456 221.258 314.656 221.381 314.106C221.505 313.556 222.362 311.359 223.286 309.224C223.881 307.85 224.258 306.957 224.392 306.277C224.333 305.248 223.762 304.568 222.766 303.303C222.722 303.263 222.678 303.222 222.633 303.18C221.663 302.281 220.96 301.803 220.39 301.706L214.545 310.619C211.05 315.949 205.357 324.618 201.892 329.884C198.428 335.149 195.593 340.118 195.593 340.927C195.593 341.735 194.46 346.303 193.076 351.076L190.56 359.757L195.97 371.032C198.946 377.235 202.303 384.447 203.43 387.06C204.198 388.839 204.723 389.956 205.296 390.655C206.111 391.103 207.153 391.394 208.537 391.589C208.699 391.612 208.876 391.646 209.069 391.689C211.058 391.788 213.873 392.623 215.459 393.6C215.503 393.627 215.548 393.653 215.592 393.68C217.188 394.373 218.977 395.251 220.935 396.31C224.681 398.335 228.38 399.909 230.723 400.525C230.796 400.529 230.867 400.532 230.935 400.532C231.388 400.532 232.111 400.65 233.029 400.864C235.344 401.19 241 403.004 246.377 405.179C260.222 410.779 267.628 412.986 269.342 412.015C269.916 409.178 270.986 402.745 271.531 398.687C271.783 396.807 272.239 393.882 272.543 392.187C273.028 389.481 273.661 385.527 274.396 380.606C274.519 379.781 274.903 377.755 275.25 376.106C275.597 374.456 276.138 371.306 276.452 369.106C278.501 354.755 281.008 345.964 286.147 335.106C289.863 327.254 294.543 321.267 301.709 315.2C302.999 314.108 303.725 313.762 303.966 313.964C304.999 313.431 305.593 313.514 305.593 314.317C305.593 314.597 302.854 318.085 299.507 322.067C292.714 330.15 287.618 338.802 285.227 346.31C281.993 356.468 272.459 413.01 273.761 414.312C273.973 414.523 276.975 414.762 281.076 414.927C282.094 414.948 283.166 414.968 284.264 414.986C288.029 414.9 290.827 414.998 293.257 415.344C296.786 415.608 298.654 416.146 301.521 417.499C302.623 417.951 303.67 418.477 304.696 419.082C308.349 420.999 311.221 423.123 311.403 424.065C311.745 425.841 310.447 426.228 308.712 425.158C308.233 425.068 307.715 424.83 307.233 424.409C306.563 423.824 305.807 423.274 304.975 422.758C304.885 422.709 304.794 422.661 304.702 422.61C304.561 422.532 304.417 422.455 304.272 422.378C300.331 420.636 294.198 418.964 289.593 418.552L284.15 418.064C284.162 418.076 284.176 418.088 284.19 418.102L289.093 420.275C294.901 422.851 300.593 427.366 300.593 429.398C300.593 430.881 300.39 431.184 297.724 429.539C297.638 429.503 297.549 429.465 297.459 429.424C296.32 428.905 295.355 428.245 295.056 427.814C294.766 427.622 294.459 427.422 294.139 427.209C290.539 424.819 281.554 421.172 267.404 416.36C265.166 415.599 262.908 414.819 260.695 414.049C255.012 412.19 251.91 411.096 248.879 409.845C244.75 408.339 241.548 407.122 240.093 406.484C236.793 405.039 232.281 403.847 230.067 403.834C227.231 403.818 224.178 402.676 219.034 399.697C217.56 398.938 215.971 398.059 214.232 397.043L211.056 395.187L209.523 400.679C208.658 403.776 206.777 408.56 205.343 411.31C202.781 416.22 192.227 427.81 190.319 427.81C188.454 427.81 191.831 430.771 199.434 435.805C203.646 438.594 209.296 442.62 211.99 444.753C226.452 456.201 257.342 471.313 275.838 475.99C276.527 476.165 277.212 476.324 277.89 476.471C279.033 476.652 280.161 476.802 281.271 476.918C283.004 477 284.998 477.022 287.5 477.023C289.765 477.025 291.58 477.016 293.081 476.976C294.238 476.9 295.309 476.811 296.223 476.718C298.641 476.163 300.962 475.35 303.191 474.279C303.292 474.221 303.396 474.162 303.5 474.101C303.818 473.914 304.133 473.721 304.447 473.525C307.249 471.691 310.313 469.202 313.053 466.557C315.879 463.672 318.514 460.319 320.949 456.513C325.221 448.847 330.843 437.609 330.363 437.606C330.079 437.606 330.511 436.368 331.324 434.856C332.624 432.438 334.045 429.097 334.408 427.606C334.475 427.331 335.017 426.206 335.613 425.106C335.842 424.683 336.134 424.024 336.447 423.249C336.755 422.435 337.061 421.615 337.364 420.791C337.562 420.22 337.749 419.648 337.914 419.106C338.583 416.906 339.963 412.856 340.979 410.106C341.599 408.426 342.383 406.104 343.193 403.59C344.74 398.618 346.209 393.539 347.585 388.39C348.536 383.884 348.853 382.652 349.246 381.95C349.653 380.318 350.052 378.68 350.439 377.038C350.756 375.18 351.189 372.85 351.451 371.606C351.742 370.231 352.195 367.981 352.459 366.606C352.723 365.231 353.184 362.981 353.484 361.606C353.784 360.231 354.22 357.981 354.452 356.606C354.682 355.249 355.286 351.727 355.806 348.729C356.24 344.507 356.382 340.338 356.416 334.469L356.475 324.323C356.309 322.161 356.071 320.506 355.761 319.718C352.379 311.141 348.743 304.719 344.398 299.903C339.71 295.411 333.72 291.75 326.141 288.605C324.313 287.846 322.932 287.291 321.774 286.903C320.136 286.547 318.374 286.327 316.59 286.251C315.621 286.349 314.512 286.544 313.093 286.812C303.177 288.681 294.135 291.642 279.749 297.729C265.368 303.813 255.438 307.302 249.561 308.332C246.358 308.893 245.826 309.481 243.873 314.63C239.823 325.305 233.624 348.326 228.899 370.232C228.209 373.435 226.962 375.052 226.212 374.506C226.067 374.573 225.916 374.606 225.756 374.606C225.543 374.605 225.39 374.417 225.289 374.066C225.126 373.693 225.076 373.069 225.154 372.101C225.256 369.457 226.059 364.97 227.427 359.856C228.279 356.667 233.14 338.133 233.525 336.606C235.377 329.252 239.236 317.355 240.822 314.111C241.101 313.542 241.338 313.026 241.538 312.563C241.672 312.217 241.803 311.887 241.931 311.571C242.048 311.241 242.136 310.944 242.193 310.679C242.071 310.145 241.566 309.774 240.649 309.534C239.464 309.224 238.81 308.901 238.729 308.539C236.442 308.222 238.845 306.82 243.709 305.911C244.576 305.749 245.422 305.582 246.246 305.417C247.086 305.216 248.002 304.998 249 304.765C252.009 304.061 257.088 302.457 262.233 300.632C262.298 300.582 262.357 300.533 262.409 300.484C262.932 300.001 264.063 299.606 264.924 299.606C264.976 299.606 265.034 299.601 265.098 299.595C266.812 298.962 268.49 298.317 270.059 297.688C270.112 297.659 270.167 297.634 270.22 297.606C272.273 296.506 274.516 295.591 275.205 295.574C275.247 295.573 275.297 295.568 275.354 295.559C277.261 294.795 279.081 294.073 280.819 293.39C281.032 293.288 281.246 293.188 281.459 293.083C284.208 291.73 286.839 290.62 287.308 290.614C287.775 290.609 289.575 289.969 291.308 289.191C294.317 287.841 301.341 285.431 303.459 285.022C304.621 284.797 305.749 284.587 306.841 284.392C311.682 283.17 315.489 282.678 319.144 282.662C323.186 282.32 325.707 282.464 326.24 283.118C327.096 283.278 327.593 283.507 327.593 283.81C327.593 284.36 327.031 284.832 326.343 284.861C325.656 284.89 327.918 285.964 331.373 287.247C342.043 291.211 347.96 296.149 353.905 306.052L356.894 311.029C357.28 310.83 357.701 310.109 358.368 308.689L358.893 307.503C359.275 306.637 359.615 305.76 359.918 304.875C360.975 301.394 361.48 296.772 361.412 292.345C361.356 290.925 361.293 289.691 361.21 288.587C361.148 287.94 361.072 287.307 360.982 286.692C360.566 284.584 359.974 282.486 359.214 280.418C355.256 271.569 353.942 269.674 347.459 263.032C344.306 259.803 340.307 256.629 336.313 254.043C335.711 253.689 335.104 253.347 334.492 253.019C333.87 252.688 333.239 252.364 332.599 252.054C328.42 250.026 326.085 248.927 323.605 248.287L310.593 248.093ZM156.543 402.88C155.909 403.448 152.416 408.494 148.458 414.576C139.62 428.16 139.353 426.317 151.593 436.122C159.384 442.363 168.721 447.358 170.976 446.492C171.144 446.428 171.299 446.248 171.445 445.944C171.573 445.178 171.704 444.161 171.833 442.952C171.97 440.463 172.176 436.841 172.398 432.985L173.1 420.865L166.645 414.477C165.267 413.171 163.817 411.679 162.546 410.269C160.259 407.814 158.469 405.688 158.043 404.856C157.838 404.456 157.603 404.081 157.368 403.755C157.052 403.389 156.771 403.09 156.543 402.88ZM139.093 407.481C126.77 427.35 124.734 429.971 119.616 432.56C112.14 436.342 104.38 434.921 100.05 430.183C97.6132 427.782 96.3076 424.983 96.1367 421.804C95.989 419.876 96.315 417.814 97.1152 415.502C97.3552 414.791 97.6371 414.066 97.9639 413.327C98.7987 411.439 99.2571 409.749 99.3428 408.423C99.0912 407.079 98.2262 406.187 96.7871 405.982C93.8903 405.573 91.9694 407.15 89.5195 411.952C85.9625 418.924 87.4036 426.994 93.6006 434.818C97.9217 440.275 104.842 443.217 111.959 443.187C112.294 443.176 112.635 443.163 112.983 443.145C115.988 442.983 118.723 442.389 121.272 441.302C124.555 439.873 127.491 437.69 130.269 434.609C131.17 433.608 132.057 432.511 132.937 431.314C133.894 430.007 134.84 428.583 135.78 427.032C135.923 426.797 136.082 426.542 136.253 426.266C136.624 425.641 136.997 424.998 137.368 424.335C139.373 420.75 141.67 417.27 142.484 416.585C142.949 415.879 143.419 415.169 143.888 414.462C143.933 414.291 143.959 414.13 143.959 413.983C143.959 413.226 144.354 412.606 144.838 412.606C145.291 412.606 146.159 411.419 146.828 409.911L147.09 409.3C147.759 407.792 148.627 406.606 149.08 406.606C149.564 406.605 149.959 406.072 149.959 405.419C149.959 404.767 150.906 403.227 152.062 401.995L152.861 401.144L153.855 399.673C153.825 399.519 153.77 399.348 153.689 399.162L151.312 396.182C151.159 395.989 151.01 395.805 150.868 395.63L148.093 392.97L139.093 407.481ZM227.562 407.81C228.128 407.81 228.587 408.373 228.58 409.06C228.553 411.921 225.711 420.667 223.208 425.594C219.802 432.3 212.034 440.176 210.77 438.598C209.29 438.493 209.955 437.094 212.875 434.179C213.197 433.803 213.552 433.403 213.941 432.982C214.963 431.873 215.921 430.675 216.837 429.359C216.914 429.177 216.959 429.025 216.959 428.909C216.959 428.192 217.358 427.606 217.847 427.606C217.917 427.606 218.019 427.513 218.149 427.344C218.509 426.753 218.863 426.141 219.211 425.503C221.055 421.86 224.147 414.312 225.582 409.606C226.11 407.877 226.333 407.51 226.584 408.318C226.862 408.011 227.223 407.81 227.562 407.81ZM135.833 405.124C135.333 405.455 134.496 406.042 133.593 406.703C132.218 407.709 129.828 408.941 128.283 409.441L125.474 410.35L127.87 412.601L128.538 413.229C128.965 413.505 129.335 413.695 129.619 413.785C129.833 413.803 130.029 413.775 130.215 413.703C130.478 413.398 131.122 412.49 131.967 411.248C132.06 410.591 133.189 408.681 134.56 406.885C135.079 406.204 135.501 405.615 135.833 405.124ZM448.838 296.099C450.706 293.356 452.585 292.116 453.2 292.811C453.206 292.81 453.213 292.81 453.219 292.81C455.586 292.81 454.891 293.975 441.196 312.926C434.287 322.487 421.145 340.885 411.991 353.81C394.711 378.209 392.328 381.353 390.923 380.487C390.889 380.516 390.866 380.532 390.853 380.532C390.436 380.532 390.177 380.401 390.089 380.108C390.035 380.07 389.982 380.029 389.932 379.979C389.243 379.29 389.569 378.209 390.938 376.63C392.049 375.348 392.96 374.03 392.96 373.702C392.961 373.374 393.973 371.879 395.21 370.38C396.447 368.882 398.584 366.054 399.959 364.097C401.007 362.604 402.626 360.476 404.002 358.766C405.196 357.098 406.455 355.338 407.747 353.532C407.871 353.248 407.941 353.016 407.943 352.856C407.952 352.169 408.379 351.606 408.892 351.606C408.983 351.606 409.079 351.579 409.177 351.533C409.581 350.968 409.986 350.4 410.394 349.831C410.847 348.44 412.074 346.706 415.886 342.151C416.034 341.944 416.183 341.738 416.33 341.532C416.783 340.898 417.248 340.247 417.723 339.582C417.868 339.23 417.959 338.898 417.959 338.648C417.959 338.075 418.379 337.606 418.892 337.606C419.405 337.606 420.077 336.817 420.387 335.856C420.696 334.894 422.3 332.531 423.952 330.606C425.603 328.681 426.954 326.839 426.957 326.512C426.958 326.185 428.083 324.61 429.458 323.012C430.832 321.413 431.957 319.829 431.958 319.493C431.96 318.982 435.386 314.244 438.747 310.106C439.194 309.556 440.421 307.643 441.475 305.856C442.527 304.068 443.743 302.606 444.175 302.606C444.606 302.606 444.959 301.93 444.959 301.106C444.959 300.281 445.296 299.603 445.709 299.599C446.122 299.595 447.53 298.02 448.838 296.099ZM190.146 348.205C189.212 348.58 185.7 355.174 186.144 355.892C186.495 356.46 186.838 356.755 187.175 356.78C187.604 356.778 187.958 356.212 188.44 354.804C188.73 353.732 189.078 352.21 189.544 350.106C189.632 349.709 189.873 348.955 190.146 348.205ZM231.433 270.712C230.786 270.351 229.939 270.569 228.52 271.103C226.696 271.79 222.702 277.193 214.787 289.69C208.649 299.38 197.789 316.535 190.652 327.81L177.677 348.31L180.361 350.528L182.312 352.14C182.578 351.909 182.884 351.597 183.23 351.202C184.796 349.08 187.882 344.534 191.543 338.953C191.809 338.488 191.959 338.194 191.959 338.119C191.96 337.838 193.534 335.417 195.459 332.738C197.384 330.058 198.959 327.357 198.959 326.736C198.959 326.114 199.326 325.606 199.775 325.606C199.963 325.605 200.318 325.281 200.76 324.74C201.581 323.471 202.401 322.203 203.223 320.935C205.933 316.248 213.001 305.341 214.823 303.049C215.167 302.519 215.513 301.986 215.861 301.45C215.922 301.299 215.959 301.172 215.959 301.08C215.96 300.745 217.084 298.997 218.459 297.194C219.834 295.392 220.959 293.397 220.959 292.762C220.959 292.126 221.338 291.606 221.802 291.606C222.265 291.606 223.686 289.58 224.959 287.106C226.232 284.631 227.653 282.606 228.116 282.606C228.118 282.606 228.12 282.605 228.122 282.605C228.406 282.179 228.685 281.776 228.955 281.394C228.958 281.35 228.959 281.306 228.959 281.261C228.959 279.706 231.808 276.942 232.991 277.125C233.081 277.115 233.158 277.13 233.222 277.169C233.647 277.432 233.876 277.424 233.91 277.148C233.875 276.864 233.771 276.448 233.594 275.905C233.513 275.686 233.424 275.434 233.333 275.16C233.117 274.568 232.843 273.871 232.51 273.073C232.126 272.154 231.744 271.323 231.433 270.712ZM409.784 299.689C410.594 299.231 410.997 299.545 411.219 300.373C411.561 301.694 378.412 347.05 376.69 347.617C376.228 347.769 375.911 347.778 375.762 347.604C375.345 347.597 375.102 347.45 375.073 347.086C375.025 346.914 375 346.69 375 346.416C375 345.802 376.512 343.215 378.36 340.666C378.97 339.825 380.187 338.139 381.808 335.899C382.811 334.476 383.942 332.889 385.209 331.122C390.846 323.262 396.134 315.83 396.959 314.606C398.352 312.538 400.879 309.143 406.078 302.356C407.236 300.844 408.583 299.606 409.072 299.606C409.188 299.606 409.292 299.622 409.384 299.65C409.556 299.593 409.687 299.609 409.784 299.689ZM178.942 290.643C179.397 290.405 179.712 290.431 179.874 290.732C180.363 290.639 180.593 291.02 180.593 291.845C180.591 293.394 158.41 323.943 156.852 324.541C156.112 324.825 155.256 324.808 154.951 324.503C154.939 324.491 154.937 324.467 154.941 324.432C154.286 324.181 155.696 321.466 158.376 317.825C158.781 317.275 159.172 316.728 159.547 316.197C159.913 315.659 160.306 315.092 160.722 314.492C162.058 312.503 162.959 310.965 162.959 310.603C162.959 310.055 163.312 309.606 163.743 309.606C163.95 309.605 164.334 309.27 164.795 308.727C165.222 308.131 165.662 307.514 166.121 306.878C166.228 306.707 166.338 306.534 166.443 306.356C168.338 303.141 169.279 301.853 171.709 299.143C172.397 298.376 172.959 297.46 172.959 297.106C172.959 296.752 173.522 295.835 174.209 295.068C174.897 294.302 176.039 292.985 176.748 292.141C177.418 291.344 178.28 290.807 178.942 290.643ZM149.19 253.056C150.464 251.591 151.383 251.045 151.736 251.528C152.193 251.323 152.561 251.378 152.864 251.682C153.594 252.412 153.058 254.031 151.095 257.02C146.348 264.249 122.434 296.789 121.395 297.432C121.016 297.665 120.485 297.666 120.029 297.473C119.884 297.559 119.765 297.606 119.677 297.606C118.278 297.605 118.989 294.952 121.209 291.894C122.446 290.188 124.134 287.795 124.959 286.576C125.784 285.357 126.939 283.853 127.526 283.232C128.112 282.612 129.459 280.755 130.518 279.106C131.576 277.456 132.79 275.656 133.213 275.106C135.999 271.487 139.684 266.501 140.959 264.625C141.686 263.556 143.081 261.73 144.249 260.312C145.356 258.763 146.269 257.474 146.919 256.542C146.944 256.469 146.958 256.409 146.958 256.363C146.958 255.954 147.964 254.467 149.19 253.056ZM149.349 187.217C151.002 184.932 152.074 184.219 152.918 184.922C153.97 184.662 154.721 185.032 154.3 186.13C154.021 186.857 146.698 197.32 138.026 209.38C129.354 221.442 116.933 238.735 110.423 247.81C94.3036 270.28 94.9243 269.533 93.5195 268.133C93.5057 268.119 93.4926 268.104 93.4805 268.089C93.194 268.177 93.0604 268.005 93.0176 267.639C92.9598 267.589 92.9067 267.527 92.8594 267.45C92.3834 266.684 92.4402 265.963 92.9912 265.773C93.5232 265.588 93.959 264.994 93.959 264.45C93.9591 263.907 94.5212 262.847 95.209 262.094C95.897 261.341 97.584 259.107 98.959 257.13C100.116 255.467 101.967 253.035 103.421 251.252C104.483 249.764 105.651 248.128 106.94 246.329C106.941 246.324 106.943 246.319 106.943 246.314C106.952 245.878 107.522 244.849 108.209 244.028C108.897 243.207 109.92 241.989 110.483 241.32C110.616 241.163 110.772 240.968 110.951 240.741C113.688 236.929 116.842 232.539 120.478 227.483C121.628 225.795 122.494 224.475 122.788 223.925C123.425 222.735 124.531 221.164 125.246 220.434C125.961 219.704 130.237 213.931 134.747 207.606C139.258 201.281 143.401 195.562 143.954 194.898C144.507 194.234 144.959 193.413 144.959 193.076C144.959 192.738 145.522 191.869 146.209 191.145C146.897 190.421 148.31 188.653 149.349 187.217ZM324.253 206.972C324.274 207.471 325.397 209.064 327.091 210.94C333.335 217.849 335.831 224.6 335.869 234.667C335.887 239.42 335.586 244.435 335.199 245.81C335.101 246.16 335.025 246.454 334.968 246.692C335.021 246.951 335.079 247.137 335.141 247.25C335.221 247.144 335.316 247.001 335.431 246.824C336.091 245.126 336.697 240.892 336.892 236.484C336.975 233.267 336.762 230.206 336.257 227.32C335.013 221.386 332.215 215.31 328.69 211.34C326.623 209.012 325.077 207.542 324.253 206.972ZM295.35 224.27C294.629 223.994 292.313 225.534 290.204 227.694L286.369 231.623L288.012 236.567C289.613 241.385 290.228 243.32 292.934 243.856C293.809 243.904 294.866 243.921 296.106 243.911C298.312 243.691 301.31 243.462 303.796 243.323C308.324 242.869 310.532 242.578 311.603 242.08C311.888 241.204 312.264 239.075 312.521 236.759L312.8 234.249C312.797 233.32 312.731 232.553 312.606 232.068C311.608 231.212 309.471 230.276 305.219 228.449C300.511 226.426 296.07 224.546 295.35 224.27ZM117.411 152.421C118.563 151.594 119.104 151.696 119.168 152.381C119.468 152.434 119.75 152.567 119.959 152.776C120.906 153.723 118.03 157.935 88.1768 199.31C67.3078 228.233 66.0972 229.714 64.5762 228.193C64.5094 228.127 64.4691 228.031 64.457 227.906C64.3646 227.874 64.2746 227.833 64.1885 227.777C62.9305 226.969 63.1314 226.601 67.9404 220.898C68.4664 220.275 68.9019 219.526 68.9541 219.171L68.9639 219.04C69.0159 218.685 69.4523 217.936 69.9785 217.314C72.3425 214.51 74.555 211.651 75.959 209.587C78.1628 206.347 86.2703 195.278 88.9502 191.823C90.6379 189.478 92.3439 187.104 94.0205 184.771C95.25 182.925 96.4455 181.263 96.9141 180.742C97.7965 179.513 98.6611 178.308 99.501 177.137C99.8143 176.654 100.141 176.146 100.466 175.627C102.009 173.165 103.764 170.593 104.365 169.912C105.247 168.914 105.926 168.122 106.444 167.48C106.81 166.975 107.166 166.487 107.512 166.012C107.839 165.47 107.959 165.087 107.959 164.731C107.959 164.204 108.315 163.623 108.749 163.439C109.184 163.256 111.096 160.855 112.999 158.106C114.902 155.356 116.888 152.797 117.411 152.421ZM313.354 186.023C311.559 185.656 311.415 185.908 308.104 195.31C306.037 201.174 305.751 203.587 307.196 204.373C307.81 204.312 308.426 204.131 308.886 203.846C309.113 203.704 309.358 203.468 309.618 203.156C311.572 200.544 314.124 194.034 314.604 189.856C314.708 188.94 314.774 188.217 314.791 187.648C314.636 186.617 314.199 186.197 313.354 186.023ZM297.138 179.81C296.165 179.81 297.372 180.753 302.843 184.272C303.218 184.513 303.553 184.715 303.848 184.888C305.328 185.57 304.791 185.101 301.997 182.648C301.563 182.266 301.109 181.902 300.659 181.565C299.036 180.551 297.577 179.81 297.138 179.81ZM487.072 150.532C487.367 150.532 487.587 150.592 487.729 150.722C487.826 150.763 487.913 150.813 487.988 150.874C488.383 150.926 488.711 151.192 488.997 151.655C489.716 152.819 466.94 184.232 465.085 184.633C464.132 184.839 463.655 184.629 463.687 183.925C462.536 183.089 462.859 182.033 464.94 179.509C466.03 178.187 467.289 176.656 467.737 176.106C468.185 175.555 470.556 172.193 473.006 168.633C475.455 165.073 478.023 161.55 478.716 160.805C479.407 160.06 480.456 158.546 481.046 157.442C481.637 156.338 483.066 154.349 484.22 153.021C485.212 151.879 486.303 150.916 486.855 150.668C486.959 150.579 487.032 150.532 487.072 150.532ZM201.274 145.175C199.721 143.66 198.616 142.798 198.609 143.147C198.581 144.534 210.711 156.751 216.593 161.261C221.543 165.057 231.98 171.564 235.77 173.346C235.867 173.358 235.949 173.36 236.017 173.351C235.944 173.06 235.458 172.542 234.66 171.912C233.468 171.095 231.906 170.067 230.128 168.938C229.752 168.727 229.498 168.606 229.417 168.606C228.541 168.605 218.397 161.15 212.473 156.154C206.876 151.435 202.46 147.077 201.274 145.175ZM218.13 140.81C216.827 140.81 218.704 142.688 226.825 149.505C234.975 156.345 244.063 162.466 252.303 166.665C253.868 167.462 255.043 168.021 255.84 168.365C255.962 168.368 256.063 168.357 256.14 168.328C256.288 168.273 256.362 168.191 256.371 168.085C255.382 167.382 253.425 166.172 250.568 164.54C250.176 164.316 249.791 164.093 249.41 163.873C248.27 163.247 247.209 162.634 246.459 162.154C246.428 162.135 246.397 162.115 246.366 162.095C239.595 158.076 234.657 154.694 229.999 150.864C227.861 149.183 225.965 147.544 223.959 145.684C222.088 143.947 220.27 142.376 218.885 141.271C218.483 140.974 218.219 140.81 218.13 140.81ZM464.269 107.607C465.292 106.924 465.901 107.222 466.26 108.373C466.418 108.891 463.072 114.091 458.822 119.929C454.57 125.77 448.843 133.74 446.093 137.641C442.147 143.238 439.529 145.686 438.8 144.546C438.257 144.704 437.959 144.372 437.959 143.519C437.959 142.39 443.207 134.531 444.891 133.006C445.237 132.512 445.591 132.005 445.955 131.489C445.955 131.476 445.959 131.463 445.959 131.45C445.959 130.907 446.522 129.835 447.209 129.068C449.27 126.77 450.353 125.342 453.989 120.129C455.897 117.392 458.241 114.275 459.198 113.202C460.154 112.13 461.197 110.433 461.515 109.43C461.833 108.427 463.018 107.606 464.148 107.606C464.189 107.606 464.229 107.606 464.269 107.607ZM427.664 77.3799C428.421 76.6461 428.754 76.4968 428.897 76.8272C431.164 77.0792 429.453 80.3553 421.775 90.7266C416.889 97.3266 412.192 103.758 411.337 105.018C410.13 106.798 409.508 107.046 408.553 106.125C408.484 106.058 408.428 105.98 408.388 105.889C408.326 105.859 408.263 105.826 408.202 105.787C408.067 105.701 407.965 105.595 407.895 105.469C407.37 105.316 407.255 104.891 407.609 104.282C407.874 103.827 408.413 103.011 409.145 101.944C409.5 101.387 409.928 100.755 410.433 100.041C412.351 97.3261 414.492 94.2672 415.19 93.2422C415.889 92.2171 417.697 89.7933 419.209 87.8545C420.721 85.9165 421.959 83.995 421.959 83.586C421.96 83.1762 423.396 81.4391 425.15 79.7237C425.731 79.1558 426.25 78.6946 426.707 78.3389C427.051 77.9601 427.377 77.6331 427.664 77.3799Z" fill="#5B5B5B"/>
<path fill-rule="evenodd" clip-rule="evenodd" d="M196.581 48.5213C166.864 51.1013 124.398 61.9793 100.107 73.2343L95.1296 75.5393L105.856 76.1963C127.538 77.5253 150.111 85.3123 167.133 97.3343C170.745 99.8853 173.429 100.804 180.133 101.782C229.045 108.921 287.833 135.295 322.84 165.806C331.105 173.009 332.984 174.153 340.34 176.458C351.103 179.832 361.831 185.274 375.721 194.408C392.66 205.546 409.325 219.399 419.852 231.093C422.2 233.702 424.679 235.837 425.359 235.837C426.039 235.837 431.092 238.058 436.588 240.772C448.384 246.598 459.02 254.871 466.088 263.718C469.629 268.151 471.034 269.372 470.691 267.718C470.419 266.408 469.924 263.537 469.59 261.337C468.453 253.824 463.057 233.901 458.968 222.111C454.027 207.867 440.561 180.02 431.995 166.337C412.333 134.925 382.606 103.965 353.081 84.1503C328.723 67.8023 286.473 54.0233 246.296 49.3233C234.939 47.9943 207.702 47.5553 196.581 48.5213ZM350.953 55.0873C346.032 61.2763 340.081 70.3523 340.081 71.6683C340.081 72.1773 341.491 73.1793 343.215 73.8933C346.02 75.0543 346.499 74.9883 347.772 73.2643C350.39 69.7203 358.081 53.6583 358.081 51.7353C358.081 48.3673 355.231 49.7073 350.953 55.0873ZM259.815 61.5393C260.012 62.1313 257.79 63.1593 254.877 63.8243C234.686 68.4313 209.657 78.8073 189.442 90.9493C180.605 96.2573 180.081 96.4593 180.081 94.5723C180.081 91.4973 211.299 74.8073 229.081 68.3743C237.69 65.2603 257.125 59.8823 258.519 60.2293C259.034 60.3573 259.617 60.9463 259.815 61.5393ZM98.8116 82.7183C109.248 90.9683 115.754 101.266 116.774 111.153L117.347 116.703L122.464 114.692C125.278 113.586 131.139 111.12 135.487 109.212C139.835 107.304 144.073 106.004 144.904 106.323C147.142 107.181 145.76 107.995 133.081 113.281C126.756 115.918 121.229 118.396 120.799 118.788C120.369 119.18 121.944 120.078 124.299 120.784C135.923 124.266 153.24 135.244 165.543 146.931L172.817 153.841L173.362 149.782C173.661 147.549 175.408 143.228 177.243 140.178C181.823 132.569 197.661 116.597 203.637 113.56L208.482 111.098L199.335 108.95C194.304 107.769 185.746 106.18 180.317 105.418C171.372 104.162 169.767 103.593 163.219 99.3583C144.953 87.5413 117.686 78.8663 98.7406 78.8433L93.9006 78.8373L98.8116 82.7183ZM348.052 103.421C346.57 122.201 338.821 161.415 336.028 164.27C333.942 166.402 333.89 163.389 335.887 156.095C341.4 135.959 346.081 107.567 346.081 94.2603C346.081 91.4613 346.389 88.8633 346.764 88.4873C348.681 86.5703 349.047 90.8103 348.052 103.421ZM409.534 150.135C414.723 161.869 420.588 186.949 423.566 210.138C425.416 224.545 425.462 227.131 423.862 226.597C423.096 226.342 422.015 220.983 420.951 212.164C417.986 187.598 414.711 172.757 408.546 155.971C405.498 147.67 405.027 144.837 406.695 144.837C406.968 144.837 408.245 147.221 409.534 150.135ZM179.217 153.117C176.368 157.727 175.132 163.971 175.116 173.837C175.097 185.993 175.851 189.662 178.443 190.033C180.934 190.39 182.031 193.837 179.654 193.837C178.789 193.837 178.081 194.232 178.081 194.715C178.081 196.675 181.261 203.017 183.233 204.989C185.083 206.839 185.262 207.84 184.709 213.216C184.353 216.683 182.996 221.436 181.58 224.179C178.512 230.124 178.477 231.301 181.309 233.284C182.951 234.434 184.794 234.679 188.309 234.212C192.311 233.681 193.081 233.842 193.081 235.208C193.081 236.17 192.262 236.837 191.081 236.837C188.599 236.837 188.509 239.049 190.831 243.026C192.498 245.88 192.846 246.004 198.138 245.63C201.194 245.414 205.656 244.267 208.053 243.081C212.957 240.655 215.085 241.07 212.482 243.946C210.479 246.16 202.222 248.837 197.399 248.837C195.574 248.837 194.081 249.066 194.081 249.347C194.081 250.812 203.409 266.823 205.207 268.444C208.424 271.345 218.738 270.828 227.615 267.322C234.52 264.594 246.661 257.253 249.072 254.347C250.448 252.69 253.081 252.299 253.081 253.752C253.081 255.145 244.153 262.711 239.081 265.616C236.606 267.033 234.469 268.262 234.333 268.347C234.196 268.431 235.209 271.267 236.583 274.649C239.662 282.227 239.783 288.428 236.958 293.849C235.79 296.09 235.026 298.116 235.261 298.35C235.496 298.585 241.739 294.221 249.135 288.652C265.941 275.997 276.264 269.217 286.831 263.897C291.369 261.612 295.081 259.384 295.081 258.945C295.081 258.506 294.177 257.329 293.073 256.329C290.136 253.672 284.553 241.498 281.605 231.322C280.192 226.447 278.931 222.353 278.802 222.225C278.673 222.096 277.083 222.294 275.269 222.665C272.262 223.28 271.776 223.918 269.762 229.903C267.168 237.613 264.618 241.837 262.558 241.837C260.618 241.837 260.692 241.288 263.064 238.047C264.154 236.556 265.952 232.685 267.059 229.444C268.966 223.861 268.98 223.484 267.328 222.276C264.992 220.568 266.451 219.333 270.403 219.673C275.391 220.103 280.057 216.371 283.831 208.932C286.571 203.532 287.081 201.437 287.081 195.582C287.081 189.017 286.895 188.451 283.681 185.237C281.729 183.285 279.273 181.837 277.913 181.837C274.016 181.837 268.68 186.272 263.557 193.769C260.901 197.657 258.12 200.837 257.378 200.837C256.635 200.837 253.151 198.464 249.634 195.563C246.04 192.599 240.906 189.48 237.911 188.441C230.932 186.021 215.622 177.948 205.581 171.393C197.729 166.268 183.081 152.908 183.081 150.872C183.081 148.814 181.201 149.906 179.217 153.117ZM310.723 163.503C311.121 165.062 311.476 169.956 311.513 174.38C311.579 182.209 311.645 182.422 313.994 182.38C315.972 182.345 316.904 181.225 319.16 176.172L321.912 170.008L317.247 166.108C310.37 160.361 309.871 160.161 310.723 163.503ZM323.086 175.323C322.566 176.691 321.256 179.641 320.175 181.879C318.362 185.631 318.34 185.991 319.895 186.491C334.244 191.102 344.438 200.073 349.783 212.792C352.326 218.842 352.535 220.372 352.557 233.04C352.584 248.73 352.648 248.837 361.997 248.837C379.752 248.837 402.413 256.925 416.259 268.204L421.638 272.586L420.414 264.462C418.721 253.223 418.728 246.837 420.433 246.837C421.428 246.837 421.962 249.342 422.451 256.3C422.817 261.504 423.381 267.087 423.705 268.705C424.284 271.604 424.34 271.627 427.561 270.281C436.972 266.349 452.052 266.584 463.307 270.84L468.032 272.626L465.175 268.482C461.712 263.458 453.263 255.393 446.905 251.043C442.106 247.759 428.261 240.601 424.439 239.428C423.262 239.067 417.59 234.137 411.836 228.473C389.299 206.288 358.77 186.123 338.081 179.755C333.956 178.485 329.431 176.409 328.026 175.142C324.806 172.237 324.252 172.257 323.086 175.323ZM208.975 186.807C213.539 188.116 216.398 190.75 215.036 192.391C214.211 193.385 213.366 193.327 210.925 192.109C208.565 190.932 205.665 190.691 198.415 191.07C189.259 191.549 188.987 191.501 189.279 189.457C189.483 188.033 190.554 187.143 192.581 186.712C197.325 185.703 205.287 185.749 208.975 186.807ZM281.433 189.789C281.935 190.291 282.047 191.483 281.681 192.437C281.174 193.759 280.738 193.894 279.848 193.004C278.3 191.456 275.886 191.528 273.613 193.19C271.873 194.462 271.862 194.686 273.421 196.913C274.334 198.216 275.081 200.329 275.081 201.609C275.081 204.841 272.333 209.837 270.555 209.837C268.643 209.837 268.658 207.433 270.581 205.837C272.687 204.089 272.447 200.478 270.081 198.337C267.453 195.958 267.522 195.543 271.262 191.283C273.991 188.176 274.877 187.746 277.481 188.267C279.152 188.601 280.93 189.286 281.433 189.789ZM361.648 216.587C360.73 236.887 359.941 243.054 358.186 243.637C357.066 244.009 356.914 243.138 357.416 239.219C357.76 236.534 358.346 226.8 358.717 217.587C359.275 203.754 359.651 200.837 360.876 200.837C362.154 200.837 362.261 203.014 361.648 216.587ZM209.499 202.444C210.369 202.778 211.081 203.729 211.081 204.557C211.081 205.632 210.293 205.948 208.331 205.659C205.773 205.283 205.581 205.501 205.581 208.796C205.581 211.732 205.187 212.393 203.276 212.664C200.281 213.088 198.081 211.204 198.081 208.215C198.081 206.811 197.491 205.837 196.64 205.837C194.117 205.837 193.866 203.855 196.267 202.892C198.927 201.825 207.16 201.546 209.499 202.444ZM300.787 213.216C299.032 216.583 297.451 219.648 297.275 220.027C297.021 220.574 311.37 227.837 312.703 227.837C313.338 227.837 311.91 218.361 310.499 213.205C309.347 208.998 308.632 207.984 306.537 207.584C304.254 207.148 303.636 207.753 300.787 213.216ZM68.5266 293.484C76.1966 294.822 83.0476 296.395 83.7506 296.978C84.4546 297.562 87.6176 302.156 90.7806 307.188C99.3306 320.788 116.742 347.082 118.525 349.087C120.781 351.624 122.39 351.256 120.712 348.587C117.957 344.208 97.7336 313.218 92.2596 304.987C89.2046 300.395 85.7776 296.061 84.6436 295.357C82.8026 294.214 59.8566 290.666 56.0806 290.941C55.2556 291.001 60.8566 292.145 68.5266 293.484ZM58.8246 298.049C60.4156 300.408 64.6106 306.82 68.1486 312.299C71.6866 317.778 76.3806 324.917 78.5806 328.164L82.5806 334.066L91.5206 334.469C102.13 334.946 104.344 336.257 103.88 341.786C103.62 344.872 102.992 345.638 99.0806 347.638L94.5806 349.94L98.5806 349.399C100.781 349.102 105.377 348.854 108.794 348.848L115.007 348.837L99.3986 325.087C90.8146 312.025 83.2936 300.79 82.6846 300.122C82.0766 299.453 76.8536 297.993 71.0796 296.877C65.3046 295.76 59.5346 294.603 58.2566 294.304C55.9546 293.767 55.9596 293.801 58.8246 298.049ZM115.088 332.181C115.091 332.817 119.799 340.511 125.549 349.278C131.298 358.046 137.033 367.601 138.292 370.511C140.831 376.382 142.621 377.57 141.545 372.673C140.231 366.689 135.2 356.927 127.014 344.475C119.79 333.487 115.067 328.618 115.088 332.181ZM78.8306 338.898C75.2936 340.996 77.1816 345.686 83.8086 351.261C86.6176 353.625 87.0776 353.72 89.5466 352.439C92.3456 350.987 91.5826 349.577 87.8486 349.301C85.8406 349.154 84.4856 348.099 85.2816 347.303C85.5756 347.009 88.6876 346.31 92.1986 345.75C99.4896 344.586 102.149 342.756 100.458 340.068C99.5706 338.658 97.6266 338.293 89.9746 338.099C84.8046 337.967 79.7936 338.327 78.8306 338.898ZM160.688 348.419C159.621 351.199 159.933 351.552 168.581 357.366C173.256 360.509 177.081 363.749 177.081 364.566C177.081 366.516 175.94 366.011 166.644 359.942C158.185 354.42 153.878 353.48 152.116 356.771C150.454 359.877 150.906 361.82 153.522 362.815C156.884 364.093 170.081 372.947 170.081 373.925C170.081 376.275 167.42 375.467 161.685 371.374C153.08 365.233 149.609 364.05 147.035 366.378C145.856 367.446 145.081 369.442 145.081 371.414C145.081 374.254 145.533 374.831 148.538 375.823C153.23 377.371 163.081 383.961 163.081 385.551C163.081 387.625 161.393 387.062 156.567 383.378C152.118 379.982 147.093 378.308 143.431 379.003C141.124 379.44 140.42 384.827 142.13 388.956C143.47 392.191 145.567 392.945 144.581 389.837C144.152 388.486 144.401 387.837 145.35 387.837C146.708 387.837 152.159 393.37 166.395 409.2C171.875 415.293 174.77 417.558 181.175 420.764C185.556 422.957 189.73 424.525 190.449 424.249C192.721 423.377 201.633 410.588 204.412 404.212C207.628 396.832 207.671 396.159 204.985 395.307C203.608 394.87 201.691 392.017 199.393 386.989C189.416 365.151 187.065 360.993 182.329 356.809C172.757 348.353 162.273 344.288 160.688 348.419ZM93.7256 354.224C84.8036 357.264 83.0116 360.06 86.9026 364.866C88.6096 366.973 88.8796 367.017 91.1526 365.558C94.5206 363.397 101.024 361.808 110.353 360.868C118.6 360.036 121.635 358.444 120.518 355.534C118.92 351.368 104.217 350.65 93.7256 354.224ZM123.748 355.76C124.364 358.99 137.081 379.086 137.081 376.829C137.081 375.173 132.693 367.014 127.673 359.337C123.632 353.157 123.172 352.738 123.748 355.76ZM104.081 364.907C101.056 365.362 96.7806 366.362 94.5806 367.13C91.0706 368.355 90.5436 368.948 90.2826 371.97C90.0666 374.471 90.6536 376.193 92.4256 378.255C93.7676 379.817 95.1386 382.796 95.4706 384.875C96.4446 390.966 103.286 395.741 116.78 399.752C121.502 401.155 124.64 402.733 125.903 404.338L127.827 406.784L131.381 404.06C133.335 402.563 135.888 399.664 137.054 397.619C139.023 394.164 139.084 393.47 137.911 387.794C136.731 382.079 136.491 381.717 134.175 382.159C132.814 382.419 128.78 382.219 125.211 381.713C118.849 380.812 118.659 380.852 115.651 383.724C112.65 386.589 106.83 388.82 102.331 388.831C98.2146 388.842 100.007 387.186 105.879 385.553C109.068 384.666 112.457 383.079 113.411 382.025C115.07 380.191 115.03 380.033 112.471 378.357C110.225 376.885 109.202 376.784 106.073 377.721C101.615 379.057 97.0806 379.177 97.0806 377.958C97.0806 376.577 102.538 374.656 114.519 371.818C126.473 368.987 128.39 367.295 122.081 365.143C118.098 363.785 112.074 363.706 104.081 364.907ZM126.51 371.808C125.976 372.342 122.848 373.403 119.56 374.164L113.581 375.549L117.581 376.686C119.781 377.312 124.444 378.119 127.944 378.48L134.308 379.136L131.561 374.987C128.667 370.612 128.077 370.241 126.51 371.808Z" fill="white"/>
<path fill-rule="evenodd" clip-rule="evenodd" d="M196.581 48.5213C166.864 51.1013 124.398 61.9793 100.107 73.2343L95.1296 75.5393L105.856 76.1963C127.538 77.5253 150.111 85.3123 167.133 97.3343C170.745 99.8853 173.429 100.804 180.133 101.782C229.045 108.921 287.833 135.295 322.84 165.806C331.105 173.009 332.984 174.153 340.34 176.458C351.103 179.832 361.831 185.274 375.721 194.408C392.66 205.546 409.325 219.399 419.852 231.093C422.2 233.702 424.679 235.837 425.359 235.837C426.039 235.837 431.092 238.058 436.588 240.772C448.384 246.598 459.02 254.871 466.088 263.718C469.629 268.151 471.034 269.372 470.691 267.718C470.419 266.408 469.924 263.537 469.59 261.337C468.453 253.824 463.057 233.901 458.968 222.111C454.027 207.867 440.561 180.02 431.995 166.337C412.333 134.925 382.606 103.965 353.081 84.1503C328.723 67.8023 286.473 54.0233 246.296 49.3233C234.939 47.9943 207.702 47.5553 196.581 48.5213ZM350.953 55.0873C346.032 61.2763 340.081 70.3523 340.081 71.6683C340.081 72.1773 341.491 73.1793 343.215 73.8933C346.02 75.0543 346.499 74.9883 347.772 73.2643C350.39 69.7203 358.081 53.6583 358.081 51.7353C358.081 48.3673 355.231 49.7073 350.953 55.0873ZM259.815 61.5393C260.012 62.1313 257.79 63.1593 254.877 63.8243C234.686 68.4313 209.657 78.8073 189.442 90.9493C180.605 96.2573 180.081 96.4593 180.081 94.5723C180.081 91.4973 211.299 74.8073 229.081 68.3743C237.69 65.2603 257.125 59.8823 258.519 60.2293C259.034 60.3573 259.617 60.9463 259.815 61.5393ZM98.8116 82.7183C109.248 90.9683 115.754 101.266 116.774 111.153L117.347 116.703L122.464 114.692C125.278 113.586 131.139 111.12 135.487 109.212C139.835 107.304 144.073 106.004 144.904 106.323C147.142 107.181 145.76 107.995 133.081 113.281C126.756 115.918 121.229 118.396 120.799 118.788C120.369 119.18 121.944 120.078 124.299 120.784C135.923 124.266 153.24 135.244 165.543 146.931L172.817 153.841L173.362 149.782C173.661 147.549 175.408 143.228 177.243 140.178C181.823 132.569 197.661 116.597 203.637 113.56L208.482 111.098L199.335 108.95C194.304 107.769 185.746 106.18 180.317 105.418C171.372 104.162 169.767 103.593 163.219 99.3583C144.953 87.5413 117.686 78.8663 98.7406 78.8433L93.9006 78.8373L98.8116 82.7183ZM348.052 103.421C346.57 122.201 338.821 161.415 336.028 164.27C333.942 166.402 333.89 163.389 335.887 156.095C341.4 135.959 346.081 107.567 346.081 94.2603C346.081 91.4613 346.389 88.8633 346.764 88.4873C348.681 86.5703 349.047 90.8103 348.052 103.421ZM409.534 150.135C414.723 161.869 420.588 186.949 423.566 210.138C425.416 224.545 425.462 227.131 423.862 226.597C423.096 226.342 422.015 220.983 420.951 212.164C417.986 187.598 414.711 172.757 408.546 155.971C405.498 147.67 405.027 144.837 406.695 144.837C406.968 144.837 408.245 147.221 409.534 150.135ZM310.723 163.503C311.121 165.062 311.476 169.956 311.513 174.38C311.579 182.209 311.645 182.422 313.994 182.38C315.972 182.345 316.904 181.225 319.16 176.172L321.912 170.008L317.247 166.108C310.37 160.361 309.871 160.161 310.723 163.503ZM323.086 175.323C322.566 176.691 321.256 179.641 320.175 181.879C318.362 185.631 318.34 185.991 319.895 186.491C334.244 191.102 344.438 200.073 349.783 212.792C352.326 218.842 352.535 220.372 352.557 233.04C352.584 248.73 352.648 248.837 361.997 248.837C379.752 248.837 402.413 256.925 416.259 268.204L421.638 272.586L420.414 264.462C418.721 253.223 418.728 246.837 420.433 246.837C421.428 246.837 421.962 249.342 422.451 256.3C422.817 261.504 423.381 267.087 423.705 268.705C424.284 271.604 424.34 271.627 427.561 270.281C436.972 266.349 452.052 266.584 463.307 270.84L468.032 272.626L465.175 268.482C461.712 263.458 453.263 255.393 446.905 251.043C442.106 247.759 428.261 240.601 424.439 239.428C423.262 239.067 417.59 234.137 411.836 228.473C389.299 206.288 358.77 186.123 338.081 179.755C333.956 178.485 329.431 176.409 328.026 175.142C324.806 172.237 324.252 172.257 323.086 175.323ZM361.648 216.587C360.73 236.887 359.941 243.054 358.186 243.637C357.066 244.009 356.914 243.138 357.416 239.219C357.76 236.534 358.346 226.8 358.717 217.587C359.275 203.754 359.651 200.837 360.876 200.837C362.154 200.837 362.261 203.014 361.648 216.587ZM300.787 213.216C299.032 216.583 297.451 219.648 297.275 220.027C297.021 220.574 311.37 227.837 312.703 227.837C313.338 227.837 311.91 218.361 310.499 213.205C309.347 208.998 308.632 207.984 306.537 207.584C304.254 207.148 303.636 207.753 300.787 213.216ZM68.5266 293.484C76.1966 294.822 83.0476 296.395 83.7506 296.978C84.4546 297.562 87.6176 302.156 90.7806 307.188C99.3306 320.788 116.742 347.082 118.525 349.087C120.781 351.624 122.39 351.256 120.712 348.587C117.957 344.208 97.7336 313.218 92.2596 304.987C89.2046 300.395 85.7776 296.061 84.6436 295.357C82.8026 294.214 59.8566 290.666 56.0806 290.941C55.2556 291.001 60.8566 292.145 68.5266 293.484ZM58.8246 298.049C60.4156 300.408 64.6106 306.82 68.1486 312.299C71.6866 317.778 76.3806 324.917 78.5806 328.164L82.5806 334.066L91.5206 334.469C102.13 334.946 104.344 336.257 103.88 341.786C103.62 344.872 102.992 345.638 99.0806 347.638L94.5806 349.94L98.5806 349.399C100.781 349.102 105.377 348.854 108.794 348.848L115.007 348.837L99.3986 325.087C90.8146 312.025 83.2936 300.79 82.6846 300.122C82.0766 299.453 76.8536 297.993 71.0796 296.877C65.3046 295.76 59.5346 294.603 58.2566 294.304C55.9546 293.767 55.9596 293.801 58.8246 298.049ZM115.088 332.181C115.091 332.817 119.799 340.511 125.549 349.278C131.298 358.046 137.033 367.601 138.292 370.511C140.831 376.382 142.621 377.57 141.545 372.673C140.231 366.689 135.2 356.927 127.014 344.475C119.79 333.487 115.067 328.618 115.088 332.181ZM123.748 355.76C124.364 358.99 137.081 379.086 137.081 376.829C137.081 375.173 132.693 367.014 127.673 359.337C123.632 353.157 123.172 352.738 123.748 355.76Z" fill="#EEC753"/>
</svg>
