<svg width="526" height="526" viewBox="0 0 526 526" fill="none" xmlns="http://www.w3.org/2000/svg">
<path fill-rule="evenodd" clip-rule="evenodd" d="M0 263V526H263H526V263V0H263H0V263Z" fill="#B1D6CA"/>
<path fill-rule="evenodd" clip-rule="evenodd" d="M155.935 51.4825C150.203 53.2615 144.495 57.9825 141.656 63.2925C139.453 67.4125 139.431 67.9045 138.935 125.446L138.435 183.446L120.435 184.038C105.264 184.537 101.554 184.972 96.8303 186.806C75.2513 195.182 62.0564 216.366 63.1414 240.893C64.0014 260.345 74.3114 276.049 92.1234 285.041C100.935 289.489 108.664 290.915 124.068 290.931C137.418 290.946 137.71 290.993 138.096 293.196C138.313 294.434 138.375 308.046 138.233 323.446C137.956 353.441 138.769 363.739 141.894 369.866C144.382 374.743 151.22 380.653 155.87 381.944C158.031 382.545 181.949 382.937 216.618 382.94C270.224 382.946 273.83 383.055 274.284 384.696C274.549 385.658 275.057 388.578 275.411 391.185C276.372 398.261 281.488 412.589 285.399 419.153L288.85 424.946H286.449C281.471 424.946 280.935 427.482 280.935 451.014C280.935 470.691 281.099 472.785 282.764 474.291C284.428 475.797 290.718 475.946 352.541 475.946C413.702 475.946 420.722 475.783 422.815 474.318L425.14 472.689L424.716 449.685C424.329 428.648 424.133 426.564 422.423 425.313C421.394 424.561 419.401 423.945 417.994 423.944L415.435 423.943L415.388 390.194C415.347 360.192 415.1 355.046 413.164 343.831C409.324 321.59 401.959 302.779 388.894 281.846C376.258 261.6 357.276 239.995 347.186 234.371L341.937 231.446L341.936 225.265L341.935 219.083L370.685 218.736L399.435 218.389L409.101 215.147C428.764 208.554 440.687 197.01 447.636 177.84C450.08 171.099 450.317 169.166 450.317 155.946C450.318 142.747 450.072 140.728 447.576 133.446C442.244 117.896 430.734 105.075 416.705 99.0615C406.596 94.7275 399.45 93.9455 369.988 93.9455H341.935L341.919 89.1955C341.865 73.6435 341.235 68.1335 339.023 63.8425C336.116 58.2045 332.394 54.2555 327.725 51.8535C324.16 50.0205 320.818 49.9485 242.225 50.0155C175.157 50.0725 159.625 50.3365 155.935 51.4825ZM359.905 52.4815C358.089 54.6705 359.843 57.4455 363.044 57.4455C365.034 57.4455 365.435 56.9425 365.435 54.4455C365.435 52.1655 364.934 51.3735 363.347 51.1475C362.199 50.9835 360.65 51.5835 359.905 52.4815ZM327.571 56.4725C330.227 58.0285 332.936 60.7975 334.628 63.6855C337.155 67.9965 337.407 69.3955 337.773 81.1585L338.171 93.9455H332.553C329.463 93.9455 326.904 93.8335 326.867 93.6955C326.829 93.5575 326.566 88.7365 326.281 82.9805C325.72 71.6025 324.128 67.7295 319.252 65.8765C317.906 65.3645 305.589 64.9455 291.88 64.9455H266.955L264.087 71.1955C262.509 74.6335 259.995 78.5705 258.499 79.9455C255.937 82.3005 255.027 82.4645 242.761 82.7765C234.082 82.9975 228.761 82.7015 226.798 81.8885C223.201 80.3985 217.356 73.7585 216.444 70.1255C215.129 64.8875 215.437 64.9445 188.563 64.9605C161.006 64.9765 160.063 65.1485 156.215 70.8575L153.935 74.2415V165.644V257.046L148.185 256.746L142.435 256.446V164.446C142.435 61.8525 142.091 67.0635 149.322 60.0545C155.743 53.8315 152.603 54.0375 241.847 53.9895L323.259 53.9455L327.571 56.4725ZM237.935 62.2335C234.338 64.0445 233.815 71.0475 237.105 73.3515C238.356 74.2285 240.2 74.9455 241.203 74.9455C243.679 74.9455 247.935 70.5205 247.935 67.9455C247.935 65.6325 243.764 60.9375 241.73 60.9605C241.018 60.9685 239.31 61.5415 237.935 62.2335ZM184.199 69.6495C182.969 69.8865 180.719 69.8925 179.199 69.6635C177.679 69.4335 178.685 69.2395 181.435 69.2315C184.185 69.2245 185.429 69.4125 184.199 69.6495ZM322.667 90.1955C322.457 92.5325 322.284 90.6205 322.284 85.9455C322.284 81.2705 322.457 79.3575 322.667 81.6955C322.878 84.0325 322.878 87.8575 322.667 90.1955ZM263.935 80.2905C263.935 80.4805 262.923 81.4925 261.685 82.5405L259.435 84.4455L261.34 82.1955C263.13 80.0815 263.935 79.4905 263.935 80.2905ZM312.665 90.6735C312.448 92.7475 312.268 91.2955 312.263 87.4455C312.259 83.5955 312.436 81.8975 312.657 83.6735C312.878 85.4485 312.881 88.5985 312.665 90.6735ZM157.597 85.1955C157.32 85.8835 157.093 85.3205 157.093 83.9455C157.093 82.5705 157.32 82.0085 157.597 82.6955C157.875 83.3835 157.875 84.5085 157.597 85.1955ZM308.059 89.8175C307.898 92.8455 308.29 95.6685 308.988 96.5095C310.013 97.7445 316.738 97.9525 353.381 97.8845C393.523 97.8085 397.139 97.9455 404.684 99.8235C415.341 102.477 421.455 105.682 428.763 112.447C441.208 123.969 446.204 136.198 446.33 155.446C446.393 165.156 445.99 168.782 444.216 174.446C437.676 195.332 420.886 209.479 397.85 213.515C393.52 214.273 379.893 215.006 366.1 215.221L341.935 215.599V201.887V188.175L365.685 187.693C392.127 187.155 396.664 186.322 404.119 180.636C406.469 178.843 409.752 175.178 411.414 172.49C414.2 167.983 414.435 166.89 414.435 158.446C414.435 149.993 414.202 148.912 411.4 144.38C409.035 140.555 406.969 138.749 402.042 136.198L395.72 132.925L352.577 133.185L309.435 133.446L308.935 141.436C308.556 147.496 308.072 149.485 306.935 149.669C305.154 149.958 273.935 119.96 273.935 117.961C273.935 116.201 306.045 83.8155 307.356 84.2525C307.896 84.4325 308.212 86.9365 308.059 89.8175ZM434.292 85.4585C433.62 87.2085 435.571 89.9455 437.49 89.9455C439 89.9455 440.365 86.4505 439.441 84.9545C438.486 83.4095 434.945 83.7555 434.292 85.4585ZM232.664 87.5495C232.332 87.8815 231.469 87.9175 230.748 87.6285C229.95 87.3095 230.187 87.0725 231.352 87.0245C232.406 86.9815 232.996 87.2175 232.664 87.5495ZM252.664 87.5495C252.332 87.8815 251.469 87.9175 250.748 87.6285C249.95 87.3095 250.187 87.0725 251.352 87.0245C252.406 86.9815 252.996 87.2175 252.664 87.5495ZM157.684 154.196C157.525 166.434 157.395 156.421 157.395 131.946C157.395 107.471 157.525 97.4585 157.684 109.696C157.843 121.934 157.843 141.959 157.684 154.196ZM293.935 90.2585C293.935 90.4305 292.473 91.8935 290.685 93.5085L287.435 96.4455L290.372 93.1955C293.11 90.1665 293.935 89.4855 293.935 90.2585ZM91.3993 110.004C91.0033 110.645 90.6544 113.574 90.6244 116.514L90.5684 121.86L84.5024 122.153C79.9614 122.372 78.4354 122.816 78.4354 123.917C78.4354 124.934 80.2874 125.706 84.4354 126.417L90.4354 127.446V132.145C90.4354 136.953 91.9094 139.698 93.8484 138.5C94.4464 138.13 94.9354 135.38 94.9354 132.387V126.946L98.1854 126.847C106.003 126.61 106.435 126.485 106.435 124.446C106.435 122.715 105.669 122.406 100.731 122.147L95.0284 121.849L94.7313 115.727C94.4493 109.884 93.0053 107.406 91.3993 110.004ZM337.692 202.092L337.95 266.738L334.231 264.842C332.186 263.799 329.595 262.946 328.474 262.946C326.442 262.946 326.436 262.733 326.7 204.696C326.845 172.659 326.958 144.285 326.95 141.644L326.935 136.841L332.185 137.144L337.435 137.446L337.692 202.092ZM396.256 138.018C401.443 139.458 407.457 145.128 409.516 150.518C412.629 158.671 409.874 169.962 403.277 176.082C396.279 182.572 389.114 183.946 362.251 183.946H341.935V160.446V136.946L367.185 136.952C381.9 136.955 394.029 137.4 396.256 138.018ZM292.935 143.446C295.922 146.471 298.142 148.946 297.867 148.946C297.592 148.946 294.922 146.471 291.935 143.446C288.948 140.421 286.728 137.946 287.003 137.946C287.278 137.946 289.948 140.421 292.935 143.446ZM312.618 140.134C312.299 140.931 312.062 140.694 312.014 139.529C311.971 138.475 312.207 137.885 312.539 138.217C312.871 138.549 312.907 139.412 312.618 140.134ZM203.935 148.291C203.935 148.481 202.923 149.493 201.685 150.541L199.435 152.446L201.34 150.196C203.13 148.082 203.935 147.491 203.935 148.291ZM312.618 150.134C312.299 150.931 312.062 150.694 312.014 149.529C311.971 148.475 312.207 147.885 312.539 148.217C312.871 148.549 312.907 149.412 312.618 150.134ZM363.185 162.608C362.498 162.886 361.935 164.2 361.935 165.529C361.935 167.412 362.464 167.946 364.328 167.946C367.086 167.946 368.5 165.332 366.83 163.319C365.63 161.874 365.209 161.792 363.185 162.608ZM322.684 231.127C322.526 243.953 322.396 233.746 322.396 208.446C322.396 183.146 322.525 172.653 322.684 185.127C322.842 197.602 322.843 218.302 322.684 231.127ZM56.3244 183.376C55.3284 185.971 56.7234 188.115 59.1814 187.766C60.8334 187.531 61.4354 186.779 61.4354 184.946C61.4354 183.113 60.8334 182.361 59.1814 182.126C57.8284 181.934 56.6854 182.434 56.3244 183.376ZM138.05 199.196C138.167 210.584 138.017 214.156 137.398 214.802C137.21 214.998 132.305 215.132 126.499 215.099C114.207 215.03 108.758 216.386 103.114 220.922C92.7954 229.215 92.3913 244.336 102.227 254.172C108.694 260.638 110.93 260.946 151.413 260.946C178.175 260.946 187.846 260.635 188.735 259.746C189.395 259.086 189.935 256.05 189.935 253V247.455L204.176 261.695L218.416 275.936L205.44 288.941C193.847 300.559 190.014 303.583 189.899 301.196C189.611 295.213 188.451 288.305 187.646 287.79C187.082 287.429 169.254 287.176 148.028 287.227C106.033 287.328 104.142 287.125 92.5954 281.274C83.1914 276.508 73.7714 265.803 69.5884 255.126C60.7724 232.627 71.5284 203.752 92.7064 193.062C101.436 188.655 104.342 188.16 122.185 188.046L137.935 187.946L138.05 199.196ZM157.628 198.677C157.374 199.65 157.15 199.096 157.13 197.446C157.11 195.796 157.317 195 157.591 195.677C157.865 196.354 157.882 197.704 157.628 198.677ZM157.597 205.196C157.32 205.884 157.093 205.321 157.093 203.946C157.093 202.571 157.32 202.009 157.597 202.696C157.875 203.384 157.875 204.509 157.597 205.196ZM157.624 211.696C157.373 212.659 157.167 211.871 157.167 209.946C157.167 208.021 157.373 207.233 157.624 208.196C157.876 209.159 157.876 210.733 157.624 211.696ZM313.723 218.083C313.473 218.832 313.02 218.378 312.666 217.026C312.231 215.363 312.361 214.972 313.103 215.714C313.685 216.296 313.963 217.361 313.723 218.083ZM138.288 226.597C138.644 230.805 138.935 239.355 138.935 245.597V256.946L126.685 256.924C113.095 256.9 108.715 255.639 103.749 250.322C94.7054 240.64 98.8064 224.962 111.572 220.411C113.932 219.57 119.756 219.017 126.538 218.99L137.642 218.946L138.288 226.597ZM168.703 219.661C167.2 219.889 164.5 219.893 162.703 219.671C160.906 219.448 162.135 219.261 165.435 219.256C168.735 219.25 170.206 219.432 168.703 219.661ZM179.199 219.65C177.969 219.887 175.719 219.893 174.199 219.664C172.679 219.434 173.685 219.24 176.435 219.232C179.185 219.225 180.429 219.413 179.199 219.65ZM157.618 226.134C157.299 226.931 157.062 226.694 157.014 225.529C156.971 224.475 157.207 223.885 157.539 224.217C157.871 224.549 157.907 225.412 157.618 226.134ZM435.935 231.946C435.935 235.49 435.664 235.946 433.56 235.946C428.461 235.946 424.935 237.179 424.935 238.963C424.935 240.573 425.856 240.684 435.25 240.204C446.335 239.638 449.935 240.547 449.935 243.91C449.935 246.891 447.128 248.946 443.055 248.946C440.999 248.946 438.516 249.532 437.536 250.249C434.496 252.472 437.813 254.237 443.443 253.392C449.748 252.447 453.935 248.841 453.935 244.357C453.935 239.085 450.772 236.604 442.935 235.726C440.829 235.49 440.386 234.855 440.125 231.696C439.881 228.758 439.394 227.946 437.875 227.946C436.278 227.946 435.935 228.654 435.935 231.946ZM289.935 234.259C289.935 234.431 288.473 235.894 286.685 237.509L283.435 240.446L286.372 237.196C289.11 234.167 289.935 233.486 289.935 234.259ZM202.063 236.696C203.306 238.282 203.271 238.317 201.685 237.074C200.722 236.319 199.935 235.531 199.935 235.324C199.935 234.501 200.756 235.03 202.063 236.696ZM245.664 250.55C245.332 250.882 244.469 250.918 243.748 250.629C242.95 250.31 243.187 250.073 244.352 250.025C245.406 249.982 245.996 250.218 245.664 250.55ZM290.628 253.677C290.374 254.65 290.15 254.096 290.13 252.446C290.11 250.796 290.317 250 290.591 250.677C290.865 251.354 290.882 252.704 290.628 253.677ZM243.697 254.633C242.741 254.883 240.941 254.892 239.697 254.653C238.453 254.414 239.235 254.209 241.435 254.198C243.635 254.187 244.653 254.383 243.697 254.633ZM251.204 254.602C250.527 254.876 249.177 254.893 248.204 254.639C247.231 254.385 247.785 254.161 249.435 254.141C251.085 254.121 251.881 254.328 251.204 254.602ZM366.063 256.696C367.306 258.282 367.271 258.317 365.685 257.074C364.019 255.767 363.49 254.946 364.313 254.946C364.52 254.946 365.308 255.733 366.063 256.696ZM179.185 256.689C175.197 256.878 168.673 256.878 164.685 256.689C160.697 256.499 163.96 256.343 171.935 256.343C179.91 256.343 183.173 256.499 179.185 256.689ZM213.935 265.446C218.586 270.121 222.166 273.946 221.891 273.946C221.616 273.946 217.586 270.121 212.935 265.446C208.284 260.771 204.704 256.946 204.979 256.946C205.254 256.946 209.284 260.771 213.935 265.446ZM290.663 271.696C290.448 273.759 290.271 272.071 290.271 267.946C290.271 263.821 290.448 262.134 290.663 264.196C290.879 266.259 290.879 269.634 290.663 271.696ZM411.057 262.224C409.425 263.856 409.684 266.912 411.513 267.614C413.564 268.401 416.185 265.76 415.394 263.701C414.575 261.564 412.442 260.839 411.057 262.224ZM277.628 269.677C277.374 270.65 277.15 270.096 277.13 268.446C277.11 266.796 277.317 266 277.591 266.677C277.865 267.354 277.882 268.704 277.628 269.677ZM338.935 272.446C340.227 273.821 341.059 274.946 340.784 274.946C340.509 274.946 339.227 273.821 337.935 272.446C336.643 271.071 335.811 269.946 336.086 269.946C336.361 269.946 337.643 271.071 338.935 272.446ZM257.428 273.935C257.778 274.501 257.377 274.669 256.487 274.328C254.755 273.663 254.438 272.946 255.876 272.946C256.394 272.946 257.092 273.391 257.428 273.935ZM222.618 277.134C222.299 277.931 222.062 277.694 222.014 276.529C221.971 275.475 222.207 274.885 222.539 275.217C222.871 275.549 222.907 276.412 222.618 277.134ZM350.063 279.696C351.306 281.282 351.271 281.317 349.685 280.074C348.723 279.319 347.935 278.531 347.935 278.324C347.935 277.501 348.756 278.03 350.063 279.696ZM290.667 293.196C290.457 295.533 290.284 293.621 290.284 288.946C290.284 284.271 290.457 282.359 290.667 284.696C290.878 287.033 290.878 290.859 290.667 293.196ZM309.597 290.196C309.32 290.884 309.093 290.321 309.093 288.946C309.093 287.571 309.32 287.009 309.597 287.696C309.875 288.384 309.875 289.509 309.597 290.196ZM302.618 290.134C302.299 290.931 302.062 290.694 302.014 289.529C301.971 288.475 302.207 287.885 302.539 288.217C302.871 288.549 302.907 289.412 302.618 290.134ZM153.893 324.51C153.818 362.059 153.86 362.308 160.919 366.083C164.23 367.853 168.171 367.946 240.104 367.946C284.201 367.946 316.823 367.559 318.244 367.019L320.683 366.091L318.779 370.032C317.732 372.2 316.45 375.092 315.93 376.46L314.985 378.946H236.131H157.278L152.647 375.879C149.284 373.651 147.252 371.255 145.226 367.129L142.435 361.446L142.113 326.196L141.791 290.946H147.876H153.96L153.893 324.51ZM178.141 291.689C174.13 291.88 167.83 291.878 164.141 291.687C160.453 291.495 163.735 291.339 171.435 291.341C179.135 291.342 182.153 291.499 178.141 291.689ZM312.618 300.134C312.299 300.931 312.062 300.694 312.014 299.529C311.971 298.475 312.207 297.885 312.539 298.217C312.871 298.549 312.907 299.412 312.618 300.134ZM290.628 305.677C290.374 306.65 290.15 306.096 290.13 304.446C290.11 302.796 290.317 302 290.591 302.677C290.865 303.354 290.882 304.704 290.628 305.677ZM196.935 303.324C196.935 303.531 196.148 304.319 195.185 305.074C193.599 306.317 193.564 306.282 194.807 304.696C196.114 303.03 196.935 302.501 196.935 303.324ZM446.946 315.433C445.322 317.39 446.37 319.946 448.797 319.946C450.945 319.946 452.174 317.733 451.297 315.446C450.561 313.529 448.531 313.523 446.946 315.433ZM101.533 317.682C101.204 318.01 100.935 319.977 100.935 322.052C100.935 325.689 100.8 325.837 97.1934 326.136C94.6384 326.348 93.3503 326.98 93.1324 328.132C92.8864 329.434 93.6814 329.889 96.6244 330.132C100.418 330.445 100.436 330.468 100.742 335.258C100.991 339.149 101.374 340.009 102.742 339.749C103.994 339.512 104.514 338.193 104.74 334.687L105.045 329.946H109.563C113.326 329.946 114.026 329.653 113.75 328.196C113.508 326.919 112.27 326.363 109.176 326.139C104.979 325.834 104.935 325.792 104.935 321.995C104.935 318.435 103.103 316.111 101.533 317.682ZM329.446 351.174C329.972 354.679 329.736 355.816 328.194 357.212C326.34 358.889 326.291 358.694 326.165 349.189C326.042 339.847 326.094 339.599 327.418 343.151C328.177 345.188 329.09 348.798 329.446 351.174ZM354.072 343.734C353.35 343.974 352.285 343.696 351.703 343.114C350.961 342.372 351.352 342.242 353.015 342.677C354.367 343.031 354.821 343.484 354.072 343.734ZM333.618 353.134C333.299 353.931 333.062 353.694 333.014 352.529C332.971 351.475 333.207 350.885 333.539 351.217C333.871 351.549 333.907 352.412 333.618 353.134ZM410.618 353.134C410.299 353.931 410.062 353.694 410.014 352.529C409.971 351.475 410.207 350.885 410.539 351.217C410.871 351.549 410.907 352.412 410.618 353.134ZM328.935 362.324C328.935 362.531 328.147 363.319 327.185 364.074C325.599 365.317 325.564 365.282 326.807 363.696C328.114 362.03 328.935 361.501 328.935 362.324ZM412.672 395.196C412.47 398.083 412.305 395.721 412.305 389.946C412.305 384.171 412.47 381.809 412.672 384.696C412.874 387.583 412.874 392.309 412.672 395.196ZM294.663 383.676C292.588 383.892 289.438 383.889 287.663 383.668C285.887 383.447 287.585 383.27 291.435 383.274C295.285 383.279 296.737 383.459 294.663 383.676ZM306.685 383.662C305.173 383.891 302.697 383.891 301.185 383.662C299.673 383.433 300.91 383.246 303.935 383.246C306.96 383.246 308.197 383.433 306.685 383.662ZM98.2444 388.582C97.4823 390.57 99.0734 393.332 101.225 393.756C103.483 394.201 105.435 390.253 103.882 388.382C102.276 386.447 99.0194 386.562 98.2444 388.582ZM216.087 409.817C213.855 411.254 215.139 414.446 217.949 414.446C219.93 414.446 220.435 413.941 220.435 411.96C220.435 409.334 218.396 408.329 216.087 409.817ZM411.618 423.134C411.299 423.931 411.062 423.694 411.014 422.529C410.971 421.475 411.207 420.885 411.539 421.217C411.871 421.549 411.907 422.412 411.618 423.134ZM378.685 424.695C362.872 424.85 336.997 424.85 321.185 424.695C305.372 424.541 318.31 424.414 349.935 424.414C381.56 424.414 394.497 424.541 378.685 424.695ZM368.685 428.695C353.422 428.851 328.447 428.851 313.185 428.695C297.922 428.54 310.41 428.413 340.935 428.413C371.46 428.413 383.947 428.54 368.685 428.695ZM420.663 439.696C420.448 441.759 420.271 440.071 420.271 435.946C420.271 431.821 420.448 430.134 420.663 432.196C420.879 434.259 420.879 437.634 420.663 439.696ZM302.935 440.324C302.935 440.531 302.147 441.319 301.185 442.074C299.599 443.317 299.564 443.282 300.807 441.696C302.114 440.03 302.935 439.501 302.935 440.324ZM314.3 444.019C318.626 447.421 317.517 455.014 312.412 456.955C305.949 459.412 300.099 452.397 303.357 446.098C305.765 441.44 309.999 440.636 314.3 444.019ZM321.597 451.196C321.32 451.884 321.093 451.321 321.093 449.946C321.093 448.571 321.32 448.009 321.597 448.696C321.875 449.384 321.875 450.509 321.597 451.196ZM319.935 456.291C319.935 456.481 318.923 457.493 317.685 458.541L315.435 460.446L317.34 458.196C319.13 456.082 319.935 455.491 319.935 456.291ZM311.697 461.633C310.741 461.883 308.941 461.892 307.697 461.653C306.453 461.414 307.235 461.209 309.435 461.198C311.635 461.187 312.653 461.383 311.697 461.633Z" fill="#5B5B5B"/>
<path fill-rule="evenodd" clip-rule="evenodd" d="M160.852 72.078L158.084 74.846V129.423V184H167.157C175.259 184 176.195 184.187 175.896 185.75C175.613 187.23 174.214 187.545 166.823 187.789L158.084 188.078V201.507V214.937L169.834 215.218C180.823 215.482 181.584 215.629 181.584 217.5C181.584 219.376 180.872 219.508 170.084 219.636L158.584 219.772L158.311 237.886L158.039 256H172.014H185.989L186.286 249.75C186.559 244.03 186.786 243.471 188.963 243.164C190.892 242.891 194.346 245.831 207.213 258.698C215.942 267.427 223.084 275.26 223.084 276.105C223.084 277.588 196.737 304.495 193.523 306.294C189.002 308.824 185.084 304.256 185.084 296.453V292H171.584H158.084V306C158.084 306 157.786 330.5 158.311 345C158.638 354 159.565 362.5 171.584 362.5C205.294 362.5 238.737 362.5 238.737 362.5C238.737 362.5 286.835 362.5 303.04 362.5C309.348 362.5 317.916 363.479 319.929 357.5C321.455 352.963 320.54 333.5 320.54 333.5L315.271 312.75C312.9 306.174 312.654 304.106 312.621 290.5C312.581 274.027 313.133 271.956 319.05 266.371L322.085 263.506V200.245V136.984L317.585 137.154L313.085 137.324V143.988C313.085 149.66 312.741 150.975 310.771 152.826C306.504 156.834 304.978 155.926 287.956 139.25C279.113 130.588 271.24 122.268 270.462 120.763C268.082 116.162 270.535 112.706 288.567 95.25C301.725 82.513 305.93 79 308.019 79C312.062 79 313.085 80.758 313.085 87.7V94H317.585H322.085V83.955C322.085 74.622 321.911 73.735 319.63 71.455L317.176 69H293.579H269.982L268.417 72.75C266.009 78.518 261.48 83.63 256.747 85.921C253.249 87.614 250.539 88 242.134 88C236.459 88 230.05 87.471 227.891 86.824C222.527 85.217 215.665 78.927 213.461 73.596L211.636 69.185L187.629 69.247L163.621 69.309L160.852 72.078ZM179.494 88.627C180.208 90.488 178.486 93 176.497 93C174.882 93 173.177 89.995 173.802 88.25C174.454 86.432 178.762 86.718 179.494 88.627ZM253.584 102C253.584 103.833 252.982 104.585 251.33 104.82C248.872 105.169 247.477 103.025 248.473 100.43C248.834 99.488 249.977 98.988 251.33 99.18C252.982 99.415 253.584 100.167 253.584 102ZM209.9 112.259C210.169 114.59 209.849 115 207.757 115C204.918 115 203.508 112.4 205.225 110.33C207.031 108.153 209.546 109.191 209.9 112.259ZM257.285 134.105C279.634 138.767 298.81 158.05 303.606 180.685C310.485 213.147 290.778 244.766 258.528 253.014C249.216 255.396 242.66 255.514 232.972 253.476C209.535 248.546 192.007 231.657 186.016 208.234C177.911 176.544 197.136 143.179 228.184 135.048C236.574 132.851 249.295 132.439 257.285 134.105ZM233.521 138.025C206.341 143.42 186.556 169.522 188.421 197.527C190.003 221.287 206.807 241.631 230.553 248.534C239.339 251.088 256.291 250.14 265.104 246.601C280.082 240.587 293.472 226.129 298.306 210.751C301.56 200.399 301.355 185.294 297.831 175.758C290.589 156.163 276.154 143.059 256.78 138.491C250.127 136.922 240.093 136.721 233.521 138.025ZM256.016 146.546C274.359 150.869 289.266 167.526 292.22 187C296.557 215.593 274.175 241.966 245.584 241.954C231.585 241.949 221.667 238.225 212.192 229.419C191.513 210.201 190.732 179.38 210.426 159.665C222.814 147.263 239.135 142.567 256.016 146.546ZM233.897 150.47C225.45 152.796 219.686 156.251 213.018 162.983C203.759 172.331 200.75 179.765 200.664 193.5C200.605 203.026 200.778 203.868 204.301 211.266C209.283 221.724 216.283 229.001 225.961 233.782C233.337 237.426 233.717 237.5 245.036 237.492C256.059 237.484 256.892 237.334 263.348 234.184C278.328 226.876 289.085 210.098 289.085 194.037C289.085 188.196 285.894 177.059 282.624 171.477C272.754 154.637 251.71 145.564 233.897 150.47ZM177.904 152.754C178.311 155.621 175.494 156.838 173.37 154.714C171.246 152.59 172.463 149.773 175.33 150.18C176.781 150.386 177.698 151.303 177.904 152.754ZM246.882 164.064C247.125 166.145 247.988 166.827 251.603 167.794C254.036 168.445 257.416 170.22 259.115 171.738L262.203 174.5L260.082 176.774L257.961 179.049L255.211 177.091C253.699 176.014 251.252 174.829 249.773 174.458L247.084 173.783V181.892C247.084 189.039 247.298 190 248.888 190C252.203 190 260.602 194.914 262.353 197.879C263.305 199.49 264.084 202.674 264.084 204.954C264.084 212.483 260.287 216.916 251.723 219.384C248.216 220.395 247.532 221.028 247.244 223.535C246.621 228.947 242.085 229.042 242.083 223.643C242.081 220.665 241.767 220.408 236.085 218.738C232.787 217.769 228.677 215.715 226.952 214.173C224.205 211.719 223.961 211.099 224.985 209.185C226.471 206.408 227.284 206.442 231.872 209.478C233.932 210.841 237.072 212.248 238.85 212.603L242.084 213.25V204.783V196.317L237.906 195.065C229.652 192.592 226.078 188.428 226.091 181.3C226.101 175.029 230.409 169.926 237.334 167.978C239.849 167.27 241.084 166.343 241.084 165.161C241.084 160.731 246.375 159.729 246.882 164.064ZM236.025 176.059C233.196 178.888 233.765 183.693 237.234 186.272C238.692 187.355 240.379 187.936 240.984 187.562C241.6 187.181 242.084 184.046 242.084 180.441C242.084 174.667 241.877 174 240.084 174C238.984 174 237.157 174.927 236.025 176.059ZM247.347 205.5C247.476 212.436 247.647 213 249.611 213C252.683 213 256.084 208.932 256.084 205.258C256.084 201.878 252.305 198 249.01 198C247.42 198 247.223 198.886 247.347 205.5ZM313.753 216.578C314.556 218.669 311.887 221.245 309.763 220.43C308.091 219.788 307.485 216.933 308.752 215.667C309.998 214.42 313.145 214.994 313.753 216.578ZM172.584 238C172.584 239.833 171.982 240.585 170.33 240.82C167.872 241.169 166.477 239.025 167.473 236.43C167.834 235.488 168.977 234.988 170.33 235.18C171.982 235.415 172.584 236.167 172.584 238ZM342.085 253.591V270.181L346.382 275.341C356.65 287.67 366.707 304.55 376.393 325.715C384.423 343.259 387.478 351.533 386.688 353.593C385.566 356.517 383.473 353.421 378.991 342.203C372.127 325.026 353.702 290 351.529 290C351.257 290 344.716 293.187 336.993 297.081C329.27 300.976 322.292 303.91 321.485 303.6C320.679 303.291 319.166 301.116 318.123 298.769C317.08 296.421 316.202 295.175 316.173 296C316.023 300.231 319.586 312.507 324.659 325.238C330.797 340.64 334.086 351.024 334.084 354.997C334.084 356.621 332.628 358.905 329.938 361.5C325.136 366.134 319.681 376.811 318.014 384.84C316.46 392.328 317.247 405.571 319.503 409.883C320.956 412.659 321.032 413.42 319.929 414.127C318.112 415.291 315.411 411.924 314.021 406.762C313.421 404.535 313.055 398.441 313.207 393.22L313.483 383.727L295.812 383.614L278.14 383.5L278.749 387.5C280.459 398.727 285.317 411.86 290.854 420.228L293.351 424H352.101H410.851L411.454 421.75C411.785 420.512 412.063 407.562 412.07 392.97C412.091 352.218 408.956 332.431 398.604 308C391.33 290.835 374.469 265.901 359.152 249.657C355.146 245.409 344.176 237 342.64 237C342.335 237 342.085 244.466 342.085 253.591ZM295.085 252C295.085 254.034 295.581 255 296.625 255C298.734 255 305.423 258.498 307.04 260.446C308.148 261.782 308.084 262.344 306.636 263.944C304.943 265.814 304.821 265.803 300.248 263.367L295.585 260.883L295.284 267.086C295.118 270.498 295.174 273.788 295.408 274.398C295.642 275.008 297.577 276.121 299.709 276.871C301.841 277.621 304.781 279.351 306.242 280.715C313.297 287.302 308.699 299.669 298.484 301.585C295.57 302.132 295.085 302.626 295.085 305.052C295.085 306.609 294.615 308.172 294.041 308.527C292.476 309.495 290.085 307.063 290.085 304.503C290.085 302.764 289.348 302.103 286.851 301.603C282.146 300.662 276.084 296.356 276.084 293.954C276.084 290.795 278.566 290.612 283.355 293.419C285.778 294.838 288.284 296 288.923 296C289.7 296 290.085 293.579 290.085 288.698V281.397L285.279 279.366C276.916 275.833 274.815 267.038 280.673 260.076C282.054 258.436 284.737 256.532 286.634 255.846C289.1 254.955 290.085 253.989 290.085 252.466C290.085 249.853 290.864 249 293.252 249C294.622 249 295.085 249.758 295.085 252ZM286.835 263.205C285.323 264.692 284.085 266.579 284.085 267.399C284.085 269.271 288.692 274.722 289.551 273.866C289.9 273.517 290.051 270.367 289.886 266.866L289.585 260.5L286.835 263.205ZM322.841 268.755C319.138 271.05 316.608 276.537 316.733 282C316.834 286.403 320.947 297.179 323.016 298.457C323.974 299.049 343.379 289.734 347.319 286.791C348.895 285.614 348.514 284.856 342.995 278.192C333.988 267.317 328.958 264.962 322.841 268.755ZM257.979 274.804C259.222 277.127 257.874 279.299 255.476 278.837C253.204 278.399 252.37 275.068 254.236 273.885C256.218 272.629 256.906 272.798 257.979 274.804ZM295.085 289.5C295.085 296.656 296.319 297.766 300.085 294C303.81 290.275 301.608 283 296.756 283C295.366 283 295.085 284.093 295.085 289.5ZM230.888 303.878C230.527 306.993 227.404 307.482 225.693 304.691C224.81 303.252 224.961 302.603 226.431 301.51C229.061 299.556 231.254 300.721 230.888 303.878ZM366.905 321.284C368.511 323.219 367.368 324.229 357.81 329.323C348.401 334.337 345.085 335.099 345.085 332.246C345.085 331.046 348.163 328.868 354.835 325.348C366.068 319.422 365.515 319.608 366.905 321.284ZM368.585 334.521C368.585 335.822 366.347 337.516 361.085 340.198C353.557 344.035 351.085 344.367 351.085 341.543C351.085 339.986 365.721 331.863 367.585 332.386C368.135 332.54 368.585 333.501 368.585 334.521ZM340.335 428.758L285.085 429.017V450.515V472.014L352.835 471.757L420.584 471.5L420.613 458C420.628 450.575 420.481 440.77 420.285 436.212L419.929 427.923L407.757 428.212C401.062 428.37 370.722 428.616 340.335 428.758ZM316.99 440.574C318.672 441.989 320.551 444.823 321.165 446.872C324.169 456.898 312.355 465.791 303.652 460.054C298.2 456.459 296.542 449.885 299.598 443.976C302.791 437.8 311.637 436.069 316.99 440.574Z" fill="white"/>
<path fill-rule="evenodd" clip-rule="evenodd" d="M233.137 138.046C206.408 143.351 186.434 169.192 188.097 196.315C188.34 200.278 188.788 204.607 189.093 205.935C193.727 226.09 209.621 242.582 230.169 248.555C238.955 251.109 255.907 250.161 264.72 246.622C279.704 240.606 293.098 226.14 297.914 210.772C301.034 200.818 301.002 186.343 297.839 176.896C288.562 149.193 260.841 132.548 233.137 138.046ZM255.632 146.567C273.975 150.89 288.881 167.547 291.835 187.021C296.172 215.614 273.791 241.987 245.2 241.975C231.201 241.97 221.283 238.246 211.808 229.44C192.717 211.698 190.457 183.424 206.53 163.407C209.129 160.17 213.493 156.06 216.228 154.275C218.963 152.49 221.65 150.671 222.2 150.233C223.149 149.477 231.912 146.635 236.2 145.692C240.589 144.728 249.54 145.131 255.632 146.567ZM233.513 150.439C224.939 152.895 219.264 156.31 212.634 163.004C203.381 172.346 200.369 179.782 200.272 193.521C200.203 203.325 200.285 203.689 204.443 212.118C209.597 222.567 216.642 229.678 226.441 234.32C232.831 237.346 233.827 237.521 244.7 237.513C255.668 237.505 256.513 237.352 262.964 234.205C277.944 226.897 288.7 210.119 288.7 194.058C288.7 188.217 285.51 177.08 282.24 171.498C276.354 161.456 263.645 151.979 254.013 150.451C245.868 149.158 238.002 149.153 233.513 150.439ZM246.498 164.085C246.741 166.166 247.604 166.848 251.219 167.815C253.652 168.466 257.032 170.241 258.731 171.759L261.819 174.521L259.698 176.795L257.577 179.07L254.827 177.112C253.315 176.035 250.868 174.85 249.389 174.479L246.7 173.804V181.913C246.7 189.06 246.914 190.021 248.504 190.021C251.819 190.021 260.218 194.935 261.969 197.9C262.921 199.511 263.7 202.695 263.7 204.975C263.7 212.504 259.903 216.937 251.339 219.405C247.832 220.416 247.148 221.049 246.86 223.556C246.237 228.968 241.701 229.063 241.699 223.664C241.697 220.686 241.383 220.429 235.701 218.759C232.403 217.79 228.293 215.736 226.568 214.194C223.821 211.74 223.577 211.12 224.601 209.206C226.087 206.429 226.9 206.463 231.488 209.499C233.548 210.862 236.688 212.269 238.466 212.624L241.7 213.271V204.804V196.338L237.522 195.086C229.268 192.613 225.694 188.449 225.707 181.321C225.717 175.05 230.025 169.947 236.95 167.999C239.465 167.291 240.7 166.364 240.7 165.182C240.7 160.752 245.991 159.75 246.498 164.085ZM235.641 176.08C232.812 178.909 233.381 183.714 236.85 186.293C238.308 187.376 239.995 187.957 240.6 187.583C241.216 187.202 241.7 184.067 241.7 180.462C241.7 174.688 241.493 174.021 239.7 174.021C238.6 174.021 236.773 174.948 235.641 176.08ZM246.963 205.521C247.092 212.457 247.263 213.021 249.227 213.021C252.299 213.021 255.7 208.953 255.7 205.279C255.7 201.899 251.921 198.021 248.626 198.021C247.036 198.021 246.839 198.907 246.963 205.521Z" fill="#EEC753"/>
</svg>
