<svg width="24" height="24" viewBox="0 0 24 24" fill="none" xmlns="http://www.w3.org/2000/svg">
<path d="M12 6C9.17566 6 7.06979 7.26467 5.57715 8.70215C4.26493 9.9659 3.45857 11.3355 3.1123 12C3.45791 12.664 4.26372 14.0339 5.57617 15.2979C7.06877 16.7353 9.17503 18 12 18C14.8248 18 16.9304 16.7352 18.4229 15.2979C19.7352 14.0339 20.5406 12.6634 20.8867 11.999C20.5408 11.3346 19.7355 9.96539 18.4238 8.70215C16.9312 7.26467 14.825 6 12 6ZM22.9541 12C22.9541 12.217 22.904 12.4306 22.8096 12.626L22.8105 12.627C22.5121 13.2453 21.5498 15.0631 19.8105 16.7383C18.0608 18.4235 15.483 20 12 20C8.51714 20 5.93935 18.4235 4.18945 16.7383C2.44995 15.063 1.48763 13.2449 1.18945 12.626L1.19043 12.625C1.09628 12.4299 1.0459 12.2167 1.0459 12C1.0459 11.7827 1.09578 11.5686 1.19043 11.373H1.18945C1.48797 10.7546 2.45017 8.93682 4.18945 7.26172C5.93931 5.57649 8.51742 4 12 4C15.4829 4 18.0607 5.57654 19.8105 7.26172C21.549 8.93592 22.5107 10.753 22.8096 11.373C22.9042 11.5686 22.9541 11.7827 22.9541 12Z" fill="#333333"/>
<path d="M14 12C14 10.8954 13.1046 10 12 10C10.8954 10 10 10.8954 10 12C10 13.1046 10.8954 14 12 14C13.1046 14 14 13.1046 14 12ZM16 12C16 14.2091 14.2091 16 12 16C9.79086 16 8 14.2091 8 12C8 9.79086 9.79086 8 12 8C14.2091 8 16 9.79086 16 12Z" fill="#333333"/>
</svg>
