<svg width="24" height="24" viewBox="0 0 24 24" fill="none" xmlns="http://www.w3.org/2000/svg">
<path d="M17.7657 2.25L18.8624 2.25782C19.1953 2.26639 19.4951 2.28438 19.7588 2.32032C20.2366 2.38542 20.6961 2.52198 21.0713 2.84961L21.2266 3.00196L21.2276 3.00293L21.3653 3.17383C21.6565 3.58126 21.7426 4.05058 21.7501 4.5293C21.7582 5.05259 21.6723 5.70576 21.5743 6.46875V6.46973C21.5401 6.731 21.4889 6.98433 21.3838 7.23731C21.3039 7.42984 21.2015 7.60111 21.0782 7.76661L20.9473 7.93164C19.9684 9.09428 18.1491 11.1944 15.5899 13.1084C15.5586 13.1335 15.5328 13.1649 15.5137 13.2002C15.4939 13.237 15.4818 13.2777 15.4786 13.3193V13.3281C15.2302 16.074 14.9994 17.5959 14.8516 18.3828C14.6801 19.2968 13.9735 19.9344 13.3721 20.3701C13.0562 20.599 12.7218 20.8045 12.4258 20.9844C12.1184 21.1712 11.8637 21.3228 11.6583 21.4678L11.6592 21.4688C11.1146 21.8535 10.4894 21.8095 10.0225 21.5381C9.57978 21.2805 9.25248 20.8094 9.18853 20.2656V20.2637C8.922 17.9534 8.69624 15.6385 8.51178 13.3203L8.5108 13.3135C8.50787 13.2715 8.49635 13.2305 8.47662 13.1934C8.45689 13.1563 8.42961 13.1235 8.39654 13.0977V13.0967C6.16525 11.4259 4.49692 9.61515 3.46002 8.41114L3.05377 7.9336C2.87 7.71553 2.72223 7.4959 2.61529 7.23829C2.53628 7.04795 2.48843 6.85768 2.45513 6.66407L2.42584 6.46973C2.32779 5.70673 2.24287 5.05357 2.25103 4.53028C2.25958 3.98317 2.36949 3.44807 2.77252 3.00391C3.17233 2.56333 3.69486 2.39492 4.24127 2.32032C4.769 2.24827 5.44136 2.25 6.23443 2.25H17.7657ZM5.17584 3.75782C4.88357 3.7651 4.64551 3.7792 4.44439 3.80664C4.06116 3.85896 3.94509 3.94436 3.88385 4.01172C3.82593 4.07554 3.75577 4.18786 3.75006 4.55371C3.74398 4.94341 3.81017 5.46938 3.91412 6.27832L3.95416 6.51465C3.96853 6.57605 3.9843 6.62279 4.00103 6.66309C4.03284 6.7397 4.08412 6.82897 4.20025 6.9668L4.59674 7.43164C5.53151 8.51689 6.96792 10.0804 8.86138 11.5645L9.3067 11.9053L9.31842 11.9141L9.46099 12.0381C9.59686 12.1691 9.71178 12.321 9.80084 12.4883C9.91832 12.709 9.98743 12.9519 10.0059 13.2012H10.0069C10.1899 15.5014 10.4133 17.7985 10.6778 20.0908L10.6885 20.1328C10.6941 20.1476 10.7019 20.1626 10.712 20.1777C10.7325 20.2086 10.757 20.2299 10.7764 20.2412C10.7803 20.2435 10.7835 20.2458 10.7862 20.2471C10.788 20.246 10.7904 20.245 10.793 20.2432H10.794L11.21 19.9697C11.3556 19.8789 11.5049 19.7888 11.6475 19.7022C11.9441 19.5219 12.231 19.3446 12.4922 19.1553C13.0455 18.7544 13.3193 18.4132 13.377 18.1055L13.4952 17.4141C13.6275 16.5672 13.8002 15.2304 13.9844 13.1934C14.0049 12.947 14.0753 12.707 14.1924 12.4893C14.3111 12.2688 14.4753 12.0756 14.6729 11.9219L14.6846 11.9131C17.107 10.1028 18.8399 8.10591 19.7999 6.96582C19.9151 6.82853 19.9661 6.73913 19.9981 6.66211C20.0318 6.58084 20.0601 6.47313 20.086 6.27539C20.1898 5.46753 20.2561 4.94213 20.2501 4.55274C20.2444 4.18809 20.175 4.07565 20.1172 4.01172L20.0577 3.95899C19.9814 3.90414 19.8446 3.84591 19.5567 3.80664C19.3554 3.77922 19.1168 3.76509 18.8243 3.75782L17.7657 3.75H6.23443L5.17584 3.75782Z" fill="#333333"/>
</svg>
