<svg width="24" height="24" viewBox="0 0 24 24" fill="none" xmlns="http://www.w3.org/2000/svg">
<path d="M18.7501 20.1173C19.1752 20.1173 19.5846 20.2769 19.8975 20.5645H19.8985C19.9409 20.6034 19.9769 20.6154 20.0049 20.6192C20.0367 20.6235 20.0752 20.6188 20.1143 20.6007C20.1898 20.5658 20.2501 20.493 20.2501 20.3741V6.37021C20.2501 5.11833 20.2407 4.67189 20.1299 4.33505L20.128 4.33017C20.0196 3.99439 19.8357 3.68783 19.5899 3.43466C19.344 3.18143 19.0426 2.98848 18.71 2.87021V2.86923C18.3925 2.75993 17.9703 2.75009 16.7549 2.75009H7.24518C6.02876 2.75009 5.60676 2.75965 5.28913 2.86923L5.29011 2.87021C4.95757 2.9884 4.65615 3.18154 4.41022 3.43466C4.16444 3.68775 3.98063 3.99447 3.87214 4.33017L3.87116 4.3331C3.75995 4.67254 3.75007 5.11858 3.75007 6.37021V20.3741C3.75007 20.493 3.81038 20.5658 3.88581 20.6007C3.92498 20.6188 3.96339 20.6235 3.99518 20.6192C4.00914 20.6173 4.02526 20.6139 4.04304 20.6056L4.10163 20.5645C4.41465 20.2766 4.82465 20.1173 5.25007 20.1173C5.67524 20.1173 6.08458 20.2769 6.39753 20.5645H6.3985L6.88093 21.0069L6.88386 21.0099L6.94929 21.0645C7.10678 21.1849 7.30031 21.2501 7.50007 21.2501C7.72836 21.2501 7.94867 21.1649 8.11628 21.0099C8.56108 20.5985 9.14424 20.3692 9.75007 20.3692C10.3559 20.3692 10.9391 20.5985 11.3839 21.0099C11.5515 21.1649 11.7718 21.2501 12.0001 21.2501C12.2284 21.2501 12.4487 21.1649 12.6163 21.0099C13.0611 20.5985 13.6442 20.3692 14.2501 20.3692C14.8559 20.3692 15.4391 20.5985 15.8839 21.0099C16.0515 21.1649 16.2718 21.2501 16.5001 21.2501C16.7284 21.2501 16.9487 21.1649 17.1163 21.0099L17.1192 21.0069L17.6016 20.5645C17.9146 20.2766 18.3247 20.1173 18.7501 20.1173ZM21.7501 20.3741C21.75 21.8382 20.0238 22.7122 18.8858 21.671L18.8829 21.669C18.8467 21.6356 18.7993 21.6173 18.7501 21.6173C18.7008 21.6173 18.6535 21.6356 18.6173 21.669L18.6143 21.671L18.1309 22.1134L18.1299 22.1124C17.6855 22.5219 17.1045 22.7501 16.5001 22.7501C15.8943 22.7501 15.3111 22.5217 14.8663 22.1104C14.6987 21.9554 14.4784 21.8692 14.2501 21.8692C14.0218 21.8692 13.8015 21.9554 13.6339 22.1104C13.1891 22.5217 12.6059 22.7501 12.0001 22.7501C11.3943 22.7501 10.8111 22.5217 10.3663 22.1104C10.1987 21.9554 9.97836 21.8692 9.75007 21.8692C9.52178 21.8692 9.30147 21.9554 9.13386 22.1104C8.68906 22.5217 8.10587 22.7501 7.50007 22.7501C6.89542 22.7501 6.31368 22.5222 5.86921 22.1124V22.1134L5.38581 21.671L5.38288 21.669C5.34667 21.6356 5.29935 21.6173 5.25007 21.6173C5.20079 21.6173 5.15346 21.6356 5.11725 21.669L5.11432 21.671C3.97632 22.7122 2.25008 21.8382 2.25007 20.3741V6.37021C2.25007 5.23612 2.24066 4.48986 2.44538 3.86533C2.62486 3.31162 2.92939 2.80626 3.33503 2.38876C3.74138 1.97061 4.23873 1.65137 4.78815 1.45615L4.79206 1.45517L5.03034 1.38388C5.6005 1.24176 6.28553 1.25009 7.24518 1.25009H16.7549C17.7146 1.25009 18.3996 1.24176 18.9698 1.38388L19.2081 1.45517L19.212 1.45615L19.4161 1.53525C19.885 1.73298 20.3105 2.02358 20.6661 2.38974C21.0712 2.80704 21.3744 3.31209 21.5538 3.86533H21.5548C21.7599 4.48843 21.7501 5.23671 21.7501 6.37021V20.3741Z" fill="#333333"/>
<path d="M7.5 13.75C7.91421 13.75 8.25 14.0858 8.25 14.5C8.25 14.9142 7.91421 15.25 7.5 15.25H7C6.58579 15.25 6.25 14.9142 6.25 14.5C6.25 14.0858 6.58579 13.75 7 13.75H7.5ZM17 13.75C17.4142 13.75 17.75 14.0858 17.75 14.5C17.75 14.9142 17.4142 15.25 17 15.25H10.5C10.0858 15.25 9.75 14.9142 9.75 14.5C9.75 14.0858 10.0858 13.75 10.5 13.75H17ZM7.5 10.25C7.91421 10.25 8.25 10.5858 8.25 11C8.25 11.4142 7.91421 11.75 7.5 11.75H7C6.58579 11.75 6.25 11.4142 6.25 11C6.25 10.5858 6.58579 10.25 7 10.25H7.5ZM17 10.25C17.4142 10.25 17.75 10.5858 17.75 11C17.75 11.4142 17.4142 11.75 17 11.75H10.5C10.0858 11.75 9.75 11.4142 9.75 11C9.75 10.5858 10.0858 10.25 10.5 10.25H17ZM7.5 6.75C7.91421 6.75 8.25 7.08579 8.25 7.5C8.25 7.91421 7.91421 8.25 7.5 8.25H7C6.58579 8.25 6.25 7.91421 6.25 7.5C6.25 7.08579 6.58579 6.75 7 6.75H7.5ZM17 6.75C17.4142 6.75 17.75 7.08579 17.75 7.5C17.75 7.91421 17.4142 8.25 17 8.25H10.5C10.0858 8.25 9.75 7.91421 9.75 7.5C9.75 7.08579 10.0858 6.75 10.5 6.75H17Z" fill="#333333"/>
</svg>
