<svg width="24" height="24" viewBox="0 0 24 24" fill="none" xmlns="http://www.w3.org/2000/svg">
<path d="M21.25 12C21.25 6.89121 17.1088 2.75 12 2.75C6.89121 2.75 2.75 6.89121 2.75 12C2.75 13.4806 3.09774 14.8778 3.71387 16.1172L3.7998 16.3086C3.95652 16.6989 4.01948 17.1362 3.94824 17.5752L3.90137 17.7949L3.30664 20.0205C3.28171 20.1137 3.28167 20.2125 3.30664 20.3057C3.33164 20.3987 3.3811 20.4836 3.44922 20.5518C3.51738 20.6199 3.60224 20.6693 3.69531 20.6943C3.78837 20.7193 3.88639 20.7192 3.97949 20.6943L6.20508 20.0986L6.21484 20.0957L6.42773 20.0527C6.92274 19.9747 7.43153 20.0546 7.88086 20.2842H7.88184C9.16064 20.9209 10.5705 21.2518 11.999 21.25H12C17.1088 21.25 21.25 17.1088 21.25 12ZM22.75 12C22.75 17.9372 17.9372 22.749 12 22.749C10.3391 22.751 8.70067 22.3672 7.21387 21.627L7.20312 21.6221C7.01367 21.5239 6.79496 21.4978 6.58789 21.5488L4.36719 22.1436H4.36621C4.0188 22.2362 3.65291 22.2359 3.30566 22.1426C2.95852 22.0493 2.64181 21.8666 2.3877 21.6123C2.1335 21.358 1.95051 21.0407 1.85742 20.6934C1.76442 20.3461 1.76452 19.9801 1.85742 19.6328L2.45215 17.4072L2.47559 17.2627C2.48197 17.1626 2.46946 17.0565 2.43652 16.9492L2.37207 16.7881L2.37109 16.7871C1.65377 15.3449 1.25 13.7187 1.25 12C1.25 6.06279 6.06279 1.25 12 1.25C17.9372 1.25 22.75 6.06279 22.75 12Z" fill="#333333"/>
<path d="M13.25 10.333C13.25 9.94958 12.8248 9.41699 12 9.41699C11.1752 9.41699 10.75 9.94958 10.75 10.333C10.75 10.7177 11.1755 11.25 12 11.25C13.3858 11.25 14.75 12.2109 14.75 13.667C14.75 14.857 13.8388 15.714 12.75 15.9883V16C12.75 16.4142 12.4142 16.75 12 16.75C11.5858 16.75 11.25 16.4142 11.25 16V15.9883C10.1612 15.714 9.25 14.857 9.25 13.667C9.25 13.2528 9.58579 12.917 10 12.917C10.4142 12.917 10.75 13.2528 10.75 13.667C10.75 14.0504 11.1752 14.583 12 14.583C12.8248 14.583 13.25 14.0504 13.25 13.667C13.25 13.283 12.8242 12.75 12 12.75C10.6145 12.75 9.25 11.7903 9.25 10.333C9.25 9.14294 10.1611 8.28495 11.25 8.01074V8C11.25 7.58579 11.5858 7.25 12 7.25C12.4142 7.25 12.75 7.58579 12.75 8V8.01074C13.8389 8.28495 14.75 9.14294 14.75 10.333C14.75 10.7472 14.4142 11.083 14 11.083C13.5858 11.083 13.25 10.7472 13.25 10.333Z" fill="#333333"/>
</svg>
