<svg width="24" height="24" viewBox="0 0 24 24" fill="none" xmlns="http://www.w3.org/2000/svg">
<path d="M18.5264 3.41809C18.8209 3.17778 19.2557 3.19524 19.5303 3.46984L22.5303 6.46984L22.582 6.52648C22.8223 6.82107 22.8049 7.25579 22.5303 7.53039C22.2557 7.80499 21.8209 7.82246 21.5264 7.58215L21.4697 7.53039L19.75 5.81066V18.1896L21.4697 16.4698C21.7626 16.177 22.2374 16.177 22.5303 16.4698C22.8232 16.7627 22.8232 17.2375 22.5303 17.5304L19.5303 20.5304C19.2374 20.8233 18.7626 20.8233 18.4697 20.5304L15.4697 17.5304L15.418 17.4738C15.1777 17.1792 15.1951 16.7444 15.4697 16.4698C15.7443 16.1952 16.1791 16.1778 16.4736 16.4181L16.5303 16.4698L18.25 18.1896V5.81066L16.5303 7.53039C16.2374 7.82328 15.7626 7.82328 15.4697 7.53039C15.1768 7.2375 15.1768 6.76274 15.4697 6.46984L18.4697 3.46984L18.5264 3.41809ZM12 17.2501C12.4142 17.2501 12.75 17.5859 12.75 18.0001C12.75 18.4143 12.4142 18.7501 12 18.7501H2C1.58579 18.7501 1.25 18.4143 1.25 18.0001C1.25 17.5859 1.58579 17.2501 2 17.2501H12ZM10 13.2501C10.4142 13.2501 10.75 13.5859 10.75 14.0001C10.75 14.4143 10.4142 14.7501 10 14.7501H2C1.58579 14.7501 1.25 14.4143 1.25 14.0001C1.25 13.5859 1.58579 13.2501 2 13.2501H10ZM8 9.25012C8.41421 9.25012 8.75 9.5859 8.75 10.0001C8.75 10.4143 8.41421 10.7501 8 10.7501H2C1.58579 10.7501 1.25 10.4143 1.25 10.0001C1.25 9.5859 1.58579 9.25012 2 9.25012H8ZM6 5.25012C6.41421 5.25012 6.75 5.5859 6.75 6.00012C6.75 6.41433 6.41421 6.75012 6 6.75012H2C1.58579 6.75012 1.25 6.41433 1.25 6.00012C1.25 5.5859 1.58579 5.25012 2 5.25012H6Z" fill="#333333"/>
</svg>
