<svg width="24" height="24" viewBox="0 0 24 24" fill="none" xmlns="http://www.w3.org/2000/svg">
<path d="M17.8543 3.17931C17.8908 3.1599 17.9281 3.14196 17.9665 3.12567C17.9787 3.12051 17.992 3.1145 17.9975 3.10244C18.0077 3.08007 17.9844 3.05733 17.9632 3.04488C17.8666 2.98808 17.7533 2.96022 17.6414 2.9658C17.6114 2.96731 17.5784 2.97034 17.5543 2.95256C17.54 2.94205 17.5312 2.92575 17.5229 2.91005C17.4623 2.79513 17.3999 2.67088 17.4157 2.5419C17.4213 2.49604 17.4368 2.45044 17.4308 2.40464C17.4144 2.27993 17.0251 2.24931 16.9164 2.22175C16.7076 2.16882 16.4988 2.11589 16.29 2.06297C16.2582 2.05492 16.226 2.04667 16.1975 2.03048C16.1202 1.98649 16.0848 1.88967 16.0914 1.80097C16.0929 1.77994 16.0963 1.75803 16.0886 1.73838C16.0682 1.68611 15.9951 1.69025 15.9397 1.68145C15.8204 1.66246 15.742 1.54875 15.6869 1.44126C15.6317 1.33376 15.5774 1.21391 15.4696 1.15925C15.3604 1.10382 15.229 1.13244 15.1108 1.1649C14.9899 1.19811 14.8683 1.23471 14.76 1.29789C14.6516 1.36106 14.5562 1.45387 14.5125 1.57145C14.4933 1.62323 14.4841 1.67911 14.4576 1.72757C14.4496 1.74209 14.4394 1.75599 14.4275 1.76808C14.3749 1.82163 14.3784 1.90987 14.4312 1.96319C14.4445 1.9766 14.459 1.98938 14.4745 2.00084C14.5078 2.02279 14.5446 2.04109 14.5704 2.07151C14.5962 2.10193 14.6075 2.14977 14.5831 2.1813C14.556 2.21629 14.498 2.21196 14.4645 2.18305C14.4296 2.15299 14.415 2.10495 14.3818 2.07312C14.3339 2.02719 14.2563 2.02532 14.1951 2.05094C14.0904 2.09477 14.0519 2.16636 13.9356 2.18811C13.8212 2.20949 13.7069 2.23164 13.5933 2.2567C13.3601 2.30812 13.1287 2.37136 12.9081 2.46364C12.7189 2.54275 12.5391 2.6424 12.3597 2.74181C12.2442 2.80591 12.1272 2.87096 12.0311 2.9617C11.946 3.04209 11.8798 3.14038 11.8207 3.24151C11.7362 3.38626 11.6766 3.53781 11.6097 3.69054C11.5588 3.80661 11.4227 3.82603 11.3518 3.94243C11.2681 4.07965 11.2728 4.25069 11.2403 4.40812C11.1872 4.66575 11.033 4.88938 10.8809 5.10394C10.8201 5.18969 10.7573 5.27948 10.7414 5.38339C10.5787 5.3193 10.3749 5.38612 10.2818 5.53416C10.2326 5.61241 10.2073 5.71357 10.1274 5.75995C10.0952 5.77861 10.0575 5.78581 10.0245 5.80299C9.93538 5.84935 9.89862 5.95536 9.86971 6.05156C9.81044 6.24874 9.77089 6.47911 9.64831 6.64892C9.54578 6.79095 9.39318 6.88767 9.287 7.02677C9.214 7.12237 9.16626 7.2346 9.11774 7.34446C9.07161 7.44893 9.02552 7.5534 8.97943 7.65791C8.91201 7.81235 8.84095 7.96587 8.78724 8.12577C8.76404 8.19482 8.74403 8.26516 8.71384 8.33146C8.60033 8.58065 8.34819 8.73972 8.27345 9.01083C8.2539 9.08169 8.24496 9.15913 8.19874 9.21626C8.17131 9.25016 8.13297 9.27375 8.10435 9.30667C8.0575 9.36061 8.04108 9.43394 8.00711 9.49682C7.97485 9.55652 7.92714 9.60606 7.88411 9.65849C7.73469 9.8406 7.63915 10.0617 7.54946 10.2773C7.50984 10.3726 7.46552 10.4659 7.41395 10.5553C7.20447 10.9181 6.95039 11.241 6.81957 11.6523C6.80058 11.712 6.78668 11.7734 6.7786 11.8355C6.77492 11.8639 6.77088 11.8921 6.76401 11.9198C6.73533 12.0352 6.65938 12.1329 6.61664 12.2438C6.50783 12.5262 6.62284 12.8657 6.48427 13.1348C6.46252 13.1771 6.43433 13.2182 6.43006 13.2655C6.42576 13.3128 6.45828 13.368 6.50576 13.3659C6.51502 13.3655 6.52419 13.363 6.53342 13.3639C6.56545 13.3667 6.5802 13.4086 6.57051 13.4393C6.56082 13.47 6.53618 13.4931 6.51768 13.5195C6.45135 13.6138 6.46758 13.7435 6.50773 13.8516C6.5345 13.9237 6.70839 14.1998 6.56719 14.2225C6.52061 14.23 6.46889 14.2168 6.439 14.2823C6.42333 14.3166 6.42244 14.3558 6.43233 14.3922C6.45079 14.4603 6.47688 14.5656 6.41216 14.6098C6.37418 14.6358 6.30483 14.6481 6.31636 14.6926C6.32004 14.7068 6.33242 14.7169 6.33926 14.7299C6.36524 14.7794 6.30502 14.827 6.27388 14.8734C6.21717 14.9579 6.25689 15.0791 6.20699 15.1678C6.18636 15.2045 6.15124 15.2336 6.14056 15.2743C6.12545 15.3319 6.16385 15.3881 6.18297 15.4445C6.2021 15.5009 6.18238 15.585 6.12282 15.5843C6.11145 15.5841 6.10028 15.5806 6.08892 15.5809C6.05327 15.5821 6.02952 15.6229 6.03359 15.6583C6.03767 15.6938 6.06102 15.7237 6.08458 15.7504C6.13642 15.8093 6.1949 15.8652 6.22588 15.9372C6.25686 16.0093 6.25144 16.1048 6.18922 16.1526C6.14861 16.1838 6.0901 16.191 6.04759 16.2162C6.01283 16.2368 5.99345 16.2823 6.00202 16.3217C6.01671 16.3894 6.09996 16.4027 6.14335 16.364C6.17115 16.3392 6.18366 16.2967 6.22956 16.2962C6.25568 16.296 6.27963 16.3119 6.29323 16.3342C6.32286 16.3828 6.31113 16.4381 6.30906 16.4914C6.30736 16.5355 6.31534 16.5852 6.35089 16.6113C6.4458 16.6812 6.4912 16.4502 6.57324 16.4308C6.63497 16.4162 6.70465 16.4492 6.73257 16.5061C6.79059 16.6245 6.6695 16.7536 6.6622 16.8852C6.65681 16.9824 6.71441 17.0713 6.73201 17.1671C6.74525 17.2391 6.73566 17.3144 6.7536 17.3854C6.79085 17.533 6.94086 17.6414 6.94786 17.7934C6.95022 17.8446 6.93557 17.8947 6.92844 17.9454C6.90242 18.1303 6.97808 18.3072 7.07309 18.4614C7.16715 18.6141 7.26161 18.6745 7.20474 18.845C7.17257 18.9413 7.19018 19.0898 7.24833 19.1731C7.30727 19.2575 7.39177 19.3206 7.47673 19.379C7.54818 19.428 7.62207 19.4757 7.67937 19.5408C7.73666 19.6059 7.77618 19.6924 7.76403 19.7782C7.75483 19.8432 7.71701 19.9053 7.72733 19.9701C7.73742 20.0335 7.79245 20.0815 7.85201 20.1053C7.91157 20.1292 7.97669 20.1341 8.03976 20.1458C8.17975 20.1717 8.31323 20.2322 8.4249 20.3206C8.48502 20.3681 8.5388 20.4235 8.60007 20.4695C8.6574 20.5126 8.72061 20.5471 8.78356 20.5814C8.89877 20.6442 9.01399 20.707 9.1292 20.7698C9.16321 20.7883 9.19882 20.8083 9.21876 20.8415C9.24301 20.8819 9.23893 20.9325 9.24876 20.9785C9.2751 21.1019 9.39558 21.1789 9.46493 21.2843C9.51056 21.3536 9.53356 21.4349 9.55794 21.5142C9.63695 21.7712 9.73705 22.0218 9.85693 22.2625C9.92329 22.3957 9.99767 22.5458 9.94918 22.6865C9.93177 22.7371 9.89954 22.7813 9.87967 22.831C9.84875 22.9082 9.88288 22.9717 9.89852 23.0461C9.91695 23.1336 9.92228 23.224 9.94163 23.3118C9.96229 23.4056 9.99485 23.5068 10.0766 23.557C10.1338 23.5922 10.2045 23.5953 10.2686 23.6151C10.4506 23.671 10.5819 23.8603 10.772 23.8717C10.7831 23.8724 10.7949 23.8723 10.8047 23.867C10.8278 23.8545 10.8285 23.8222 10.8261 23.7961C10.8178 23.7053 10.799 23.6187 10.8272 23.5313C10.8554 23.444 10.9217 23.3824 10.9721 23.3082C11.085 23.1419 11.0689 22.9235 11.0557 22.7229C11.0217 22.2048 11.0369 21.6835 11.1011 21.1683C11.1132 21.0712 11.1272 20.9735 11.1596 20.8811C11.2309 20.6779 11.3957 20.552 11.4455 20.3401C11.4928 20.1388 11.4752 19.9171 11.5845 19.7338C11.6385 19.6432 11.7201 19.5708 11.769 19.4774C11.8118 19.396 11.8273 19.3032 11.8602 19.2173C11.9077 19.0937 11.9902 18.987 12.0762 18.8864C12.2196 18.7184 12.3791 18.5589 12.5745 18.4559C12.6366 18.4232 12.7026 18.396 12.7567 18.3511C12.8094 18.3074 12.8478 18.2492 12.8855 18.1919C12.9345 18.1173 12.9851 18.0384 12.9917 17.9493C12.995 17.9065 12.9877 17.8634 12.9904 17.8206C13.0014 17.6454 13.1647 17.527 13.2957 17.4102C13.4705 17.2543 13.61 17.0594 13.7021 16.8442C13.7943 16.6284 13.8312 16.4257 13.9779 16.2325C14.0828 16.0941 14.2004 15.9607 14.2621 15.7983C14.3609 15.5382 14.3017 15.2443 14.3627 14.9728C14.405 14.7845 14.5071 14.653 14.6189 14.5024C14.7145 14.3736 14.7505 14.2256 14.772 14.0686C14.8603 13.4274 14.9348 12.7804 15.113 12.1563C15.2016 11.8463 15.3088 11.5542 15.3779 11.2385C15.4506 10.9068 15.5232 10.5752 15.5958 10.2435C15.6213 10.1274 15.6475 10.009 15.7083 9.90686C15.7245 9.87953 15.7434 9.85285 15.7506 9.82187C15.7706 9.73655 15.6988 9.66093 15.6433 9.59308C15.4949 9.41164 15.7025 9.24625 15.7648 9.07322C15.8224 8.95715 15.8791 8.84288 15.9366 8.72681C16.0266 8.593 16.0812 8.42703 16.1884 8.29946C16.3037 8.16227 16.4741 8.07599 16.574 7.9273C16.5997 7.88913 16.6208 7.84353 16.6121 7.79832C16.6035 7.75387 16.5678 7.71865 16.5578 7.6745C16.5511 7.645 16.5566 7.61425 16.5626 7.58458C16.5857 7.4694 16.6454 7.34768 16.658 7.23285C16.67 7.1228 16.6047 7.022 16.7253 6.9172C16.76 6.88704 16.8018 6.86654 16.8459 6.85376C16.935 6.82794 17.0619 6.76756 17.0707 6.66239C17.0762 6.59695 17.0335 6.53867 17.0088 6.47779C16.9841 6.41692 16.9878 6.32949 17.0491 6.306C17.0661 6.29947 17.0852 6.29927 17.1018 6.29168C17.1479 6.27062 17.1525 6.20804 17.1502 6.15738C17.1455 6.05156 17.1399 5.94219 17.0926 5.84741C17.0591 5.78042 17.0068 5.7248 16.9686 5.66041C16.8436 5.44939 16.9297 5.25221 16.898 5.03213C16.8825 4.92476 16.8335 4.82719 16.8264 4.71401C16.82 4.61026 16.8257 4.50605 16.8316 4.40243C16.8356 4.33111 16.8399 4.25854 16.8646 4.19152C16.892 4.11743 16.9425 4.05462 16.9922 3.99328C17.2426 3.68417 17.5065 3.36457 17.8543 3.17931Z" fill="#333333"/>
</svg>
