<svg width="24" height="24" viewBox="0 0 24 24" fill="none" xmlns="http://www.w3.org/2000/svg">
<path d="M18.8828 7.75146C19.2961 7.77902 19.6086 8.137 19.5811 8.55029L19.1211 15.4497C19.034 16.7562 18.9658 17.8094 18.8018 18.6333C18.6335 19.4784 18.3466 20.1844 17.7549 20.7378C17.1635 21.2908 16.4404 21.5301 15.5859 21.6421C14.7526 21.7513 13.6964 21.7505 12.3867 21.7505H11.6133C10.3037 21.7505 9.24741 21.7512 8.41406 21.6421C7.55954 21.5302 6.83563 21.2916 6.24414 20.7378V20.7368C5.6531 20.1837 5.3666 19.4781 5.19824 18.6333C5.07509 18.0153 5.00592 17.2684 4.94238 16.3823L4.87891 15.4497L4.41895 8.55029L5.16699 8.50049L5.91504 8.44971L6.375 15.3501L6.43945 16.2866C6.50171 17.1518 6.56354 17.8114 6.66895 18.3403C6.78821 18.9388 6.94945 19.2905 7.1709 19.5405L7.26953 19.6421L7.37695 19.7339C7.64123 19.9386 8.00353 20.0755 8.60938 20.1548C9.32277 20.2482 10.2629 20.2505 11.6133 20.2505H12.3867C13.737 20.2505 14.6773 20.2483 15.3906 20.1548C16.0827 20.0641 16.457 19.8979 16.7305 19.6421C17.0038 19.3865 17.1938 19.0245 17.3301 18.3403C17.4705 17.6349 17.5351 16.6976 17.625 15.3501L18.085 8.44971C18.1127 8.03665 18.4697 7.72397 18.8828 7.75146ZM10.7461 15.9253L10.75 16.0024C10.7492 16.3824 10.4605 16.708 10.0742 16.7466C9.68813 16.785 9.34161 16.523 9.26562 16.1509L9.25391 16.0747L8.75391 11.0747L9.5 11.0005L10.2461 10.9253L10.7461 15.9253ZM14.5742 10.2534C14.9864 10.2946 15.2873 10.6625 15.2461 11.0747L14.7461 16.0747L14.7344 16.1509C14.6584 16.523 14.3119 16.785 13.9258 16.7466C13.5136 16.7054 13.2127 16.3375 13.2539 15.9253L13.7539 10.9253C13.7952 10.5133 14.1623 10.2125 14.5742 10.2534ZM9.42578 10.2534C9.83773 10.2125 10.2048 10.5133 10.2461 10.9253L8.75391 11.0747C8.71269 10.6625 9.01362 10.2946 9.42578 10.2534ZM5.11719 7.75146C5.5303 7.72397 5.88727 8.03665 5.91504 8.44971L4.41895 8.55029C4.39139 8.137 4.70389 7.77902 5.11719 7.75146ZM20.5 5.25049L20.5771 5.25342C20.9551 5.29202 21.25 5.6123 21.25 6.00049C21.2498 6.38845 20.955 6.708 20.5771 6.74658L20.5 6.75049H3.5C3.08595 6.75049 2.75026 6.41448 2.75 6.00049C2.75 5.58627 3.08579 5.25049 3.5 5.25049H20.5ZM12 1.24756C12.7761 1.24756 13.5335 1.48874 14.167 1.93701C14.7212 2.32929 15.1574 2.86327 15.4307 3.48096L15.5371 3.75049L15.5596 3.82373C15.6493 4.19322 15.4454 4.57828 15.0791 4.70752C14.7132 4.83637 14.3144 4.66428 14.1523 4.3208L14.123 4.24951L14.0586 4.0874C13.8946 3.7168 13.6324 3.39598 13.2998 3.16064C12.9197 2.89183 12.4656 2.74756 12 2.74756C11.5344 2.74756 11.0803 2.89183 10.7002 3.16064C10.32 3.42966 10.0319 3.81031 9.87695 4.24951L9.84766 4.3208C9.68556 4.66428 9.28684 4.83637 8.9209 4.70752C8.53029 4.56969 8.32507 4.1411 8.46289 3.75049L8.56934 3.48096C8.84257 2.86327 9.27879 2.32929 9.83301 1.93701C10.4665 1.48874 11.2239 1.24756 12 1.24756Z" fill="#333333"/>
</svg>
