<svg width="24" height="24" viewBox="0 0 24 24" fill="none" xmlns="http://www.w3.org/2000/svg">
<mask id="mask0_2008_1290" style="mask-type:alpha" maskUnits="userSpaceOnUse" x="1" y="1" width="22" height="22">
<circle cx="12" cy="12" r="11" fill="#D9D9D9"/>
</mask>
<g mask="url(#mask0_2008_1290)">
<path d="M22.8793 23H1.12072C-0.0499187 23 -1 21.88 -1 20.5V2.5C-1 1.12 -0.0499187 0 1.12072 0H22.8793C24.0499 0 25 1.12 25 2.5V20.5C25 21.8825 24.0499 23 22.8793 23Z" fill="#333333"/>
<path d="M11.9912 9.96044L11.9846 9.96272C11.932 9.98327 11.9167 10.0517 11.9517 10.0974L12.1707 10.3736L12.3197 10.2412L12.081 9.98099C12.0694 9.96899 12.0548 9.96069 12.0389 9.95705C12.023 9.95341 12.0065 9.95459 11.9912 9.96044ZM8.43666 14.3316L7.86067 14.0189C7.8103 13.9915 7.75117 13.9756 7.69423 13.9756H7.52778C7.51273 13.9752 7.4983 13.9692 7.48706 13.9588C7.47583 13.9483 7.46853 13.934 7.46646 13.9185C7.44894 13.7267 7.29344 13.5784 7.10947 13.5784H7.05691C6.94522 13.5784 6.84009 13.5236 6.7722 13.43L6.69336 13.3204C6.63204 13.236 6.54005 13.1835 6.43931 13.1744L6.01005 13.1356C5.99956 13.1354 5.98945 13.1314 5.98158 13.1241L5.9115 13.0739C5.89179 13.0602 5.8677 13.0579 5.84799 13.0716L5.54138 13.252C5.48662 13.2839 5.42749 13.2999 5.36398 13.2999H5.04861C5.03766 13.2999 5.0289 13.2976 5.02014 13.2931C4.9851 13.2725 4.90406 13.2086 4.90406 13.0671V12.8776C4.90406 12.8692 4.90248 12.8609 4.89939 12.8532C4.89631 12.8454 4.8918 12.8384 4.8861 12.8324C4.88041 12.8265 4.87365 12.8218 4.86621 12.8186C4.85877 12.8154 4.85079 12.8137 4.84274 12.8137H4.64344C4.63272 12.8136 4.62222 12.8106 4.61297 12.8049C4.60373 12.7993 4.59606 12.7912 4.59074 12.7815C4.58543 12.7718 4.58264 12.7608 4.58266 12.7496C4.58269 12.7385 4.58552 12.7275 4.59088 12.7178L4.68505 12.5466C4.68943 12.5375 4.69381 12.5261 4.69381 12.5147V12.364C4.69381 12.3471 4.68735 12.3308 4.67585 12.3188C4.66435 12.3068 4.64876 12.3001 4.63249 12.3001H4.52299C4.50328 12.3001 4.48357 12.3115 4.47262 12.3298L4.41129 12.4302C4.34559 12.5375 4.23171 12.6014 4.10906 12.6014H4.02146C4.02146 12.6014 3.8791 12.574 3.8791 12.4165V11.8436C3.88129 11.8253 3.89444 11.7683 3.95357 11.7295C4.00613 11.6952 4.12877 11.6267 4.1901 11.5925C4.212 11.5811 4.24047 11.5834 4.26018 11.6016L4.37625 11.7135C4.3872 11.7249 4.40034 11.7295 4.41567 11.7295C4.45291 11.7295 4.5208 11.7317 4.53394 11.7249C4.55146 11.7158 4.50766 11.6336 4.61278 11.5994C4.7201 11.5674 4.79018 11.6678 4.79018 11.6678L5.06175 12.0034C5.08146 12.0285 5.1165 12.0331 5.14278 12.0148L5.1822 11.9874C5.20848 11.9691 5.21724 11.9326 5.20191 11.9029L5.19753 11.8938C5.10993 11.7363 5.14278 11.5354 5.27638 11.419L5.50195 11.2204C5.50195 11.2204 5.52823 11.2022 5.54138 11.0995C5.55014 11.0378 5.56547 10.9465 5.57642 10.8826C5.60051 10.8415 5.62022 10.8027 5.64431 10.7616L6.13051 10.3348C6.15898 10.3097 6.20059 10.3165 6.2203 10.3485C6.24439 10.385 6.28381 10.4261 6.33419 10.4238C6.41084 10.4192 6.60137 10.312 6.67584 10.2663C6.68523 10.2609 6.69305 10.253 6.69845 10.2433C6.70385 10.2337 6.70663 10.2227 6.7065 10.2115V10.1316L6.47216 10.1819C6.43931 10.1887 6.40646 10.1659 6.39989 10.1294L6.37361 9.96957C6.37108 9.95505 6.36381 9.94189 6.35303 9.93232C6.34225 9.92275 6.32863 9.91736 6.31447 9.91707L6.08014 9.94446L6.10861 9.87142C6.11737 9.84631 6.13927 9.83033 6.16555 9.82577L6.74373 9.76185C6.79629 9.73903 6.87514 9.70707 6.9277 9.68425L7.04377 9.59066C7.07224 9.56783 7.07443 9.52446 7.05034 9.49707L6.39989 8.80316C6.39086 8.79383 6.37936 8.78754 6.36686 8.78509C6.35437 8.78265 6.34146 8.78417 6.3298 8.78946L6.13489 8.88533C6.11518 8.89446 6.09109 8.89218 6.07357 8.88077L5.53481 8.48588C5.5285 8.48102 5.52133 8.47752 5.51371 8.47558C5.5061 8.47364 5.49819 8.47329 5.49044 8.47457C5.4827 8.47584 5.47528 8.47871 5.4686 8.483C5.46193 8.48729 5.45615 8.49293 5.45158 8.49957L5.36836 8.61827C5.36179 8.6274 5.35741 8.63881 5.35741 8.65251L5.34208 8.94696C5.34208 8.96522 5.34646 8.9812 5.3596 8.9949L5.43844 9.07935C5.46472 9.10675 5.46034 9.1524 5.42968 9.17522L5.31361 9.26196C5.30581 9.26786 5.29679 9.27176 5.28728 9.27335C5.27777 9.27493 5.26803 9.27416 5.25886 9.27109L4.99605 9.31675C4.95881 9.21403 4.87778 9.13414 4.77704 9.09762L4.64563 9.04968C4.40691 8.96522 4.32588 8.65707 4.48576 8.4562L4.742 8.13435C4.74858 8.12539 4.75301 8.1149 4.75492 8.10378C4.75682 8.09266 4.75615 8.08123 4.75295 8.07044L4.68067 7.87642L4.66753 7.85588L4.37844 7.53403C4.26456 7.40848 4.06088 7.4724 4.0346 7.64359L4.03241 7.66185C4.01708 7.76229 3.93167 7.83761 3.8353 7.83761H2.9746C2.92642 7.8262 2.87824 7.81707 2.82787 7.80566L2.23873 7.53175C2.19712 7.52033 2.1577 7.5112 2.11609 7.49979L1.57514 7.46327C1.52477 7.4724 1.4744 7.47925 1.42402 7.48838L1.18093 7.58653C1.11522 7.61164 1.04514 7.61848 0.977248 7.60251L-0.225107 7.33544C-0.297379 7.31946 -0.374032 7.32631 -0.441925 7.35827L-1.00916 7.61164C-1.05077 7.6299 -1.05953 7.68696 -1.02449 7.71892L-0.875561 7.84903C-0.833949 7.88555 -0.85804 7.95859 -0.912792 7.96088L-1.13618 7.96544C-1.16903 7.96544 -1.19531 7.99512 -1.19531 8.02935V8.06131C-1.19531 8.09555 -1.16903 8.12294 -1.13618 8.12522L-0.943453 8.12751C-0.877751 8.12979 -0.86023 8.22109 -0.919362 8.24849L-1.08581 8.32609C-1.1099 8.33751 -1.12304 8.36262 -1.12085 8.39001L-1.10552 8.56348C-1.09019 8.73468 -0.967544 8.87164 -0.803288 8.89903L-0.685024 8.91957C-0.628082 8.9287 -0.614941 9.00631 -0.663123 9.03598L-0.700354 9.05881C-0.739776 9.08392 -0.739776 9.14327 -0.700354 9.16609L-0.680644 9.17751C-0.663123 9.18892 -0.643412 9.18892 -0.623701 9.18207L0.390306 8.70501C0.521711 8.64338 0.675017 8.66848 0.78014 8.7712L1.74597 9.69109C1.81605 9.75729 1.85766 9.85088 1.86204 9.94903L1.89489 10.6521C1.89927 10.732 1.92555 10.8073 1.97373 10.8689L2.92423 12.1015C2.94175 12.1244 2.97241 12.1312 2.99869 12.1175C3.03154 12.0992 3.04249 12.0559 3.02059 12.0239C3.02059 12.0239 3.62068 12.6722 3.67762 12.6996L4.16382 12.9507C4.21419 12.9758 4.26675 12.9895 4.32369 12.9895H4.5646C4.58869 12.9895 4.61059 13.0032 4.61935 13.026L4.70038 13.2086C4.70038 13.2109 4.70258 13.2109 4.70258 13.2132C4.71791 13.2383 4.84274 13.4597 4.97634 13.4688C5.11869 13.4779 5.37493 13.4688 5.37493 13.4688C5.37493 13.4688 5.46691 13.4665 5.46691 13.5715V13.7313C5.46691 13.7541 5.45596 13.7747 5.43625 13.7861C5.35741 13.8317 5.15373 13.9664 5.15373 14.1194V14.4777C5.15373 14.4937 5.15811 14.5074 5.16687 14.5188C5.19315 14.5508 5.2501 14.6192 5.29828 14.6603C5.35084 14.7037 5.44282 14.8155 5.48005 14.8589C5.48881 14.8703 5.49319 14.884 5.49319 14.9V15.1054C5.49538 15.1123 5.49538 15.1214 5.49757 15.1283C5.50852 15.1557 5.537 15.2241 5.58737 15.2492C5.61803 15.2652 5.69468 15.3291 5.76476 15.3931C5.85237 15.4707 5.89836 15.5871 5.8896 15.708L5.8458 16.2924C5.84142 16.3152 5.83923 16.338 5.83485 16.3609L5.63993 17.1233C5.63555 17.1689 5.63336 17.2123 5.62898 17.2579L5.64869 17.5707C5.65307 17.6254 5.64869 17.6802 5.63117 17.7327L5.5589 17.945C5.537 18.0135 5.53262 18.0865 5.54795 18.1573L5.63993 18.5522C5.65088 18.5978 5.67497 18.6389 5.7122 18.6686L5.80638 18.7462C5.84142 18.7759 5.89398 18.817 5.93121 18.7896C6.11299 18.6595 6.17869 18.1345 6.25753 17.9382C6.29695 17.8377 6.87951 17.0457 6.87733 16.9384L6.87294 16.7854C6.87294 16.7489 6.89923 16.7215 6.93427 16.7215H7.12042C7.13795 16.7215 7.15328 16.7147 7.16423 16.701L7.60005 16.2034C7.611 16.192 7.61538 16.176 7.61538 16.16V15.9569C7.61538 15.9203 7.64385 15.8929 7.67889 15.8929C7.75336 15.8975 7.876 15.8975 7.91761 15.861C7.97018 15.8153 8.12786 15.6236 8.17823 15.5642C8.18699 15.5528 8.19356 15.5391 8.19356 15.5232V15.2013C8.19356 15.1077 8.22641 15.0187 8.28774 14.9479L8.50675 14.6969C8.56807 14.6284 8.5834 14.5257 8.5396 14.4344C8.5177 14.391 8.48046 14.3545 8.43666 14.3316Z" fill="#D4D4D4"/>
<path d="M23.5522 7.1164H22.939C22.9084 7.1164 22.8821 7.09586 22.8733 7.06619L22.2864 6.94977C22.236 6.94977 22.1856 6.93379 22.1418 6.90412L22.0082 6.81053C21.9644 6.78086 21.9141 6.76488 21.8637 6.76488C21.8637 6.76488 20.4971 6.03673 18.7078 6.10749C18.0354 6.13488 17.4441 6.48412 17.4441 6.48412C17.4266 6.49097 17.4134 6.50923 17.4113 6.52749L17.4047 6.58456C17.4003 6.61195 17.3784 6.63249 17.3499 6.63249L17.0806 6.62564C17.0499 6.62564 17.0258 6.65075 17.0258 6.68042L16.2724 6.70782C16.2067 6.70782 16.1454 6.74206 16.1082 6.79684L16.0403 6.89956C15.9899 6.97488 15.3153 6.99999 15.3153 6.99999C15.2979 6.99203 15.283 6.97895 15.2725 6.96234C15.262 6.94573 15.2563 6.92629 15.2562 6.9064V6.82423C15.2562 6.79455 15.2672 6.76945 15.2891 6.7489L15.6482 6.41108C15.6877 6.37455 15.738 6.34945 15.7906 6.3426L16.014 6.31292C16.027 6.311 16.0395 6.30636 16.0508 6.29931C16.0621 6.29225 16.0719 6.28291 16.0797 6.27184L16.106 6.23075C16.1432 6.17597 16.1191 6.10064 16.06 6.07782L16.0446 6.07097C16.0318 6.06637 16.0181 6.06461 16.0045 6.06578C15.991 6.06696 15.9778 6.07106 15.9658 6.07782L15.795 6.18053C15.7796 6.18966 15.7643 6.19423 15.7468 6.19423H15.5803C15.5103 6.19423 15.4446 6.2239 15.3942 6.2764L14.9934 6.70325C14.9584 6.73977 14.9343 6.78771 14.9233 6.83792L14.8861 7.0251L14.9124 7.10499L14.7547 7.33325L14.6123 7.48162H14.4787V7.33325H14.3189L14.2729 7.52042C14.251 7.60716 14.1918 7.67564 14.113 7.7076L13.9794 7.7601C13.894 7.79434 13.7954 7.77836 13.7232 7.71673L13.5501 7.57064L14.0166 7.59575L14.0692 7.49075C14.0692 7.49075 13.5808 7.25564 13.2983 7.08901C13.0683 6.95434 12.7661 7.06847 12.661 7.1164C12.6347 7.12782 12.6128 7.14379 12.5931 7.16205L11.5747 8.11847C11.4652 8.22119 11.4586 8.40151 11.5637 8.51108L11.6601 8.61379L11.7959 8.49738C11.8331 8.46542 11.8857 8.46771 11.9207 8.50195L12.1748 8.74847H12.2405L12.4814 8.45173C12.5099 8.41521 12.512 8.36499 12.4836 8.32847L12.4529 8.2851C12.4413 8.26925 12.4344 8.25014 12.4333 8.23022C12.4321 8.2103 12.4366 8.19046 12.4463 8.17325L12.7814 7.60716C12.7989 7.57749 12.8362 7.56608 12.8668 7.57977L12.926 7.60945C12.961 7.62542 12.9742 7.66879 12.9566 7.70532L12.7267 8.15955C12.6982 8.21434 12.6938 8.27825 12.7113 8.33532L12.7486 8.45629C12.7661 8.54303 12.7508 8.63434 12.7004 8.70282L12.5558 8.90597C12.5055 8.97673 12.4223 9.01782 12.3368 9.01553L11.9185 8.99955C11.8993 8.99842 11.8813 8.98981 11.8679 8.97543C11.8545 8.96106 11.8468 8.94197 11.8463 8.92195V8.85119C11.8463 8.80782 11.8134 8.77358 11.7718 8.77358C11.7346 8.77358 11.7017 8.80325 11.6973 8.84434L11.6864 8.96988C11.682 9.00869 11.6513 9.04064 11.6119 9.04064H11.5725C11.5528 9.04064 11.5353 9.04749 11.5221 9.06118L10.8432 9.71401L10.9418 9.86238V10.0199C10.9418 10.0724 10.9001 10.1158 10.8498 10.1158H10.633C10.5169 10.1158 10.4249 10.2185 10.4315 10.3394L10.4337 10.3691C10.4402 10.4764 10.5235 10.5609 10.6286 10.5654L10.8607 10.5723C10.9483 10.5746 11.0294 10.5335 11.0819 10.4581L11.2484 10.2139C11.2965 10.1431 11.3754 10.0998 11.4608 10.0998H11.6207C11.6732 10.0998 11.7258 10.1158 11.7696 10.1477L12.0258 10.3349C12.0762 10.3714 12.0806 10.449 12.0324 10.4901L11.8879 10.6202C11.8397 10.6636 11.7806 10.6864 11.717 10.6864H10.8147C10.7337 10.6864 10.6549 10.7275 10.6067 10.796L9.91023 11.7661C9.87738 11.814 9.85767 11.8711 9.85767 11.9281V12.5718C9.85767 12.6312 9.87519 12.6883 9.91023 12.7362L10.1533 13.0717C10.173 13.0991 10.1862 13.1334 10.1971 13.1653C10.2125 13.2201 10.2563 13.3 10.3614 13.3H11.4871C11.4871 13.3 11.7696 13.3091 11.7696 13.5031C11.7696 13.5716 11.7674 13.6401 11.7652 13.6994C11.7608 13.8044 11.8134 13.898 11.901 13.9505C11.9799 13.9985 12.0631 14.0806 12.0631 14.213V14.5691C12.0631 14.5965 12.0587 14.6239 12.0521 14.6513C12.0324 14.7175 11.9864 14.8522 11.9229 14.9526C11.8638 15.0439 11.947 15.1809 12.0083 15.2608C12.0456 15.311 12.0653 15.3726 12.0653 15.4342V15.788C12.0653 15.788 12.0915 15.9181 12.2098 15.9729C12.3281 16.0277 12.3697 16.0597 12.3697 16.0597V16.2012C12.3697 16.3518 12.4858 16.4728 12.6303 16.4728H12.972C12.972 16.4728 13.1253 16.4842 13.226 16.3244C13.3268 16.1647 13.6859 15.5849 13.6859 15.5849C13.6859 15.5849 13.7516 15.5118 13.6859 15.3817C13.6202 15.2516 13.6509 15.1352 13.6509 15.1352L13.9641 14.948C13.9641 14.948 14.1108 14.9229 14.1108 14.7106V14.4801C14.1108 14.4436 14.102 14.4071 14.0823 14.3751L14.0276 14.2792C13.9684 14.1742 13.9838 14.0441 14.0626 13.9551L14.7109 13.2384C14.7109 13.2384 14.8817 12.9736 14.8817 12.8389H14.3846C14.2926 12.8389 14.2094 12.7887 14.1612 12.7088L13.5939 11.7341C13.584 11.7171 13.5775 11.698 13.5748 11.6782C13.5722 11.6584 13.5735 11.6383 13.5786 11.619C13.5837 11.5998 13.5926 11.5818 13.6047 11.5663C13.6167 11.5507 13.6317 11.5379 13.6487 11.5287C13.7144 11.4922 13.7954 11.5173 13.8327 11.5812L14.3824 12.5148L14.3802 12.5992C14.3802 12.6266 14.3999 12.6472 14.4262 12.6472C14.562 12.6472 14.9627 12.6312 15.1861 12.428C15.3044 12.3208 15.3767 12.2112 15.4205 12.1199C15.473 12.0103 15.4468 11.8779 15.3591 11.798L15.219 11.6702L15.0372 11.7113L14.7153 11.3758C14.6671 11.3255 14.6802 11.2388 14.7415 11.2068C14.7586 11.1979 14.7778 11.1943 14.7968 11.1963C14.8158 11.1983 14.8339 11.2059 14.8489 11.2183L15.3526 11.62C15.3526 11.62 15.4555 11.7159 15.5606 11.7159H15.8563C15.9483 11.7159 16.0337 11.7661 16.0797 11.8483L16.7389 13.0033C16.7389 13.0033 16.8375 13.0991 16.8944 13.0946C16.9513 13.09 17.028 12.8412 17.028 12.8412C17.028 12.6106 17.1353 12.3915 17.3171 12.2591L17.5448 12.0925C17.6478 12.0172 17.7858 12.0286 17.8756 12.1176L18.0157 12.2591V12.4098C18.0157 12.4349 18.0354 12.4577 18.0617 12.4577H18.123L18.1822 12.3961H18.2522V13.0033C18.2522 13.0717 18.2763 13.1379 18.3223 13.1881L18.7603 13.6766V13.5009C18.7603 13.4392 18.7406 13.3799 18.7034 13.3319L18.4975 13.0649C18.4603 13.0169 18.4406 12.9576 18.4406 12.896V12.7111C18.4406 12.6814 18.4756 12.6677 18.4953 12.6883L18.7603 12.9713L18.7669 13.1493C18.7691 13.1836 18.8085 13.1996 18.8304 13.1744L19.2049 12.7522C19.2049 12.7522 19.3144 12.6106 19.2049 12.4942C19.1261 12.4098 19.0166 12.3025 18.9465 12.234C18.9377 12.2256 18.9308 12.2154 18.9262 12.204C18.9217 12.1926 18.9195 12.1803 18.9199 12.1679C18.9203 12.1555 18.9233 12.1434 18.9287 12.1324C18.934 12.1213 18.9416 12.1116 18.9509 12.1039L19.0232 12.04L19.3166 12.0446C19.3166 12.0446 19.5094 12.0468 19.6539 11.8916C19.8313 11.7022 20.0919 11.4031 20.0919 11.4031C20.0919 11.4031 20.1445 11.1909 20.0218 11.079C19.897 10.9672 19.9517 10.8302 19.9517 10.8302L20.1051 10.691V10.5928H19.7043C19.7043 10.5928 19.7393 10.3714 20.024 10.3577C20.0613 10.3554 20.0963 10.3554 20.1248 10.3531C20.1539 10.3524 20.1829 10.3577 20.2101 10.3689C20.2372 10.38 20.262 10.3967 20.2828 10.418C20.3036 10.4393 20.3202 10.4647 20.3314 10.4928C20.3426 10.5209 20.3483 10.551 20.3482 10.5814V10.9923L20.4073 10.9991C20.4073 10.9991 20.519 11.0105 20.5606 10.8576C20.5606 10.8576 20.6351 10.8348 20.6351 10.7412V10.6293L20.5277 10.4947L20.7029 10.2618C20.7336 10.2208 20.7774 10.1934 20.8256 10.1842L20.9154 10.166C20.9687 10.1555 21.016 10.1235 21.0468 10.0769L21.452 9.44466C21.4804 9.39901 21.4958 9.34651 21.4958 9.29401V9.12053C21.4958 9.09813 21.4872 9.07665 21.472 9.06081C21.4568 9.04497 21.4362 9.03608 21.4147 9.03608H21.1782C21.1782 9.03608 21.0796 8.9151 21.2132 8.83292C21.3074 8.77358 21.4914 8.61608 21.5943 8.52705C21.6403 8.48597 21.6994 8.46314 21.7608 8.46314H22.2382C22.2929 8.46314 22.3455 8.44488 22.3893 8.41292L22.7025 8.1801C22.7139 8.17121 22.7277 8.1664 22.7419 8.1664C22.8777 8.1664 22.9478 8.33532 22.8558 8.44032L22.5317 8.80325C22.4879 8.85119 22.4616 8.91738 22.4616 8.98358L22.4572 9.27575C22.4572 9.33053 22.4988 9.37619 22.5536 9.37619H22.6324L23.0573 8.92423C23.0858 8.89456 23.1055 8.85347 23.112 8.81238L23.1274 8.71651C23.1493 8.5864 23.2566 8.49053 23.3836 8.49053H23.5698C23.6333 8.49053 23.6946 8.46771 23.7406 8.42434L24.0012 8.18695C24.0143 8.17553 24.0297 8.16868 24.0472 8.16868H24.183C24.2224 8.16868 24.2531 8.13673 24.2531 8.09564V7.95869C24.2531 7.93814 24.2618 7.91988 24.275 7.90619L24.3757 7.80803C24.4567 7.73042 24.575 7.71216 24.6736 7.76695L24.8444 7.86053C24.886 7.88336 24.9386 7.87195 24.9692 7.83314L25.0524 7.72358C25.0618 7.71125 25.0684 7.69688 25.0718 7.68153C25.0751 7.66619 25.0751 7.65026 25.0717 7.63492C25.0684 7.61957 25.0617 7.60522 25.0523 7.59291C25.0429 7.5806 25.031 7.57065 25.0174 7.56379L24.1917 7.14151C24.1479 7.12553 23.5917 7.1164 23.5522 7.1164ZM11.9842 9.9651L11.9908 9.96282C12.006 9.95636 12.0227 9.95486 12.0388 9.95853C12.0548 9.9622 12.0694 9.97086 12.0806 9.98336L12.3193 10.2436L12.1704 10.376L11.9514 10.0998C11.9163 10.0541 11.9317 9.98564 11.9842 9.9651ZM13.41 11.2091H13.2764C13.2589 11.2091 13.2413 11.2068 13.2238 11.2023C13.0793 11.1612 12.3565 10.9512 12.223 10.8873C12.2082 10.8804 12.1951 10.87 12.185 10.8568C12.1749 10.8437 12.1679 10.8282 12.1647 10.8117C12.1615 10.7951 12.1621 10.778 12.1665 10.7618C12.1709 10.7456 12.179 10.7307 12.1901 10.7184L12.3697 10.5198C12.431 10.4627 12.5274 10.4673 12.5843 10.5289L12.7486 10.7092L12.8909 10.6818L12.8515 10.5746C12.8515 10.5746 12.834 10.5243 12.8165 10.4787C12.7989 10.433 12.8953 10.376 12.8953 10.376C12.8953 10.376 12.9939 10.3668 12.9939 10.5243C12.9939 10.6818 13.1537 10.8005 13.1537 10.8005H13.6991C13.7341 10.8005 13.756 10.8393 13.7385 10.869L13.6421 11.0607C13.5961 11.1521 13.5063 11.2091 13.41 11.2091ZM14.0955 10.3577H13.9093L13.7735 10.2481C13.7582 10.2367 13.7398 10.2303 13.721 10.2299H13.5436C13.5173 10.2299 13.491 10.2413 13.4713 10.2596L13.3421 10.3783L13.2151 10.3988C13.2032 10.4009 13.1911 10.4005 13.1794 10.3976C13.1677 10.3947 13.1568 10.3894 13.1471 10.3819C13.1375 10.3744 13.1294 10.365 13.1234 10.3541C13.1174 10.3433 13.1136 10.3313 13.1121 10.3189L13.0946 10.1728C13.0902 10.1294 13.1034 10.0884 13.1296 10.0564L13.3399 9.80988L13.4341 9.80303L13.4297 9.8464C13.4231 9.8989 13.4625 9.94456 13.5129 9.94456H13.5589C13.6049 9.94456 13.6465 9.91716 13.664 9.87379L13.7078 9.77564L13.9027 9.80988L13.9203 9.95597C13.9246 9.98792 13.94 10.0176 13.9641 10.0381L14.1809 10.2276V10.2687C14.1809 10.3189 14.1437 10.3577 14.0955 10.3577ZM15.0372 10.5152V10.6818H14.6999L14.6715 10.5152C14.6671 10.4924 14.6715 10.4673 14.6846 10.449L14.7021 10.4239C14.7262 10.3874 14.7218 10.3372 14.689 10.3075L14.5313 10.1568V9.88064L14.7613 9.77792H14.8795C14.9255 9.77792 14.9649 9.80988 14.9781 9.85553L14.9803 9.86238C14.989 9.89662 14.9803 9.93086 14.9584 9.95825C14.9456 9.97296 14.9373 9.9912 14.9343 10.0108L14.9124 10.1546L15.0985 10.3326L14.9649 10.4239L15.0372 10.5152Z" fill="#D4D4D4"/>
<path d="M19.9608 14.1832L19.1636 14.0874C19.1432 14.0853 19.1233 14.0799 19.1045 14.0714L18.9117 13.9892C18.8833 13.9778 18.8548 13.9573 18.8329 13.9344L18.1912 13.2337C18.1822 13.2247 18.1716 13.2178 18.1599 13.2135C18.1482 13.2092 18.1357 13.2075 18.1233 13.2086C18.062 13.2177 18.0357 13.293 18.0773 13.341L18.7519 14.1285C18.7803 14.1604 18.8154 14.1832 18.8548 14.1969L19.2359 14.3156C19.2578 14.3225 19.2775 14.3248 19.2994 14.3248H19.952L19.9608 14.1832ZM21.5464 14.6261L21.5136 14.7219C21.4479 14.9137 21.2639 15.0347 21.069 15.0095C21.0557 15.008 21.043 15.003 21.032 14.995C21.021 14.9871 21.012 14.9764 21.0059 14.9639C20.9999 14.9515 20.9968 14.9377 20.9971 14.9237C20.9974 14.9098 21.0011 14.8961 21.0077 14.884L21.1719 14.569L20.7448 14.585C20.6879 14.5873 20.631 14.601 20.5806 14.6261L20.4207 14.7037C20.3791 14.7242 20.3397 14.7516 20.3068 14.7858L20.009 15.0872C19.9739 15.1237 19.9323 15.1533 19.8863 15.1739L19.6848 15.2675C19.5337 15.3382 19.4352 15.4935 19.4352 15.6669V15.6989C19.4352 15.7582 19.4461 15.8153 19.468 15.8701L19.6257 16.2558C19.6301 16.265 19.6323 16.2718 19.6345 16.281C19.6608 16.386 19.7703 16.4476 19.8688 16.4111L20.2718 16.2627C20.3287 16.2422 20.3901 16.233 20.4492 16.2399L20.931 16.2855C21.0624 16.2969 21.1785 16.3723 21.2486 16.4887L21.2814 16.5412C21.3581 16.669 21.4917 16.7466 21.6384 16.7466H21.8333C21.945 16.7466 22.0523 16.701 22.1312 16.6188L22.3458 16.3951C22.4246 16.3129 22.4684 16.2011 22.4684 16.0847V15.7925C22.4684 15.6692 22.4181 15.5528 22.3327 15.4706L21.8924 15.0506C21.8508 15.0118 21.818 14.9639 21.7961 14.9114L21.6647 14.6147C21.6362 14.569 21.5639 14.5713 21.5464 14.6261Z" fill="#D4D4D4"/>
<path d="M19.6347 13.8454L19.7552 13.6194C19.7771 13.5783 19.7858 13.5327 19.7837 13.487L19.7639 13.2474C19.7596 13.1903 19.6939 13.1606 19.6523 13.1994L19.315 13.4962C19.3059 13.5035 19.2954 13.509 19.2843 13.5121L19.1332 13.5418C19.0938 13.5487 19.0697 13.5897 19.0784 13.6286L19.1091 13.7587C19.1185 13.7977 19.1376 13.8335 19.1645 13.8623C19.1915 13.8912 19.2252 13.9121 19.2624 13.923L19.3785 13.9572C19.4792 13.9869 19.5844 13.9413 19.6347 13.8454ZM21.4613 14.3772C21.4941 14.3772 21.527 14.3704 21.5576 14.3544L21.7898 14.238C21.792 14.238 21.792 14.238 21.7941 14.2403L21.965 14.4594C21.9737 14.4708 21.9869 14.4777 22.0022 14.4777H22.1161C22.1555 14.4777 22.1774 14.432 22.1533 14.4001L21.9759 14.1604L21.8993 14.0942L21.2729 13.7701H21.2707L21.1218 13.8317H21.0079C21.0057 13.8317 21.0057 13.8317 21.0057 13.8294L20.9641 13.6879C20.9613 13.6787 20.9558 13.6706 20.9483 13.6648C20.9408 13.6591 20.9318 13.656 20.9225 13.6559H20.7692C20.7634 13.6559 20.7577 13.6571 20.7524 13.6594C20.7471 13.6617 20.7423 13.6651 20.7382 13.6693C20.7342 13.6736 20.7309 13.6786 20.7287 13.6841C20.7265 13.6897 20.7254 13.6956 20.7254 13.7016V13.8408H20.8239V13.8819C20.8239 13.9321 20.8612 13.9755 20.9094 13.9824L21.1327 14.0097C21.1327 14.0097 21.1349 14.0097 21.1349 14.012L21.2554 14.1672C21.2926 14.2152 21.2861 14.3316 21.2466 14.3795L21.2444 14.3818H21.4613V14.3772ZM21.5905 9.95127L21.5116 10.0243C21.424 10.1065 21.3715 10.2183 21.3583 10.3416C21.3474 10.4557 21.2992 10.5607 21.2225 10.6429C21.1108 10.7593 20.9707 10.8392 20.8196 10.8734L20.7889 10.8803L20.6641 10.9853C20.6641 10.9853 20.629 11.1702 20.6641 11.2136C20.6794 11.2341 20.7451 11.2295 20.7648 11.2136C20.7911 11.193 20.7933 11.0789 20.7933 11.0789L21.1897 10.9305C21.1897 10.9305 21.2882 11.0652 21.3364 11.072C21.3583 11.0743 21.4065 11.0492 21.4196 11.0287C21.4722 10.9533 21.5313 10.6771 21.5313 10.6771C21.551 10.6155 21.5642 10.5493 21.5708 10.4854L21.5927 10.2434L21.7701 10.232L21.8401 10.0837L21.6562 10.0654L21.5905 9.95127ZM14.2822 15.6144C14.2822 15.6144 14.3413 15.7354 14.4837 15.7354C14.626 15.7354 14.6851 15.6144 14.6851 15.6144V15.0506C14.6851 14.8863 14.5121 14.7858 14.3785 14.8726C14.3194 14.9114 14.2822 14.9776 14.2822 15.0506V15.6144ZM9.80127 5.78779L10.0378 5.64399L10.0422 5.63486C10.0503 5.61822 10.0541 5.59968 10.0533 5.58103C10.0526 5.56239 10.0472 5.54427 10.0377 5.52843C10.0282 5.51259 10.015 5.49956 9.99929 5.49062C9.98357 5.48167 9.96591 5.4771 9.948 5.47736H9.40924L9.3523 5.41344C9.2866 5.33584 9.19242 5.29018 9.09387 5.2879L8.2923 5.25366C8.23974 5.26279 8.18718 5.27421 8.13461 5.28334L7.65937 5.49105C7.61995 5.50931 7.57833 5.51845 7.53453 5.52073L6.77239 5.55953C6.71544 5.56181 6.66069 5.58008 6.61032 5.60747L6.18325 5.85855C6.17622 5.86271 6.1703 5.86864 6.16605 5.8758C6.16179 5.88296 6.15933 5.89112 6.1589 5.89953C6.15846 5.90794 6.16006 5.91634 6.16355 5.92393C6.16704 5.93153 6.17231 5.93809 6.17887 5.94301C6.21172 5.96812 6.20077 6.0229 6.16135 6.03203L5.82846 6.11877C5.79561 6.1279 5.78247 6.16671 5.7978 6.1941L5.90949 6.38355C5.91606 6.39497 5.9292 6.4041 5.94234 6.40638L6.54024 6.51366C6.63222 6.52964 6.71325 6.58214 6.77019 6.65975L7.18193 7.22355L7.30238 7.39475C7.34619 7.45638 7.33962 7.54084 7.29143 7.59562L7.19945 7.69605C7.15565 7.74399 7.14689 7.81475 7.17536 7.8741L7.4754 8.49953C7.50168 8.5566 7.55205 8.59768 7.609 8.61594C7.79515 8.67301 7.99226 8.56801 8.05796 8.37627L8.13681 8.14344C8.14776 8.10921 8.17185 8.07953 8.20251 8.05899L8.53759 7.76225C8.5792 7.72573 8.62738 7.70062 8.67776 7.68464L9.20337 7.53627C9.31507 7.50431 9.40486 7.42214 9.44647 7.31029L9.69395 6.67116C9.73118 6.57758 9.72899 6.47258 9.69176 6.37899L9.64358 6.26029C9.57569 6.0891 9.64139 5.88594 9.80127 5.78779ZM5.4211 6.34247L5.52185 6.15758C5.55689 6.09366 5.60507 6.04344 5.66639 6.00921L6.49424 5.53214L6.40007 5.42029L5.46053 5.36094C5.43425 5.35866 5.40577 5.36095 5.37949 5.36551L4.46404 5.51844C4.40929 5.52758 4.35673 5.54812 4.31073 5.58236C4.12677 5.71247 4.09392 5.98181 4.23846 6.15758L4.44433 6.40638C4.51441 6.49312 4.61954 6.54105 4.72685 6.54105H5.09478C5.23057 6.54105 5.3554 6.46573 5.4211 6.34247ZM6.46577 8.0841L6.55119 7.98138C6.57309 7.95399 6.56871 7.9129 6.54024 7.89464L6.27305 7.69834L5.34007 6.97931C5.30065 6.94964 5.25466 6.93366 5.20648 6.93366H4.83854C4.77941 6.93366 4.72466 6.95649 4.68305 6.99986L4.48813 7.19616C4.47749 7.20622 4.47107 7.22023 4.47025 7.23517C4.46943 7.25012 4.47428 7.2648 4.48375 7.27605L4.59325 7.41986C4.6042 7.43584 4.62392 7.44497 4.64363 7.44268L4.74875 7.43355C4.7816 7.43127 4.80788 7.45638 4.81007 7.48834L4.81445 7.55225C4.81445 7.56138 4.81445 7.57051 4.81007 7.57964L4.76189 7.7029C4.75313 7.72344 4.75751 7.74855 4.77065 7.76453L4.88673 7.90605C4.89768 7.91975 4.9152 7.92888 4.93272 7.9266L5.04441 7.92203C5.07507 7.91975 5.09916 7.89464 5.09916 7.86268V7.61388C5.09916 7.58192 5.12325 7.55681 5.15172 7.55453L5.30722 7.54312C5.32036 7.54312 5.33569 7.5454 5.34664 7.55453L5.63135 7.78051C5.65325 7.79877 5.65982 7.82845 5.64887 7.85355L5.5547 8.04986C5.54594 8.06812 5.52842 8.08182 5.50652 8.08182L5.41672 8.08866C5.39044 8.09095 5.37073 8.10921 5.36416 8.13431C5.35759 8.17084 5.38168 8.20508 5.41672 8.20736L5.60945 8.22334C5.64887 8.22562 5.6883 8.2416 5.72115 8.26442L6.06061 8.51094C6.08251 8.52692 6.11098 8.52464 6.13069 8.50638L6.238 8.41279C6.24677 8.40594 6.25334 8.39453 6.25553 8.38312L6.29057 8.2416C6.29495 8.22562 6.29276 8.20736 6.284 8.19366L6.16792 8.00649L6.20515 7.99964C6.21829 7.99736 6.23362 7.99964 6.24458 8.00649L6.3935 8.09779C6.4154 8.11149 6.44606 8.10692 6.46577 8.0841ZM2.21921 7.38105V7.1779H2.33528L2.50611 7.42671C2.52801 7.45638 2.55429 7.48149 2.58714 7.49975L2.81053 7.61616C2.84119 7.63214 2.87623 7.64127 2.91127 7.64127H3.60334V7.4016L3.3471 7.30801L3.05144 7.14366C3.01202 7.14366 2.97478 7.13225 2.94193 7.11399L2.46888 6.83323C2.4355 6.81351 2.39774 6.80328 2.35937 6.80355H2.07466C1.9783 6.80355 1.89288 6.86747 1.86222 6.96334L1.83813 7.04323C1.81185 7.1254 1.83375 7.21899 1.89288 7.28062L1.99363 7.38562H2.21921V7.38105ZM3.20255 6.98388L3.38433 6.88573C3.41499 6.86975 3.45003 6.86062 3.48726 6.86062H3.58582C3.67123 6.86062 3.75007 6.91084 3.7873 6.99301L3.85958 7.14823V7.30801H3.53107V7.10486L3.39309 7.03181L3.22883 7.03638L3.20255 6.98388ZM3.83111 6.86062L3.99536 7.1391L4.12458 7.21899H4.31511L4.50565 7.00899L4.36111 6.81268L3.99098 6.86062H3.83111ZM2.76892 6.43605L3.02735 6.53192C3.04487 6.53877 3.0602 6.54562 3.07553 6.55703L3.25512 6.68029C3.28578 6.70084 3.31863 6.71453 3.35586 6.71681L3.68218 6.75105L3.64276 6.54105L3.25292 6.31736C3.22007 6.2991 3.18284 6.28768 3.14561 6.28768H2.94631L2.76892 6.43605ZM11.054 8.15258L11.1482 8.30779C11.1569 8.32149 11.1569 8.34203 11.146 8.35573L11.0737 8.45844C11.0671 8.46986 11.0628 8.48355 11.0671 8.49497L11.0956 8.59768C11.0978 8.60681 11.1022 8.61366 11.1087 8.61823L11.2599 8.73921C11.3628 8.82138 11.3759 8.97888 11.2883 9.07931L11.2861 9.0816C11.2445 9.12953 11.1832 9.15921 11.1197 9.15921H10.9401C10.9138 9.15921 10.8941 9.1341 10.9007 9.10671L10.9467 8.91953C10.9489 8.90812 10.9576 8.89671 10.9686 8.89214L11.0496 8.85105C11.0649 8.84421 11.0737 8.82594 11.0715 8.80768L11.0671 8.75747C11.066 8.74859 11.0622 8.74031 11.0563 8.73377C11.0504 8.72723 11.0427 8.72275 11.0343 8.72095L10.9182 8.69584C10.9095 8.69394 10.9004 8.69516 10.8925 8.6993C10.8845 8.70344 10.8782 8.71027 10.8744 8.71866L10.8481 8.77801C10.8481 8.78029 10.8459 8.78258 10.8459 8.78486L10.789 8.98573C10.7846 9.00399 10.7671 9.0154 10.7496 9.0154L10.5678 9.01084C10.5573 9.01084 10.5473 9.00651 10.5399 8.9988C10.5325 8.9911 10.5284 8.98065 10.5284 8.96975V8.75518C10.5284 8.73236 10.5459 8.7141 10.5678 8.7141L10.662 8.71181C10.6751 8.71181 10.6861 8.70497 10.6948 8.69355L10.7824 8.56116C10.7868 8.55431 10.789 8.54518 10.789 8.53605V8.33518C10.789 8.32149 10.7956 8.31008 10.8043 8.30323L10.9949 8.14344C11.0124 8.12747 11.0409 8.13203 11.054 8.15258Z" fill="#D4D4D4"/>
<path d="M8.99478 7.82857H8.84805L8.75606 7.94042L9.00792 8.14585C9.05392 8.18466 9.11305 8.20064 9.17218 8.19379L9.45908 8.15727V7.96325L9.40433 7.82629L9.10648 7.90618L8.99478 7.82857ZM11.7587 6.18738H12.1375C12.1835 6.18738 12.2273 6.20107 12.2646 6.22846L12.6566 6.51379L12.604 6.59596L12.2733 6.4202L12.1375 6.67814H11.9908L11.6667 6.25357L11.7587 6.18738ZM12.4529 5.88379H12.9435L13.0683 5.98194L12.9435 6.11662H12.6807C12.6325 6.11662 12.5865 6.10064 12.5493 6.07096L12.4069 5.9614L12.4529 5.88379ZM3.47578 6.02075L3.79991 5.8952L3.99045 5.99792L4.08462 6.18281L3.96636 6.20564L3.61156 6.32205L3.1626 6.10292L3.47578 6.02075ZM4.27078 6.57542H4.41094L4.48322 6.65759H5.23222L5.29355 6.75118L5.25413 6.83792L4.55768 6.86075L4.47884 6.76944L4.36276 6.75118L4.34524 6.67585L4.27078 6.64846V6.57542ZM3.72545 6.58912L3.7802 6.75118L3.92256 6.76259L4.03863 6.62335L3.98826 6.57542L3.7802 6.55716L3.72545 6.58912ZM4.1109 6.39053L4.08462 6.48183L4.19413 6.51835L4.27078 6.45444H4.31896V6.41335L4.22479 6.37227L4.16784 6.34944L4.1109 6.39053ZM4.98036 12.25L5.11615 12.1884H5.4797L5.76222 12.4098C5.76222 12.4098 5.89582 12.428 5.89582 12.4645C5.89582 12.5011 5.76222 12.5193 5.76222 12.5193H5.56731L5.29355 12.3253L5.12491 12.3527L4.98036 12.2911C4.96284 12.2865 4.96284 12.2591 4.98036 12.25ZM5.9221 12.5992C5.90677 12.5627 6.02941 12.4874 6.02941 12.4874C6.02941 12.4874 6.22652 12.4349 6.25499 12.4874C6.27032 12.517 6.18491 12.5992 6.18491 12.5992C6.18491 12.5992 5.94838 12.6631 5.9221 12.5992ZM21.5965 16.9864H22.0564L21.8265 17.2649H21.7192L21.5965 16.9864Z" fill="#D4D4D4"/>
</g>
</svg>
